{
.appVersion = "1290";
classes = (
{
automatic = 1;

glyphs = (
{
glyphname = A;
layers = (
{
anchors = (
{
name = bottom;
position = "{289, 0}";
},
{
name = ogonek;
position = "{590, 0}";
},
{
name = top;
position = "{292, 611}";
}
);
background = {
paths = (
{
closed = 1;
nodes = (
"164 152 LINE",
"393 152 LINE",
"429 50 LINE",
"369 33 LINE",
"369 0 LINE",
"586 0 LINE",
"586 33 LINE",
"514 52 LINE",
"317 624 LINE",
"259 611 LINE",
"72 52 LINE",
"0 33 LINE",
"0 0 LINE",
"203 0 LINE",
"203 33 LINE",
"131 52 LINE"
);
},
{
closed = 1;
nodes = (
"378 198 LINE",
"178 198 LINE",
"276 492 LINE"
);
}
);
};
layerId = "C2E97133-8774-4C1F-A96F-338CBADF7D3D";
paths = (
{
closed = 1;
nodes = (
"207 0 LINE",
"207 33 LINE",
"135 52 LINE",
"168 152 LINE",
"397 152 LINE",
"433 50 LINE",
"373 33 LINE",
"373 0 LINE",
"590 0 LINE",
"590 33 LINE",
"518 52 LINE",
"321 624 LINE",
"263 611 LINE",
"76 52 LINE",
"4 33 LINE",
"4 0 LINE"
);
},
{
closed = 1;
nodes = (
"280 492 LINE",
"382 198 LINE",
"182 198 LINE"
);
}
);
width = 594;
},
{
anchors = (
{
name = bottom;
position = "{270, 0}";
},
{
name = ogonek;
position = "{604, 0}";
},
{
name = top;
position = "{288, 614}";
}
);
background = {
paths = (
{
closed = 1;
nodes = (
"170 153 LINE",
"362 153 LINE",
"391 65 LINE",
"326 45 LINE",
"326 0 LINE",
"604 0 LINE",
"604 45 LINE",
"533 69 LINE",
"328 627 LINE",
"250 614 LINE",
"61 69 LINE",
"-10 44 LINE",
"-10 0 LINE",
"210 0 LINE",
"210 45 LINE",
"142 68 LINE"
);
},
{
closed = 1;
nodes = (
"342 207 LINE",
"189 207 LINE",
"262 423 LINE"
);
}
);
};
layerId = "320D1F10-23EA-4160-876F-9C954522C215";
paths = (
{
closed = 1;
nodes = (
"210 0 LINE",
"210 45 LINE",
"142 68 LINE",
"170 153 LINE",
"362 153 LINE",
"391 65 LINE",
"326 45 LINE",
"326 0 LINE",
"604 0 LINE",
"604 45 LINE",
"533 69 LINE",
"328 627 LINE",
"250 614 LINE",
"61 69 LINE",
"-10 44 LINE",
"-10 0 LINE"
);
},
{
closed = 1;
nodes = (
"262 423 LINE",
"342 207 LINE",
"189 207 LINE"
);
}
);
width = 594;
},
{
anchors = (
{
name = bottom;
position = "{292, 0}";
},
{
name = ogonek;
position = "{587, 0}";
},
{
name = top;
position = "{296, 610}";
}
);
layerId = "5f75e36f-2d9b-434e-b133-1931d65175c8";
paths = (
{
closed = 1;
nodes = (
"206 0 LINE",
"206 30 LINE",
"133 48 LINE",
"168 152 LINE",
"406 152 LINE",
"444 46 LINE",
"385 30 LINE",
"385 0 LINE",
"587 0 LINE",
"587 30 LINE",
"514 48 LINE",
"319 623 LINE",
"266 610 LINE",
"80 48 LINE",
"8 30 LINE",
"8 0 LINE"
);
},
{
closed = 1;
nodes = (
"285 509 LINE",
"392 196 LINE",
"180 196 LINE"
);
}
);
width = 594;
},
{
anchors = (
{
name = bottom;
position = "{261, 0}";
},
{
name = ogonek;
position = "{609, 0}";
},
{
name = top;
position = "{287, 615}";
}
);
layerId = "13e4c948-4684-4dcc-833a-03da9e1ebe8a";
paths = (
{
closed = 1;
nodes = (
"211 0 LINE",
"211 49 LINE",
"143 74 LINE",
"169 153 LINE",
"350 153 LINE",
"377 70 LINE",
"310 49 LINE",
"310 0 LINE",
"609 0 LINE",
"609 49 LINE",
"539 75 LINE",
"332 628 LINE",
"245 615 LINE",
"56 75 LINE",
"-14 48 LINE",
"-14 0 LINE"
);
},
{
closed = 1;
nodes = (
"256 404 LINE",
"329 210 LINE",
"190 210 LINE"
);
}
);
width = 594;
}
);
leftKerningGroup = A;
rightKerningGroup = A;
unicode = 0041;
},
{
glyphname = Aogonek;
layers = (
{
background = {
paths = (
{
closed = 1;
nodes = (
"168 152 LINE",
"397 152 LINE",
"433 50 LINE",
"373 33 LINE",
"373 0 LINE",
"590 0 LINE",
"590 33 LINE",
"518 52 LINE",
"321 624 LINE",
"263 611 LINE",
"76 52 LINE",
"4 33 LINE",
"4 0 LINE",
"207 0 LINE",
"207 33 LINE",
"135 52 LINE"
);
},
{
closed = 1;
nodes = (
"382 198 LINE",
"182 198 LINE",
"280 492 LINE"
);
},
{
closed = 1;
nodes = (
"186 697 LINE",
"403 697 LINE",
"403 749 LINE",
"186 749 LINE"
);
}
);
};
layerId = "C2E97133-8774-4C1F-A96F-338CBADF7D3D";
paths = (
{
closed = 1;
nodes = (
"440 -236 OFFCURVE",
"474 -208 OFFCURVE",
"487 -186 CURVE",
"471 -170 LINE",
"456 -186 OFFCURVE",
"439 -193 OFFCURVE",
"421 -193 CURVE SMOOTH",
"391 -193 OFFCURVE",
"366 -171 OFFCURVE",
"366 -125 CURVE SMOOTH",
"366 -77 OFFCURVE",
"405 0 OFFCURVE",
"472 0 CURVE SMOOTH",
"590 0 LINE",
"590 33 LINE",
"518 52 LINE",
"321 624 LINE",
"263 611 LINE",
"76 52 LINE",
"4 33 LINE",
"4 0 LINE",
"207 0 LINE",
"207 33 LINE",
"135 52 LINE",
"168 152 LINE",
"397 152 LINE",
"425 72 LINE SMOOTH",
"427 65 OFFCURVE",
"428 61 OFFCURVE",
"428 56 CURVE SMOOTH",
"428 13 OFFCURVE",
"301 -38 OFFCURVE",
"301 -151 CURVE SMOOTH",
"301 -190 OFFCURVE",
"327 -236 OFFCURVE",
"393 -236 CURVE SMOOTH"
);
},
{
closed = 1;
nodes = (
"280 492 LINE",
"382 198 LINE",
"182 198 LINE"
);
}
);
width = 594;
},
{
background = {
paths = (
{
closed = 1;
nodes = (
"170 153 LINE",
"362 153 LINE",
"384 85 LINE SMOOTH",
"386 79 OFFCURVE",
"391 60 OFFCURVE",
"391 51 CURVE SMOOTH",
"391 1 OFFCURVE",
"280 -57 OFFCURVE",
"280 -147 CURVE SMOOTH",
"280 -192 OFFCURVE",
"306 -233 OFFCURVE",
"382 -233 CURVE SMOOTH",
"458 -233 OFFCURVE",
"492 -171 OFFCURVE",
"492 -171 CURVE",
"469 -149 LINE",
"449 -163 OFFCURVE",
"430 -171 OFFCURVE",
"408 -171 CURVE SMOOTH",
"376 -171 OFFCURVE",
"365 -151 OFFCURVE",
"365 -116 CURVE SMOOTH",
"365 -50 OFFCURVE",
"423 0 OFFCURVE",
"488 0 CURVE SMOOTH",
"604 0 LINE",
"604 45 LINE",
"533 69 LINE",
"328 627 LINE",
"250 614 LINE",
"61 69 LINE",
"-10 44 LINE",
"-10 0 LINE",
"210 0 LINE",
"210 45 LINE",
"142 68 LINE"
);
},
{
closed = 1;
nodes = (
"342 207 LINE",
"189 207 LINE",
"262 423 LINE"
);
}
);
};
layerId = "320D1F10-23EA-4160-876F-9C954522C215";
paths = (
{
closed = 1;
nodes = (
"437 -233 OFFCURVE",
"477 -198 OFFCURVE",
"492 -171 CURVE",
"469 -149 LINE",
"449 -163 OFFCURVE",
"430 -171 OFFCURVE",
"408 -171 CURVE SMOOTH",
"376 -171 OFFCURVE",
"365 -151 OFFCURVE",
"365 -116 CURVE SMOOTH",
"365 -50 OFFCURVE",
"423 0 OFFCURVE",
"488 0 CURVE SMOOTH",
"604 0 LINE",
"604 45 LINE",
"533 69 LINE",
"328 627 LINE",
"250 614 LINE",
"61 69 LINE",
"-10 44 LINE",
"-10 0 LINE",
"210 0 LINE",
"210 45 LINE",
"142 68 LINE",
"170 153 LINE",
"362 153 LINE",
"384 85 LINE SMOOTH",
"386 79 OFFCURVE",
"391 60 OFFCURVE",
"391 51 CURVE SMOOTH",
"391 1 OFFCURVE",
"280 -57 OFFCURVE",
"280 -147 CURVE SMOOTH",
"280 -192 OFFCURVE",
"306 -233 OFFCURVE",
"382 -233 CURVE SMOOTH"
);
},
{
closed = 1;
nodes = (
"262 423 LINE",
"342 207 LINE",
"189 207 LINE"
);
}
);
width = 594;
},
{
layerId = "5f75e36f-2d9b-434e-b133-1931d65175c8";
paths = (
{
closed = 1;
nodes = (
"457 -237 OFFCURVE",
"483 -195 OFFCURVE",
"486 -190 CURVE",
"472 -175 LINE",
"458 -192 OFFCURVE",
"441 -199 OFFCURVE",
"424 -199 CURVE SMOOTH",
"395 -199 OFFCURVE",
"366 -176 OFFCURVE",
"366 -127 CURVE SMOOTH",
"366 -84 OFFCURVE",
"401 0 OFFCURVE",
"468 0 CURVE SMOOTH",
"587 0 LINE",
"587 30 LINE",
"514 48 LINE",
"319 623 LINE",
"266 610 LINE",
"80 48 LINE",
"8 30 LINE",
"8 0 LINE",
"206 0 LINE",
"206 30 LINE",
"133 48 LINE",
"168 152 LINE",
"406 152 LINE",
"435 69 LINE SMOOTH",
"437 62 OFFCURVE",
"437 61 OFFCURVE",
"437 57 CURVE SMOOTH",
"437 16 OFFCURVE",
"306 -33 OFFCURVE",
"306 -152 CURVE SMOOTH",
"306 -190 OFFCURVE",
"332 -237 OFFCURVE",
"396 -237 CURVE SMOOTH"
);
},
{
closed = 1;
nodes = (
"285 509 LINE",
"392 196 LINE",
"180 196 LINE"
);
}
);
width = 594;
},
{
layerId = "13e4c948-4684-4dcc-833a-03da9e1ebe8a";
paths = (
{
closed = 1;
nodes = (
"457 -232 OFFCURVE",
"490 -174 OFFCURVE",
"494 -166 CURVE",
"469 -142 LINE",
"447 -155 OFFCURVE",
"427 -163 OFFCURVE",
"404 -163 CURVE SMOOTH",
"371 -163 OFFCURVE",
"365 -144 OFFCURVE",
"365 -113 CURVE SMOOTH",
"365 -41 OFFCURVE",
"430 0 OFFCURVE",
"494 0 CURVE SMOOTH",
"609 0 LINE",
"609 49 LINE",
"539 75 LINE",
"331 628 LINE",
"246 615 LINE",
"56 75 LINE",
"-14 48 LINE",
"-14 0 LINE",
"211 0 LINE",
"211 49 LINE",
"143 74 LINE",
"169 153 LINE",
"350 153 LINE",
"370 90 LINE SMOOTH",
"372 84 OFFCURVE",
"379 60 OFFCURVE",
"379 49 CURVE SMOOTH",
"379 -3 OFFCURVE",
"273 -64 OFFCURVE",
"273 -146 CURVE SMOOTH",
"273 -193 OFFCURVE",
"299 -232 OFFCURVE",
"379 -232 CURVE SMOOTH"
);
},
{
closed = 1;
nodes = (
"256 402 LINE",
"329 210 LINE",
"190 210 LINE"
);
}
);
width = 594;
}
);
leftKerningGroup = A;
leftMetricsKey = A;
rightKerningGroup = A;
rightMetricsKey = A;
unicode = 0104;
},
{
glyphname = AE;
layers = (
{
anchors = (
{
name = top;
position = "{387, 611}";
}
);
background = {
paths = (
{
closed = 1;
nodes = (
"377 611 LINE",
"321 611 LINE",
"27 53 LINE",
"-45 33 LINE",
"-45 0 LINE",
"159 0 LINE",
"159 34 LINE",
"90 53 LINE"
);
},
{
closed = 1;
nodes = (
"406 559 LINE",
"569 559 LINE",
"590 479 LINE",
"629 479 LINE",
"629 611 LINE",
"229 611 LINE",
"229 578 LINE",
"325 558 LINE",
"359 53 LINE",
"266 33 LINE",
"266 0 LINE",
"666 0 LINE",
"666 147 LINE",
"627 147 LINE",
"601 56 LINE",
"440 56 LINE"
);
},
{
closed = 1;
nodes = (
"405 263 LINE",
"526 263 LINE",
"549 194 LINE",
"586 194 LINE",
"586 376 LINE",
"549 376 LINE",
"528 310 LINE",
"405 310 LINE"
);
},
{
closed = 1;
nodes = (
"169 263 LINE",
"429 263 LINE",
"413 310 LINE",
"183 310 LINE"
);
}
);
};
layerId = "C2E97133-8774-4C1F-A96F-338CBADF7D3D";
paths = (
{
closed = 1;
nodes = (
"159 0 LINE",
"159 34 LINE",
"90 53 LINE",
"198 263 LINE",
"345 263 LINE",
"359 53 LINE",
"266 33 LINE",
"266 0 LINE",
"666 0 LINE",
"666 147 LINE",
"627 147 LINE",
"601 56 LINE",
"440 56 LINE",
"426 263 LINE",
"526 263 LINE",
"549 194 LINE",
"586 194 LINE",
"586 376 LINE",
"549 376 LINE",
"528 310 LINE",
"423 310 LINE",
"406 559 LINE",
"569 559 LINE",
"590 479 LINE",
"629 479 LINE",
"629 611 LINE",
"229 611 LINE",
"229 578 LINE",
"296 564 LINE",
"27 53 LINE",
"-45 33 LINE",
"-45 0 LINE"
);
},
{
closed = 1;
nodes = (
"328 515 LINE",
"342 310 LINE",
"222 310 LINE"
);
}
);
width = 711;
},
{
anchors = (
{
name = top;
position = "{397, 614}";
}
);
background = {
paths = (
{
closed = 1;
nodes = (
"442 546 LINE",
"573 546 LINE",
"595 468 LINE",
"651 468 LINE",
"651 614 LINE",
"227 614 LINE",
"227 569 LINE",
"292 551 LINE",
"36 69 LINE",
"-35 44 LINE",
"-35 0 LINE",
"185 0 LINE",
"185 45 LINE",
"117 68 LINE",
"212 254 LINE",
"332 254 LINE",
"346 69 LINE",
"262 45 LINE",
"262 0 LINE",
"692 0 LINE",
"692 162 LINE",
"636 162 LINE",
"610 69 LINE",
"476 69 LINE",
"462 260 LINE",
"527 260 LINE",
"546 191 LINE",
"599 191 LINE",
"599 382 LINE",
"546 382 LINE",
"529 316 LINE",
"458 316 LINE"
);
},
{
closed = 1;
nodes = (
"318 459 LINE",
"328 310 LINE",
"241 310 LINE"
);
}
);
};
layerId = "320D1F10-23EA-4160-876F-9C954522C215";
paths = (
{
closed = 1;
nodes = (
"185 0 LINE",
"185 45 LINE",
"117 68 LINE",
"212 254 LINE",
"332 254 LINE",
"346 69 LINE",
"262 45 LINE",
"262 0 LINE",
"692 0 LINE",
"692 162 LINE",
"636 162 LINE",
"610 69 LINE",
"477 69 LINE",
"462 260 LINE",
"527 260 LINE",
"546 191 LINE",
"599 191 LINE",
"599 382 LINE",
"546 382 LINE",
"529 316 LINE",
"458 316 LINE",
"442 546 LINE",
"573 546 LINE",
"595 468 LINE",
"651 468 LINE",
"651 614 LINE",
"227 614 LINE",
"227 569 LINE",
"292 551 LINE",
"36 69 LINE",
"-35 44 LINE",
"-35 0 LINE"
);
},
{
closed = 1;
nodes = (
"318 459 LINE",
"328 310 LINE",
"241 310 LINE"
);
}
);
width = 719;
},
{
anchors = (
{
name = top;
position = "{403, 610}";
}
);
layerId = "5f75e36f-2d9b-434e-b133-1931d65175c8";
paths = (
{
closed = 1;
nodes = (
"156 0 LINE",
"156 31 LINE",
"86 49 LINE",
"198 265 LINE",
"351 265 LINE",
"365 49 LINE",
"270 30 LINE",
"270 0 LINE",
"663 0 LINE",
"663 143 LINE",
"628 143 LINE",
"602 53 LINE",
"434 53 LINE",
"420 264 LINE",
"529 264 LINE",
"553 195 LINE",
"586 195 LINE",
"586 375 LINE",
"553 375 LINE",
"531 309 LINE",
"417 309 LINE",
"400 562 LINE",
"571 562 LINE",
"592 482 LINE",
"627 482 LINE",
"627 610 LINE",
"233 610 LINE",
"233 580 LINE",
"300 567 LINE",
"28 49 LINE",
"-45 30 LINE",
"-45 0 LINE"
);
},
{
closed = 1;
nodes = (
"334 529 LINE",
"349 310 LINE",
"220 310 LINE"
);
}
);
width = 713;
},
{
anchors = (
{
name = top;
position = "{364, 615}";
}
);
layerId = "13e4c948-4684-4dcc-833a-03da9e1ebe8a";
paths = (
{
closed = 1;
nodes = (
"160 0 LINE",
"160 49 LINE",
"93 73 LINE",
"183 251 LINE",
"294 251 LINE",
"308 75 LINE",
"227 49 LINE",
"227 0 LINE",
"667 0 LINE",
"667 167 LINE",
"606 167 LINE",
"580 74 LINE",
"455 74 LINE",
"441 259 LINE",
"494 259 LINE",
"511 190 LINE",
"570 190 LINE",
"570 384 LINE",
"511 384 LINE",
"496 318 LINE",
"437 318 LINE",
"421 542 LINE",
"541 542 LINE",
"563 464 LINE",
"625 464 LINE",
"625 615 LINE",
"183 615 LINE",
"183 566 LINE",
"247 547 LINE",
"-5 75 LINE",
"-65 48 LINE",
"-65 0 LINE"
);
},
{
closed = 1;
nodes = (
"281 440 LINE",
"290 310 LINE",
"214 310 LINE"
);
}
);
width = 687;
}
);
rightKerningGroup = E;
rightMetricsKey = E;
unicode = 00C6;
},
{
glyphname = B;
layers = (
{
anchors = (
{
name = bottom;
position = "{279, 0}";
},
{
name = top;
position = "{279, 611}";
}
);
background = {
paths = (
{
closed = 1;
nodes = (
"436 339 OFFCURVE",
"482 387 OFFCURVE",
"482 466 CURVE SMOOTH",
"482 547 OFFCURVE",
"426 611 OFFCURVE",
"277 611 CURVE SMOOTH",
"38 611 LINE",
"38 578 LINE",
"128 558 LINE",
"128 53 LINE",
"38 33 LINE",
"38 0 LINE",
"283 0 LINE SMOOTH",
"421 0 OFFCURVE",
"503 69 OFFCURVE",
"503 169 CURVE SMOOTH",
"503 247 OFFCURVE",
"457 301 OFFCURVE",
"350 323 CURVE"
);
},
{
closed = 1;
nodes = (
"211 340 LINE",
"211 559 LINE",
"232 564 OFFCURVE",
"253 568 OFFCURVE",
"273 568 CURVE SMOOTH",
"340 568 OFFCURVE",
"396 534 OFFCURVE",
"396 457 CURVE SMOOTH",
"396 376 OFFCURVE",
"342 340 OFFCURVE",
"258 340 CURVE SMOOTH"
);
},
{
closed = 1;
nodes = (
"211 299 LINE",
"252 299 LINE SMOOTH",
"357 299 OFFCURVE",
"414 258 OFFCURVE",
"414 174 CURVE SMOOTH",
"414 76 OFFCURVE",
"347 41 OFFCURVE",
"271 41 CURVE SMOOTH",
"252 41 OFFCURVE",
"231 43 OFFCURVE",
"211 49 CURVE"
);
}
);
};
layerId = "C2E97133-8774-4C1F-A96F-338CBADF7D3D";
paths = (
{
closed = 1;
nodes = (
"283 0 LINE SMOOTH",
"425 0 OFFCURVE",
"509 69 OFFCURVE",
"509 169 CURVE SMOOTH",
"509 247 OFFCURVE",
"461 301 OFFCURVE",
"350 323 CURVE",
"435 339 OFFCURVE",
"480 387 OFFCURVE",
"480 466 CURVE SMOOTH",
"480 547 OFFCURVE",
"425 611 OFFCURVE",
"277 611 CURVE SMOOTH",
"38 611 LINE",
"38 578 LINE",
"128 558 LINE",
"128 53 LINE",
"38 33 LINE",
"38 0 LINE"
);
},
{
closed = 1;
nodes = (
"252 41 OFFCURVE",
"231 43 OFFCURVE",
"211 49 CURVE",
"211 299 LINE",
"252 299 LINE SMOOTH",
"361 299 OFFCURVE",
"420 258 OFFCURVE",
"420 174 CURVE SMOOTH",
"420 76 OFFCURVE",
"350 41 OFFCURVE",
"271 41 CURVE SMOOTH"
);
},
{
closed = 1;
nodes = (
"211 559 LINE",
"232 564 OFFCURVE",
"253 568 OFFCURVE",
"273 568 CURVE SMOOTH",
"339 568 OFFCURVE",
"394 534 OFFCURVE",
"394 457 CURVE SMOOTH",
"394 376 OFFCURVE",
"341 340 OFFCURVE",
"258 340 CURVE SMOOTH",
"211 340 LINE"
);
}
);
width = 538;
},
{
anchors = (
{
name = bottom;
position = "{297, 0}";
},
{
name = top;
position = "{297, 614}";
}
);
background = {
paths = (
{
closed = 1;
nodes = (
"466 338 OFFCURVE",
"527 387 OFFCURVE",
"527 464 CURVE SMOOTH",
"527 553 OFFCURVE",
"468 614 OFFCURVE",
"309 614 CURVE SMOOTH",
"35 614 LINE",
"35 569 LINE",
"120 546 LINE",
"120 69 LINE",
"36 45 LINE",
"36 0 LINE",
"300 0 LINE SMOOTH",
"464 0 OFFCURVE",
"543 68 OFFCURVE",
"543 169 CURVE SMOOTH",
"543 248 OFFCURVE",
"494 309 OFFCURVE",
"384 324 CURVE"
);
},
{
closed = 1;
nodes = (
"255 343 LINE",
"255 546 LINE",
"255 546 OFFCURVE",
"276 553 OFFCURVE",
"304 553 CURVE SMOOTH",
"357 553 OFFCURVE",
"392 525 OFFCURVE",
"392 460 CURVE SMOOTH",
"392 365 OFFCURVE",
"335 343 OFFCURVE",
"284 343 CURVE SMOOTH"
);
},
{
closed = 1;
nodes = (
"255 289 LINE",
"282 289 LINE SMOOTH",
"348 289 OFFCURVE",
"404 254 OFFCURVE",
"404 175 CURVE SMOOTH",
"404 97 OFFCURVE",
"362 63 OFFCURVE",
"304 63 CURVE SMOOTH",
"287 63 OFFCURVE",
"268 65 OFFCURVE",
"255 69 CURVE"
);
}
);
};
layerId = "320D1F10-23EA-4160-876F-9C954522C215";
paths = (
{
closed = 1;
nodes = (
"300 0 LINE SMOOTH",
"471 0 OFFCURVE",
"553 68 OFFCURVE",
"553 169 CURVE SMOOTH",
"553 248 OFFCURVE",
"501 309 OFFCURVE",
"384 324 CURVE",
"465 338 OFFCURVE",
"525 387 OFFCURVE",
"525 464 CURVE SMOOTH",
"525 553 OFFCURVE",
"467 614 OFFCURVE",
"309 614 CURVE SMOOTH",
"35 614 LINE",
"35 569 LINE",
"120 546 LINE",
"120 69 LINE",
"36 45 LINE",
"36 0 LINE"
);
},
{
closed = 1;
nodes = (
"287 63 OFFCURVE",
"268 65 OFFCURVE",
"255 69 CURVE",
"255 289 LINE",
"282 289 LINE SMOOTH",
"353 289 OFFCURVE",
"414 254 OFFCURVE",
"414 175 CURVE SMOOTH",
"414 97 OFFCURVE",
"368 63 OFFCURVE",
"304 63 CURVE SMOOTH"
);
},
{
closed = 1;
nodes = (
"255 546 LINE",
"264 549 OFFCURVE",
"284 553 OFFCURVE",
"304 553 CURVE SMOOTH",
"356 553 OFFCURVE",
"390 525 OFFCURVE",
"390 460 CURVE SMOOTH",
"390 365 OFFCURVE",
"334 343 OFFCURVE",
"284 343 CURVE SMOOTH",
"255 343 LINE"
);
}
);
width = 573;
},
{
anchors = (
{
name = bottom;
position = "{275, 0}";
},
{
name = top;
position = "{275, 610}";
}
);
layerId = "5f75e36f-2d9b-434e-b133-1931d65175c8";
paths = (
{
closed = 1;
nodes = (
"279 0 LINE SMOOTH",
"413 0 OFFCURVE",
"498 69 OFFCURVE",
"498 169 CURVE SMOOTH",
"498 247 OFFCURVE",
"452 299 OFFCURVE",
"342 323 CURVE",
"428 339 OFFCURVE",
"469 387 OFFCURVE",
"469 467 CURVE SMOOTH",
"469 546 OFFCURVE",
"415 610 OFFCURVE",
"269 610 CURVE SMOOTH",
"39 610 LINE",
"39 580 LINE",
"130 561 LINE",
"130 49 LINE",
"39 30 LINE",
"39 0 LINE"
);
},
{
closed = 1;
nodes = (
"243 36 OFFCURVE",
"222 38 OFFCURVE",
"200 44 CURVE",
"200 302 LINE",
"245 302 LINE SMOOTH",
"360 302 OFFCURVE",
"422 258 OFFCURVE",
"422 174 CURVE SMOOTH",
"422 71 OFFCURVE",
"346 36 OFFCURVE",
"263 36 CURVE SMOOTH"
);
},
{
closed = 1;
nodes = (
"200 562 LINE",
"226 569 OFFCURVE",
"247 572 OFFCURVE",
"265 572 CURVE SMOOTH",
"341 572 OFFCURVE",
"395 536 OFFCURVE",
"395 456 CURVE SMOOTH",
"395 379 OFFCURVE",
"343 339 OFFCURVE",
"252 339 CURVE SMOOTH",
"200 339 LINE"
);
}
);
width = 523;
},
{
anchors = (
{
name = bottom;
position = "{303, 0}";
},
{
name = top;
position = "{303, 615}";
}
);
background = {
paths = (
{
closed = 1;
nodes = (
"306 0 LINE SMOOTH",
"479 0 OFFCURVE",
"557 68 OFFCURVE",
"557 169 CURVE SMOOTH",
"557 248 OFFCURVE",
"507 312 OFFCURVE",
"396 324 CURVE",
"482 338 OFFCURVE",
"543 387 OFFCURVE",
"543 463 CURVE SMOOTH",
"543 555 OFFCURVE",
"483 615 OFFCURVE",
"320 615 CURVE SMOOTH",
"34 615 LINE",
"34 566 LINE",
"117 542 LINE",
"117 75 LINE",
"35 49 LINE",
"35 0 LINE"
);
},
{
closed = 1;
nodes = (
"299 69 OFFCURVE",
"281 71 OFFCURVE",
"270 74 CURVE",
"270 286 LINE",
"292 286 LINE SMOOTH",
"345 286 OFFCURVE",
"401 259 OFFCURVE",
"401 174 CURVE SMOOTH",
"401 102 OFFCURVE",
"367 69 OFFCURVE",
"315 69 CURVE SMOOTH"
);
},
{
closed = 1;
nodes = (
"270 542 LINE",
"263 540 OFFCURVE",
"284 548 OFFCURVE",
"315 548 CURVE SMOOTH",
"359 548 OFFCURVE",
"391 516 OFFCURVE",
"391 461 CURVE SMOOTH",
"391 361 OFFCURVE",
"333 344 OFFCURVE",
"293 344 CURVE SMOOTH",
"270 344 LINE"
);
}
);
};
layerId = "13e4c948-4684-4dcc-833a-03da9e1ebe8a";
paths = (
{
closed = 1;
nodes = (
"306 0 LINE SMOOTH",
"486 0 OFFCURVE",
"567 68 OFFCURVE",
"567 169 CURVE SMOOTH",
"567 248 OFFCURVE",
"514 312 OFFCURVE",
"396 324 CURVE",
"480 338 OFFCURVE",
"540 387 OFFCURVE",
"540 463 CURVE SMOOTH",
"540 555 OFFCURVE",
"481 615 OFFCURVE",
"320 615 CURVE SMOOTH",
"34 615 LINE",
"34 566 LINE",
"117 542 LINE",
"117 75 LINE",
"35 49 LINE",
"35 0 LINE"
);
},
{
closed = 1;
nodes = (
"299 69 OFFCURVE",
"281 71 OFFCURVE",
"270 74 CURVE",
"270 281 LINE",
"292 281 LINE SMOOTH",
"350 281 OFFCURVE",
"411 255 OFFCURVE",
"411 174 CURVE SMOOTH",
"411 102 OFFCURVE",
"373 69 OFFCURVE",
"315 69 CURVE SMOOTH"
);
},
{
closed = 1;
nodes = (
"270 542 LINE",
"276 544 OFFCURVE",
"294 548 OFFCURVE",
"315 548 CURVE SMOOTH",
"357 548 OFFCURVE",
"388 516 OFFCURVE",
"388 461 CURVE SMOOTH",
"388 361 OFFCURVE",
"332 344 OFFCURVE",
"293 344 CURVE SMOOTH",
"270 344 LINE"
);
}
);
width = 582;
}
);
leftKerningGroup = H;
leftMetricsKey = H;
rightKerningGroup = B;
unicode = 0042;
},
{
glyphname = C;
layers = (
{
anchors = (
{
name = bottom;
position = "{319, 0}";
},
{
name = top;
position = "{326, 611}";
}
);
background = {
paths = (
{
closed = 1;
nodes = (
"494 138 LINE",
"457 138 LINE",
"432 54 LINE",
"397 43 OFFCURVE",
"364 39 OFFCURVE",
"337 39 CURVE SMOOTH",
"179 39 OFFCURVE",
"131 179 OFFCURVE",
"131 309 CURVE SMOOTH",
"131 447 OFFCURVE",
"171 578 OFFCURVE",
"340 578 CURVE SMOOTH",
"368 578 OFFCURVE",
"398 574 OFFCURVE",
"432 567 CURVE",
"457 470 LINE",
"493 470 LINE",
"502 597 LINE",
"458 611 OFFCURVE",
"408 627 OFFCURVE",
"324 627 CURVE SMOOTH",
"119 627 OFFCURVE",
"41 483 OFFCURVE",
"41 309 CURVE SMOOTH",
"41 134 OFFCURVE",
"122 -9 OFFCURVE",
"324 -9 CURVE SMOOTH",
"400 -9 OFFCURVE",
"449 3 OFFCURVE",
"502 23 CURVE"
);
}
);
};
layerId = "C2E97133-8774-4C1F-A96F-338CBADF7D3D";
paths = (
{
closed = 1;
nodes = (
"400 -9 OFFCURVE",
"449 3 OFFCURVE",
"502 23 CURVE",
"494 138 LINE",
"457 138 LINE",
"432 54 LINE",
"397 43 OFFCURVE",
"364 39 OFFCURVE",
"337 39 CURVE SMOOTH",
"179 39 OFFCURVE",
"131 179 OFFCURVE",
"131 309 CURVE SMOOTH",
"131 447 OFFCURVE",
"171 578 OFFCURVE",
"340 578 CURVE SMOOTH",
"368 578 OFFCURVE",
"398 574 OFFCURVE",
"432 567 CURVE",
"457 470 LINE",
"493 470 LINE",
"502 597 LINE",
"458 611 OFFCURVE",
"408 627 OFFCURVE",
"324 627 CURVE SMOOTH",
"119 627 OFFCURVE",
"41 483 OFFCURVE",
"41 309 CURVE SMOOTH",
"41 134 OFFCURVE",
"122 -9 OFFCURVE",
"324 -9 CURVE SMOOTH"
);
}
);
width = 552;
},
{
anchors = (
{
name = bottom;
position = "{332, 0}";
},
{
name = top;
position = "{314, 614}";
}
);
background = {
paths = (
{
closed = 1;
nodes = (
"510 162 LINE",
"457 162 LINE",
"432 76 LINE",
"401 67 OFFCURVE",
"372 63 OFFCURVE",
"345 63 CURVE SMOOTH",
"208 63 OFFCURVE",
"172 192 OFFCURVE",
"172 312 CURVE SMOOTH",
"172 437 OFFCURVE",
"202 558 OFFCURVE",
"349 558 CURVE SMOOTH",
"374 558 OFFCURVE",
"409 554 OFFCURVE",
"432 545 CURVE",
"457 447 LINE",
"507 447 LINE",
"518 600 LINE",
"469 614 OFFCURVE",
"416 629 OFFCURVE",
"330 629 CURVE SMOOTH",
"113 629 OFFCURVE",
"30 485 OFFCURVE",
"30 312 CURVE SMOOTH",
"30 136 OFFCURVE",
"116 -11 OFFCURVE",
"330 -11 CURVE SMOOTH",
"408 -11 OFFCURVE",
"461 1 OFFCURVE",
"518 21 CURVE"
);
}
);
};
layerId = "320D1F10-23EA-4160-876F-9C954522C215";
paths = (
{
closed = 1;
nodes = (
"408 -11 OFFCURVE",
"461 1 OFFCURVE",
"518 21 CURVE",
"510 162 LINE",
"457 162 LINE",
"432 76 LINE",
"401 67 OFFCURVE",
"372 63 OFFCURVE",
"345 63 CURVE SMOOTH",
"208 63 OFFCURVE",
"172 192 OFFCURVE",
"172 312 CURVE SMOOTH",
"172 437 OFFCURVE",
"202 558 OFFCURVE",
"349 558 CURVE SMOOTH",
"374 558 OFFCURVE",
"409 554 OFFCURVE",
"432 545 CURVE",
"457 447 LINE",
"507 447 LINE",
"518 600 LINE",
"469 614 OFFCURVE",
"416 629 OFFCURVE",
"330 629 CURVE SMOOTH",
"113 629 OFFCURVE",
"30 485 OFFCURVE",
"30 312 CURVE SMOOTH",
"30 136 OFFCURVE",
"116 -11 OFFCURVE",
"330 -11 CURVE SMOOTH"
);
}
);
width = 548;
},
{
anchors = (
{
name = bottom;
position = "{315, 0}";
},
{
name = top;
position = "{329, 610}";
}
);
layerId = "5f75e36f-2d9b-434e-b133-1931d65175c8";
paths = (
{
closed = 1;
nodes = (
"398 -9 OFFCURVE",
"446 4 OFFCURVE",
"498 24 CURVE",
"490 132 LINE",
"457 132 LINE",
"432 49 LINE",
"396 37 OFFCURVE",
"362 33 OFFCURVE",
"335 33 CURVE SMOOTH",
"172 33 OFFCURVE",
"121 176 OFFCURVE",
"121 308 CURVE SMOOTH",
"121 450 OFFCURVE",
"163 583 OFFCURVE",
"338 583 CURVE SMOOTH",
"367 583 OFFCURVE",
"395 579 OFFCURVE",
"432 573 CURVE",
"457 476 LINE",
"490 476 LINE",
"498 596 LINE",
"455 612 OFFCURVE",
"406 627 OFFCURVE",
"323 627 CURVE SMOOTH",
"121 627 OFFCURVE",
"44 483 OFFCURVE",
"44 308 CURVE SMOOTH",
"44 134 OFFCURVE",
"124 -9 OFFCURVE",
"323 -9 CURVE SMOOTH"
);
}
);
width = 553;
},
{
anchors = (
{
name = bottom;
position = "{337, 0}";
},
{
name = top;
position = "{330, 615}";
}
);
layerId = "13e4c948-4684-4dcc-833a-03da9e1ebe8a";
paths = (
{
closed = 1;
nodes = (
"411 -12 OFFCURVE",
"465 0 OFFCURVE",
"524 20 CURVE",
"516 170 LINE",
"457 170 LINE",
"432 84 LINE",
"402 75 OFFCURVE",
"375 71 OFFCURVE",
"348 71 CURVE SMOOTH",
"218 71 OFFCURVE",
"186 196 OFFCURVE",
"186 313 CURVE SMOOTH",
"186 434 OFFCURVE",
"213 551 OFFCURVE",
"352 551 CURVE SMOOTH",
"376 551 OFFCURVE",
"413 547 OFFCURVE",
"432 537 CURVE",
"457 439 LINE",
"512 439 LINE",
"524 601 LINE",
"473 615 OFFCURVE",
"419 630 OFFCURVE",
"332 630 CURVE SMOOTH",
"111 630 OFFCURVE",
"26 486 OFFCURVE",
"26 313 CURVE SMOOTH",
"26 137 OFFCURVE",
"114 -12 OFFCURVE",
"332 -12 CURVE SMOOTH"
);
}
);
width = 547;
}
);
leftKerningGroup = O;
rightKerningGroup = C;
unicode = 0043;
},
{
glyphname = D;
layers = (
{
anchors = (
{
name = bottom;
position = "{320, 0}";
},
{
name = center;
position = "{320, 306}";
},
{
name = top;
position = "{320, 611}";
}
);
background = {
paths = (
{
closed = 1;
nodes = (
"38 611 LINE",
"38 578 LINE",
"128 558 LINE",
"128 53 LINE",
"38 33 LINE",
"38 0 LINE",
"317 0 LINE SMOOTH",
"520 0 OFFCURVE",
"598 143 OFFCURVE",
"598 318 CURVE SMOOTH",
"598 492 OFFCURVE",
"516 611 OFFCURVE",
"300 611 CURVE SMOOTH"
);
},
{
closed = 1;
nodes = (
"431 564 OFFCURVE",
"508 466 OFFCURVE",
"508 318 CURVE SMOOTH",
"508 206 OFFCURVE",
"480 41 OFFCURVE",
"328 41 CURVE SMOOTH",
"289 41 OFFCURVE",
"236 49 OFFCURVE",
"211 58 CURVE",
"211 558 LINE",
"228 561 OFFCURVE",
"257 564 OFFCURVE",
"290 564 CURVE SMOOTH"
);
}
);
};
layerId = "C2E97133-8774-4C1F-A96F-338CBADF7D3D";
paths = (
{
closed = 1;
nodes = (
"317 0 LINE SMOOTH",
"520 0 OFFCURVE",
"598 143 OFFCURVE",
"598 318 CURVE SMOOTH",
"598 492 OFFCURVE",
"516 611 OFFCURVE",
"300 611 CURVE SMOOTH",
"38 611 LINE",
"38 578 LINE",
"128 558 LINE",
"128 53 LINE",
"38 33 LINE",
"38 0 LINE"
);
},
{
closed = 1;
nodes = (
"289 41 OFFCURVE",
"236 49 OFFCURVE",
"211 58 CURVE",
"211 558 LINE",
"228 561 OFFCURVE",
"257 564 OFFCURVE",
"290 564 CURVE SMOOTH",
"431 564 OFFCURVE",
"508 466 OFFCURVE",
"508 318 CURVE SMOOTH",
"508 206 OFFCURVE",
"480 41 OFFCURVE",
"328 41 CURVE SMOOTH"
);
}
);
width = 639;
},
{
anchors = (
{
name = bottom;
position = "{328, 0}";
},
{
name = center;
position = "{328, 307}";
},
{
name = top;
position = "{328, 614}";
}
);
background = {
paths = (
{
closed = 1;
nodes = (
"35 614 LINE",
"35 569 LINE",
"120 546 LINE",
"120 69 LINE",
"36 45 LINE",
"36 0 LINE",
"328 0 LINE SMOOTH",
"540 0 OFFCURVE",
"625 145 OFFCURVE",
"625 320 CURVE SMOOTH",
"625 494 OFFCURVE",
"534 614 OFFCURVE",
"309 614 CURVE SMOOTH"
);
},
{
closed = 1;
nodes = (
"416 552 OFFCURVE",
"483 456 OFFCURVE",
"483 320 CURVE SMOOTH",
"483 184 OFFCURVE",
"459 57 OFFCURVE",
"333 57 CURVE SMOOTH",
"306 57 OFFCURVE",
"277 62 OFFCURVE",
"255 69 CURVE",
"255 546 LINE",
"267 549 OFFCURVE",
"282 552 OFFCURVE",
"308 552 CURVE SMOOTH"
);
}
);
};
layerId = "320D1F10-23EA-4160-876F-9C954522C215";
paths = (
{
closed = 1;
nodes = (
"328 0 LINE SMOOTH",
"540 0 OFFCURVE",
"625 145 OFFCURVE",
"625 320 CURVE SMOOTH",
"625 494 OFFCURVE",
"534 614 OFFCURVE",
"309 614 CURVE SMOOTH",
"35 614 LINE",
"35 569 LINE",
"120 546 LINE",
"120 69 LINE",
"36 45 LINE",
"36 0 LINE"
);
},
{
closed = 1;
nodes = (
"306 57 OFFCURVE",
"277 62 OFFCURVE",
"255 69 CURVE",
"255 546 LINE",
"267 549 OFFCURVE",
"282 552 OFFCURVE",
"308 552 CURVE SMOOTH",
"416 552 OFFCURVE",
"483 456 OFFCURVE",
"483 320 CURVE SMOOTH",
"483 184 OFFCURVE",
"459 57 OFFCURVE",
"333 57 CURVE SMOOTH"
);
}
);
width = 655;
},
{
anchors = (
{
name = bottom;
position = "{318, 0}";
},
{
name = center;
position = "{318, 306}";
},
{
name = top;
position = "{318, 610}";
}
);
layerId = "5f75e36f-2d9b-434e-b133-1931d65175c8";
paths = (
{
closed = 1;
nodes = (
"314 0 LINE SMOOTH",
"515 0 OFFCURVE",
"591 143 OFFCURVE",
"591 318 CURVE SMOOTH",
"591 492 OFFCURVE",
"512 610 OFFCURVE",
"298 610 CURVE SMOOTH",
"39 610 LINE",
"39 580 LINE",
"130 561 LINE",
"130 49 LINE",
"39 30 LINE",
"39 0 LINE"
);
},
{
closed = 1;
nodes = (
"285 37 OFFCURVE",
"226 46 OFFCURVE",
"200 55 CURVE",
"200 561 LINE",
"218 564 OFFCURVE",
"251 567 OFFCURVE",
"286 567 CURVE SMOOTH",
"435 567 OFFCURVE",
"514 469 OFFCURVE",
"514 318 CURVE SMOOTH",
"514 212 OFFCURVE",
"485 37 OFFCURVE",
"327 37 CURVE SMOOTH"
);
}
);
width = 635;
},
{
anchors = (
{
name = bottom;
position = "{331, 0}";
},
{
name = center;
position = "{331, 307}";
},
{
name = top;
position = "{331, 615}";
}
);
layerId = "13e4c948-4684-4dcc-833a-03da9e1ebe8a";
paths = (
{
closed = 1;
nodes = (
"332 0 LINE SMOOTH",
"547 0 OFFCURVE",
"634 137 OFFCURVE",
"634 321 CURVE SMOOTH",
"634 495 OFFCURVE",
"540 615 OFFCURVE",
"312 615 CURVE SMOOTH",
"34 615 LINE",
"34 566 LINE",
"117 542 LINE",
"117 75 LINE",
"35 49 LINE",
"35 0 LINE"
);
},
{
closed = 1;
nodes = (
"312 63 OFFCURVE",
"291 67 OFFCURVE",
"270 73 CURVE",
"270 542 LINE",
"281 546 OFFCURVE",
"291 548 OFFCURVE",
"314 548 CURVE SMOOTH",
"411 548 OFFCURVE",
"474 458 OFFCURVE",
"474 321 CURVE SMOOTH",
"474 176 OFFCURVE",
"452 63 OFFCURVE",
"335 63 CURVE SMOOTH"
);
}
);
width = 660;
}
);
leftKerningGroup = H;
leftMetricsKey = H;
rightKerningGroup = O;
rightMetricsKey = O;
unicode = 0044;
},
{
glyphname = Eth;
layers = (
{
background = {
paths = (
{
closed = 1;
nodes = (
"323 323 LINE",
"41 323 LINE",
"41 277 LINE",
"323 277 LINE"
);
},
{
closed = 1;
nodes = (
"38 611 LINE",
"38 578 LINE",
"128 558 LINE",
"128 53 LINE",
"38 33 LINE",
"38 0 LINE",
"317 0 LINE SMOOTH",
"520 0 OFFCURVE",
"598 143 OFFCURVE",
"598 318 CURVE SMOOTH",
"598 492 OFFCURVE",
"516 611 OFFCURVE",
"300 611 CURVE SMOOTH"
);
},
{
closed = 1;
nodes = (
"431 564 OFFCURVE",
"508 466 OFFCURVE",
"508 318 CURVE SMOOTH",
"508 206 OFFCURVE",
"480 41 OFFCURVE",
"328 41 CURVE SMOOTH",
"289 41 OFFCURVE",
"236 49 OFFCURVE",
"211 58 CURVE",
"211 558 LINE",
"228 561 OFFCURVE",
"257 564 OFFCURVE",
"290 564 CURVE SMOOTH"
);
}
);
};
layerId = "C2E97133-8774-4C1F-A96F-338CBADF7D3D";
paths = (
{
closed = 1;
nodes = (
"317 0 LINE SMOOTH",
"520 0 OFFCURVE",
"598 143 OFFCURVE",
"598 318 CURVE SMOOTH",
"598 492 OFFCURVE",
"516 611 OFFCURVE",
"300 611 CURVE SMOOTH",
"38 611 LINE",
"38 578 LINE",
"128 558 LINE",
"128 323 LINE",
"41 323 LINE",
"41 277 LINE",
"128 277 LINE",
"128 53 LINE",
"38 33 LINE",
"38 0 LINE"
);
},
{
closed = 1;
nodes = (
"289 41 OFFCURVE",
"236 49 OFFCURVE",
"211 58 CURVE",
"211 277 LINE",
"323 277 LINE",
"323 323 LINE",
"211 323 LINE",
"211 558 LINE",
"228 561 OFFCURVE",
"257 564 OFFCURVE",
"290 564 CURVE SMOOTH",
"431 564 OFFCURVE",
"508 466 OFFCURVE",
"508 318 CURVE SMOOTH",
"508 206 OFFCURVE",
"480 41 OFFCURVE",
"328 41 CURVE SMOOTH"
);
}
);
width = 639;
},
{
background = {
paths = (
{
closed = 1;
nodes = (
"38 614 LINE",
"38 569 LINE",
"123 546 LINE",
"123 330 LINE",
"40 330 LINE",
"40 274 LINE",
"123 274 LINE",
"123 69 LINE",
"39 45 LINE",
"39 0 LINE",
"331 0 LINE SMOOTH",
"543 0 OFFCURVE",
"628 145 OFFCURVE",
"628 320 CURVE SMOOTH",
"628 494 OFFCURVE",
"537 614 OFFCURVE",
"312 614 CURVE SMOOTH"
);
},
{
closed = 1;
nodes = (
"371 330 LINE",
"258 330 LINE",
"258 546 LINE",
"270 549 OFFCURVE",
"285 552 OFFCURVE",
"311 552 CURVE SMOOTH",
"419 552 OFFCURVE",
"486 456 OFFCURVE",
"486 320 CURVE SMOOTH",
"486 184 OFFCURVE",
"462 57 OFFCURVE",
"336 57 CURVE SMOOTH",
"309 57 OFFCURVE",
"280 62 OFFCURVE",
"258 69 CURVE",
"258 274 LINE",
"371 274 LINE"
);
}
);
};
layerId = "320D1F10-23EA-4160-876F-9C954522C215";
paths = (
{
closed = 1;
nodes = (
"331 0 LINE SMOOTH",
"543 0 OFFCURVE",
"628 145 OFFCURVE",
"628 320 CURVE SMOOTH",
"628 494 OFFCURVE",
"537 614 OFFCURVE",
"312 614 CURVE SMOOTH",
"38 614 LINE",
"38 569 LINE",
"123 546 LINE",
"123 330 LINE",
"40 330 LINE",
"40 274 LINE",
"123 274 LINE",
"123 69 LINE",
"39 45 LINE",
"39 0 LINE"
);
},
{
closed = 1;
nodes = (
"309 57 OFFCURVE",
"280 62 OFFCURVE",
"258 69 CURVE",
"258 274 LINE",
"371 274 LINE",
"371 330 LINE",
"258 330 LINE",
"258 546 LINE",
"270 549 OFFCURVE",
"285 552 OFFCURVE",
"311 552 CURVE SMOOTH",
"419 552 OFFCURVE",
"486 456 OFFCURVE",
"486 320 CURVE SMOOTH",
"486 184 OFFCURVE",
"462 57 OFFCURVE",
"336 57 CURVE SMOOTH"
);
}
);
width = 658;
},
{
layerId = "5f75e36f-2d9b-434e-b133-1931d65175c8";
paths = (
{
closed = 1;
nodes = (
"314 0 LINE SMOOTH",
"514 0 OFFCURVE",
"591 143 OFFCURVE",
"591 318 CURVE SMOOTH",
"591 492 OFFCURVE",
"511 610 OFFCURVE",
"297 610 CURVE SMOOTH",
"38 610 LINE",
"38 580 LINE",
"129 561 LINE",
"129 321 LINE",
"41 321 LINE",
"41 278 LINE",
"129 278 LINE",
"129 49 LINE",
"38 30 LINE",
"38 0 LINE"
);
},
{
closed = 1;
nodes = (
"284 37 OFFCURVE",
"225 46 OFFCURVE",
"199 55 CURVE",
"199 278 LINE",
"311 278 LINE",
"311 321 LINE",
"199 321 LINE",
"199 561 LINE",
"218 564 OFFCURVE",
"250 567 OFFCURVE",
"285 567 CURVE SMOOTH",
"434 567 OFFCURVE",
"514 469 OFFCURVE",
"514 318 CURVE SMOOTH",
"514 212 OFFCURVE",
"485 37 OFFCURVE",
"326 37 CURVE SMOOTH"
);
}
);
width = 635;
},
{
layerId = "13e4c948-4684-4dcc-833a-03da9e1ebe8a";
paths = (
{
closed = 1;
nodes = (
"336 0 LINE SMOOTH",
"551 0 OFFCURVE",
"638 146 OFFCURVE",
"638 321 CURVE SMOOTH",
"638 495 OFFCURVE",
"544 615 OFFCURVE",
"316 615 CURVE SMOOTH",
"38 615 LINE",
"38 566 LINE",
"121 542 LINE",
"121 332 LINE",
"40 332 LINE",
"40 273 LINE",
"121 273 LINE",
"121 75 LINE",
"39 49 LINE",
"39 0 LINE"
);
},
{
closed = 1;
nodes = (
"316 63 OFFCURVE",
"295 67 OFFCURVE",
"274 73 CURVE",
"274 273 LINE",
"388 273 LINE",
"388 332 LINE",
"274 332 LINE",
"274 542 LINE",
"285 545 OFFCURVE",
"299 548 OFFCURVE",
"318 548 CURVE SMOOTH",
"415 548 OFFCURVE",
"478 453 OFFCURVE",
"478 321 CURVE SMOOTH",
"478 176 OFFCURVE",
"456 63 OFFCURVE",
"339 63 CURVE SMOOTH"
);
}
);
width = 664;
}
);
leftKerningGroup = H;
rightKerningGroup = O;
rightMetricsKey = O;
unicode = 00D0;
},
{
glyphname = Dcaron;
layers = (
{
background = {
paths = (
{
closed = 1;
nodes = (
"317 0 LINE SMOOTH",
"520 0 OFFCURVE",
"598 143 OFFCURVE",
"598 318 CURVE SMOOTH",
"598 492 OFFCURVE",
"516 611 OFFCURVE",
"300 611 CURVE SMOOTH",
"38 611 LINE",
"38 578 LINE",
"128 558 LINE",
"128 53 LINE",
"38 33 LINE",
"38 0 LINE"
);
},
{
closed = 1;
nodes = (
"289 41 OFFCURVE",
"236 49 OFFCURVE",
"211 58 CURVE",
"211 558 LINE",
"228 561 OFFCURVE",
"257 564 OFFCURVE",
"290 564 CURVE SMOOTH",
"431 564 OFFCURVE",
"508 466 OFFCURVE",
"508 318 CURVE SMOOTH",
"508 206 OFFCURVE",
"480 41 OFFCURVE",
"328 41 CURVE SMOOTH"
);
},
{
closed = 1;
nodes = (
"344 651 LINE",
"444 782 LINE",
"426 800 LINE",
"315 718 LINE",
"199 800 LINE",
"182 782 LINE",
"284 651 LINE"
);
}
);
};
components = (
{
name = D;
},
{
name = caroncomb.case;
transform = "{1, 0, 0, 1, 189, 0}";
}
);
layerId = "C2E97133-8774-4C1F-A96F-338CBADF7D3D";
width = 639;
},
{
background = {
paths = (
{
closed = 1;
nodes = (
"328 0 LINE SMOOTH",
"540 0 OFFCURVE",
"625 145 OFFCURVE",
"625 320 CURVE SMOOTH",
"625 494 OFFCURVE",
"534 614 OFFCURVE",
"309 614 CURVE SMOOTH",
"35 614 LINE",
"35 569 LINE",
"120 546 LINE",
"120 69 LINE",
"36 45 LINE",
"36 0 LINE"
);
},
{
closed = 1;
nodes = (
"306 57 OFFCURVE",
"277 62 OFFCURVE",
"255 69 CURVE",
"255 546 LINE",
"267 549 OFFCURVE",
"282 552 OFFCURVE",
"308 552 CURVE SMOOTH",
"416 552 OFFCURVE",
"483 456 OFFCURVE",
"483 320 CURVE SMOOTH",
"483 184 OFFCURVE",
"459 57 OFFCURVE",
"333 57 CURVE SMOOTH"
);
},
{
closed = 1;
nodes = (
"351 641 LINE",
"460 775 LINE",
"437 800 LINE",
"308 723 LINE",
"182 800 LINE",
"156 775 LINE",
"266 641 LINE"
);
}
);
};
components = (
{
name = D;
},
{
name = caroncomb.case;
transform = "{1, 0, 0, 1, 176, 0}";
}
);
layerId = "320D1F10-23EA-4160-876F-9C954522C215";
width = 655;
},
{
background = {
paths = (
{
closed = 1;
nodes = (
"314 0 LINE SMOOTH",
"515 0 OFFCURVE",
"591 143 OFFCURVE",
"591 318 CURVE SMOOTH",
"591 492 OFFCURVE",
"512 610 OFFCURVE",
"298 610 CURVE SMOOTH",
"39 610 LINE",
"39 580 LINE",
"130 561 LINE",
"130 49 LINE",
"39 30 LINE",
"39 0 LINE"
);
},
{
closed = 1;
nodes = (
"285 37 OFFCURVE",
"226 46 OFFCURVE",
"200 55 CURVE",
"200 561 LINE",
"218 564 OFFCURVE",
"251 567 OFFCURVE",
"286 567 CURVE SMOOTH",
"435 567 OFFCURVE",
"514 469 OFFCURVE",
"514 318 CURVE SMOOTH",
"514 212 OFFCURVE",
"485 37 OFFCURVE",
"327 37 CURVE SMOOTH"
);
},
{
closed = 1;
nodes = (
"342 654 LINE",
"440 784 LINE",
"423 800 LINE",
"317 717 LINE",
"203 800 LINE",
"189 784 LINE",
"289 654 LINE"
);
}
);
};
components = (
{
name = D;
},
{
name = caroncomb.case;
transform = "{1, 0, 0, 1, 192, 0}";
}
);
layerId = "5f75e36f-2d9b-434e-b133-1931d65175c8";
width = 635;
},
{
components = (
{
name = D;
},
{
name = caroncomb.case;
transform = "{1, 0, 0, 1, 172, 0}";
}
);
layerId = "13e4c948-4684-4dcc-833a-03da9e1ebe8a";
width = 660;
}
);
leftKerningGroup = H;
rightKerningGroup = O;
unicode = 010E;
},
{
glyphname = Dcroat;
layers = (
{
background = {
paths = (
{
closed = 1;
nodes = (
"323 323 LINE",
"41 323 LINE",
"41 277 LINE",
"323 277 LINE"
);
},
{
closed = 1;
nodes = (
"38 611 LINE",
"38 578 LINE",
"128 558 LINE",
"128 53 LINE",
"38 33 LINE",
"38 0 LINE",
"317 0 LINE SMOOTH",
"520 0 OFFCURVE",
"598 143 OFFCURVE",
"598 318 CURVE SMOOTH",
"598 492 OFFCURVE",
"516 611 OFFCURVE",
"300 611 CURVE SMOOTH"
);
},
{
closed = 1;
nodes = (
"431 564 OFFCURVE",
"508 466 OFFCURVE",
"508 318 CURVE SMOOTH",
"508 206 OFFCURVE",
"480 41 OFFCURVE",
"328 41 CURVE SMOOTH",
"289 41 OFFCURVE",
"236 49 OFFCURVE",
"211 58 CURVE",
"211 558 LINE",
"228 561 OFFCURVE",
"257 564 OFFCURVE",
"290 564 CURVE SMOOTH"
);
}
);
};
components = (
{
name = Eth;
}
);
layerId = "C2E97133-8774-4C1F-A96F-338CBADF7D3D";
width = 639;
},
{
background = {
paths = (
{
closed = 1;
nodes = (
"35 614 LINE",
"35 569 LINE",
"120 546 LINE",
"120 330 LINE",
"37 330 LINE",
"37 274 LINE",
"120 274 LINE",
"120 69 LINE",
"36 45 LINE",
"36 0 LINE",
"328 0 LINE SMOOTH",
"540 0 OFFCURVE",
"625 145 OFFCURVE",
"625 320 CURVE SMOOTH",
"625 494 OFFCURVE",
"534 614 OFFCURVE",
"309 614 CURVE SMOOTH"
);
},
{
closed = 1;
nodes = (
"416 552 OFFCURVE",
"483 456 OFFCURVE",
"483 320 CURVE SMOOTH",
"483 184 OFFCURVE",
"459 57 OFFCURVE",
"333 57 CURVE SMOOTH",
"306 57 OFFCURVE",
"277 62 OFFCURVE",
"255 69 CURVE",
"255 274 LINE",
"368 274 LINE",
"368 330 LINE",
"255 330 LINE",
"255 546 LINE",
"267 549 OFFCURVE",
"282 552 OFFCURVE",
"308 552 CURVE SMOOTH"
);
}
);
};
components = (
{
name = Eth;
}
);
layerId = "320D1F10-23EA-4160-876F-9C954522C215";
width = 658;
},
{
components = (
{
name = Eth;
}
);
layerId = "5f75e36f-2d9b-434e-b133-1931d65175c8";
width = 635;
},
{
components = (
{
name = Eth;
}
);
layerId = "13e4c948-4684-4dcc-833a-03da9e1ebe8a";
width = 664;
}
);
leftKerningGroup = H;
rightKerningGroup = O;
unicode = 0110;
},
{
glyphname = E;
layers = (
{
anchors = (
{
name = bottom;
position = "{289, 0}";
},
{
name = ogonek;
position = "{514, 10}";
},
{
name = top;
position = "{289, 611}";
}
);
background = {
paths = (
{
closed = 1;
nodes = (
"361 323 LINE",
"216 323 LINE",
"216 559 LINE",
"412 559 LINE",
"433 479 LINE",
"472 479 LINE",
"472 611 LINE",
"38 611 LINE",
"38 578 LINE",
"133 558 LINE",
"133 53 LINE",
"38 33 LINE",
"38 0 LINE",
"497 0 LINE",
"497 147 LINE",
"458 147 LINE",
"432 56 LINE",
"216 56 LINE",
"216 277 LINE",
"358 277 LINE",
"382 208 LINE",
"418 208 LINE",
"418 389 LINE",
"382 389 LINE"
);
}
);
};
layerId = "C2E97133-8774-4C1F-A96F-338CBADF7D3D";
paths = (
{
closed = 1;
nodes = (
"497 0 LINE",
"497 147 LINE",
"458 147 LINE",
"432 56 LINE",
"216 56 LINE",
"216 277 LINE",
"358 277 LINE",
"382 208 LINE",
"418 208 LINE",
"418 389 LINE",
"382 389 LINE",
"361 323 LINE",
"216 323 LINE",
"216 559 LINE",
"412 559 LINE",
"433 479 LINE",
"472 479 LINE",
"472 611 LINE",
"38 611 LINE",
"38 578 LINE",
"133 558 LINE",
"133 53 LINE",
"38 33 LINE",
"38 0 LINE"
);
}
);
width = 542;
},
{
anchors = (
{
name = bottom;
position = "{300, 0}";
},
{
name = ogonek;
position = "{544, 10}";
},
{
name = top;
position = "{300, 614}";
}
);
background = {
paths = (
{
closed = 1;
nodes = (
"361 330 LINE",
"255 330 LINE",
"255 546 LINE",
"420 546 LINE",
"442 468 LINE",
"498 468 LINE",
"498 614 LINE",
"35 614 LINE",
"35 569 LINE",
"120 546 LINE",
"120 69 LINE",
"36 45 LINE",
"36 0 LINE",
"518 0 LINE",
"518 162 LINE",
"462 162 LINE",
"436 69 LINE",
"255 69 LINE",
"255 274 LINE",
"359 274 LINE",
"378 205 LINE",
"431 205 LINE",
"431 396 LINE",
"378 396 LINE"
);
}
);
};
layerId = "320D1F10-23EA-4160-876F-9C954522C215";
paths = (
{
closed = 1;
nodes = (
"518 0 LINE",
"518 162 LINE",
"462 162 LINE",
"436 69 LINE",
"255 69 LINE",
"255 274 LINE",
"359 274 LINE",
"378 205 LINE",
"431 205 LINE",
"431 396 LINE",
"378 396 LINE",
"361 330 LINE",
"255 330 LINE",
"255 546 LINE",
"420 546 LINE",
"442 468 LINE",
"498 468 LINE",
"498 614 LINE",
"35 614 LINE",
"35 569 LINE",
"120 546 LINE",
"120 69 LINE",
"36 45 LINE",
"36 0 LINE"
);
}
);
width = 545;
},
{
anchors = (
{
name = bottom;
position = "{289, 0}";
},
{
name = ogonek;
position = "{507, 10}";
},
{
name = top;
position = "{289, 610}";
}
);
layerId = "5f75e36f-2d9b-434e-b133-1931d65175c8";
paths = (
{
closed = 1;
nodes = (
"492 0 LINE",
"492 143 LINE",
"457 143 LINE",
"431 53 LINE",
"207 53 LINE",
"207 278 LINE",
"358 278 LINE",
"383 209 LINE",
"415 209 LINE",
"415 387 LINE",
"383 387 LINE",
"361 321 LINE",
"207 321 LINE",
"207 562 LINE",
"410 562 LINE",
"431 482 LINE",
"466 482 LINE",
"466 610 LINE",
"39 610 LINE",
"39 580 LINE",
"137 561 LINE",
"137 49 LINE",
"39 30 LINE",
"39 0 LINE"
);
}
);
width = 542;
},
{
anchors = (
{
name = bottom;
position = "{300, 0}";
},
{
name = ogonek;
position = "{554, 10}";
},
{
name = top;
position = "{300, 615}";
}
);
layerId = "13e4c948-4684-4dcc-833a-03da9e1ebe8a";
paths = (
{
closed = 1;
nodes = (
"525 0 LINE",
"525 167 LINE",
"463 167 LINE",
"437 74 LINE",
"268 74 LINE",
"268 273 LINE",
"359 273 LINE",
"376 204 LINE",
"435 204 LINE",
"435 398 LINE",
"376 398 LINE",
"361 332 LINE",
"268 332 LINE",
"268 542 LINE",
"422 542 LINE",
"445 464 LINE",
"507 464 LINE",
"507 615 LINE",
"34 615 LINE",
"34 566 LINE",
"115 542 LINE",
"115 75 LINE",
"35 49 LINE",
"35 0 LINE"
);
}
);
width = 545;
}
);
leftKerningGroup = H;
leftMetricsKey = H;
rightKerningGroup = E;
unicode = 0045;
},
{
glyphname = Eogonek;
layers = (
{
background = {
paths = (
{
closed = 1;
nodes = (
"468 -236 OFFCURVE",
"502 -208 OFFCURVE",
"515 -186 CURVE",
"499 -170 LINE",
"483 -186 OFFCURVE",
"465 -192 OFFCURVE",
"449 -192 CURVE SMOOTH",
"415 -192 OFFCURVE",
"394 -171 OFFCURVE",
"394 -133 CURVE SMOOTH",
"394 -82 OFFCURVE",
"425 -31 OFFCURVE",
"455 0 CURVE",
"498 0 LINE",
"498 147 LINE",
"459 147 LINE",
"433 56 LINE",
"217 56 LINE",
"217 277 LINE",
"359 277 LINE",
"383 208 LINE",
"419 208 LINE",
"419 389 LINE",
"383 389 LINE",
"362 323 LINE",
"217 323 LINE",
"217 559 LINE",
"413 559 LINE",
"434 479 LINE",
"473 479 LINE",
"473 611 LINE",
"39 611 LINE",
"39 578 LINE",
"134 558 LINE",
"134 53 LINE",
"39 33 LINE",
"39 0 LINE",
"421 0 LINE",
"354 -53 OFFCURVE",
"327 -109 OFFCURVE",
"327 -151 CURVE SMOOTH",
"327 -194 OFFCURVE",
"354 -236 OFFCURVE",
"421 -236 CURVE SMOOTH"
);
}
);
};
components = (
{
name = E;
},
{
name = ogonekcomb.case;
transform = "{1, 0, 0, 1, 326, 0}";
}
);
layerId = "C2E97133-8774-4C1F-A96F-338CBADF7D3D";
width = 542;
},
{
background = {
paths = (
{
closed = 1;
nodes = (
"489 -233 OFFCURVE",
"529 -198 OFFCURVE",
"544 -171 CURVE",
"521 -149 LINE",
"501 -163 OFFCURVE",
"482 -171 OFFCURVE",
"460 -171 CURVE SMOOTH",
"428 -171 OFFCURVE",
"417 -151 OFFCURVE",
"417 -126 CURVE SMOOTH",
"417 -61 OFFCURVE",
"462 -5 OFFCURVE",
"467 0 CURVE",
"518 0 LINE",
"518 162 LINE",
"462 162 LINE",
"436 69 LINE",
"255 69 LINE",
"255 274 LINE",
"359 274 LINE",
"378 205 LINE",
"431 205 LINE",
"431 396 LINE",
"378 396 LINE",
"361 330 LINE",
"255 330 LINE",
"255 546 LINE",
"420 546 LINE",
"442 468 LINE",
"498 468 LINE",
"498 614 LINE",
"35 614 LINE",
"35 569 LINE",
"120 546 LINE",
"120 69 LINE",
"36 45 LINE",
"36 0 LINE",
"422 0 LINE",
"360 -51 OFFCURVE",
"332 -108 OFFCURVE",
"332 -147 CURVE SMOOTH",
"332 -189 OFFCURVE",
"355 -233 OFFCURVE",
"434 -233 CURVE SMOOTH"
);
}
);
};
components = (
{
name = E;
},
{
name = ogonekcomb.case;
transform = "{1, 0, 0, 1, 332, 0}";
}
);
layerId = "320D1F10-23EA-4160-876F-9C954522C215";
width = 545;
},
{
background = {
paths = (
{
closed = 1;
nodes = (
"479 -237 OFFCURVE",
"505 -195 OFFCURVE",
"508 -190 CURVE",
"494 -175 LINE",
"479 -192 OFFCURVE",
"461 -197 OFFCURVE",
"446 -197 CURVE SMOOTH",
"412 -197 OFFCURVE",
"388 -176 OFFCURVE",
"388 -135 CURVE SMOOTH",
"388 -87 OFFCURVE",
"416 -38 OFFCURVE",
"452 0 CURVE",
"493 0 LINE",
"493 143 LINE",
"458 143 LINE",
"432 53 LINE",
"208 53 LINE",
"208 278 LINE",
"359 278 LINE",
"384 209 LINE",
"416 209 LINE",
"416 387 LINE",
"384 387 LINE",
"362 321 LINE",
"208 321 LINE",
"208 562 LINE",
"411 562 LINE",
"432 482 LINE",
"467 482 LINE",
"467 610 LINE",
"40 610 LINE",
"40 580 LINE",
"138 561 LINE",
"138 49 LINE",
"40 30 LINE",
"40 0 LINE",
"421 0 LINE",
"353 -54 OFFCURVE",
"326 -109 OFFCURVE",
"326 -152 CURVE SMOOTH",
"326 -195 OFFCURVE",
"354 -237 OFFCURVE",
"418 -237 CURVE SMOOTH"
);
}
);
};
components = (
{
name = E;
},
{
name = ogonekcomb.case;
transform = "{1, 0, 0, 1, 325, 0}";
}
);
layerId = "5f75e36f-2d9b-434e-b133-1931d65175c8";
width = 542;
},
{
background = {
paths = (
{
closed = 1;
nodes = (
"519 -232 OFFCURVE",
"551 -173 OFFCURVE",
"554 -166 CURVE",
"529 -142 LINE",
"507 -155 OFFCURVE",
"488 -164 OFFCURVE",
"464 -164 CURVE SMOOTH",
"433 -164 OFFCURVE",
"425 -144 OFFCURVE",
"425 -124 CURVE SMOOTH",
"425 -66 OFFCURVE",
"459 -16 OFFCURVE",
"471 0 CURVE",
"525 0 LINE",
"525 167 LINE",
"463 167 LINE",
"437 74 LINE",
"268 74 LINE",
"268 273 LINE",
"359 273 LINE",
"376 204 LINE",
"435 204 LINE",
"435 398 LINE",
"376 398 LINE",
"361 332 LINE",
"268 332 LINE",
"268 542 LINE",
"422 542 LINE",
"445 464 LINE",
"507 464 LINE",
"507 615 LINE",
"34 615 LINE",
"34 566 LINE",
"115 542 LINE",
"115 75 LINE",
"35 49 LINE",
"35 0 LINE",
"422 0 LINE",
"362 -50 OFFCURVE",
"334 -108 OFFCURVE",
"334 -146 CURVE SMOOTH",
"334 -187 OFFCURVE",
"355 -232 OFFCURVE",
"439 -232 CURVE SMOOTH"
);
}
);
};
components = (
{
name = E;
},
{
name = ogonekcomb.case;
transform = "{1, 0, 0, 1, 334, 0}";
}
);
layerId = "13e4c948-4684-4dcc-833a-03da9e1ebe8a";
width = 545;
}
);
leftKerningGroup = H;
rightKerningGroup = E;
unicode = 0118;
},
{
glyphname = F;
layers = (
{
anchors = (
{
name = bottom;
position = "{289, 0}";
},
{
name = top;
position = "{289, 611}";
}
);
background = {
paths = (
{
closed = 1;
nodes = (
"38 611 LINE",
"38 578 LINE",
"133 558 LINE",
"133 53 LINE",
"38 33 LINE",
"38 0 LINE",
"330 0 LINE",
"330 34 LINE",
"217 54 LINE",
"217 267 LINE",
"359 267 LINE",
"383 198 LINE",
"419 198 LINE",
"419 379 LINE",
"383 379 LINE",
"362 313 LINE",
"217 313 LINE",
"217 559 LINE",
"413 559 LINE",
"434 479 LINE",
"473 479 LINE",
"473 611 LINE"
);
}
);
};
layerId = "C2E97133-8774-4C1F-A96F-338CBADF7D3D";
paths = (
{
closed = 1;
nodes = (
"330 0 LINE",
"330 34 LINE",
"217 54 LINE",
"217 267 LINE",
"359 267 LINE",
"383 198 LINE",
"419 198 LINE",
"419 379 LINE",
"383 379 LINE",
"362 313 LINE",
"217 313 LINE",
"217 559 LINE",
"413 559 LINE",
"434 479 LINE",
"473 479 LINE",
"473 611 LINE",
"38 611 LINE",
"38 578 LINE",
"133 558 LINE",
"133 53 LINE",
"38 33 LINE",
"38 0 LINE"
);
}
);
width = 498;
},
{
anchors = (
{
name = bottom;
position = "{300, 0}";
},
{
name = top;
position = "{300, 614}";
}
);
background = {
paths = (
{
closed = 1;
nodes = (
"35 614 LINE",
"35 569 LINE",
"120 546 LINE",
"120 69 LINE",
"36 45 LINE",
"36 0 LINE",
"361 0 LINE",
"361 50 LINE",
"255 75 LINE",
"255 264 LINE",
"359 264 LINE",
"378 195 LINE",
"431 195 LINE",
"431 386 LINE",
"378 386 LINE",
"361 320 LINE",
"255 320 LINE",
"255 546 LINE",
"420 546 LINE",
"442 468 LINE",
"498 468 LINE",
"498 614 LINE"
);
}
);
};
layerId = "320D1F10-23EA-4160-876F-9C954522C215";
paths = (
{
closed = 1;
nodes = (
"361 0 LINE",
"361 50 LINE",
"255 75 LINE",
"255 264 LINE",
"359 264 LINE",
"378 195 LINE",
"431 195 LINE",
"431 386 LINE",
"378 386 LINE",
"361 320 LINE",
"255 320 LINE",
"255 546 LINE",
"420 546 LINE",
"442 468 LINE",
"498 468 LINE",
"498 614 LINE",
"35 614 LINE",
"35 569 LINE",
"120 546 LINE",
"120 69 LINE",
"36 45 LINE",
"36 0 LINE"
);
}
);
width = 513;
},
{
anchors = (
{
name = bottom;
position = "{289, 0}";
},
{
name = top;
position = "{289, 610}";
}
);
layerId = "5f75e36f-2d9b-434e-b133-1931d65175c8";
paths = (
{
closed = 1;
nodes = (
"322 0 LINE",
"322 30 LINE",
"208 49 LINE",
"208 268 LINE",
"359 268 LINE",
"384 199 LINE",
"416 199 LINE",
"416 377 LINE",
"384 377 LINE",
"362 311 LINE",
"208 311 LINE",
"208 562 LINE",
"411 562 LINE",
"432 482 LINE",
"467 482 LINE",
"467 610 LINE",
"39 610 LINE",
"39 580 LINE",
"136 561 LINE",
"136 49 LINE",
"39 30 LINE",
"39 0 LINE"
);
}
);
width = 494;
},
{
anchors = (
{
name = bottom;
position = "{300, 0}";
},
{
name = top;
position = "{300, 615}";
}
);
layerId = "13e4c948-4684-4dcc-833a-03da9e1ebe8a";
paths = (
{
closed = 1;
nodes = (
"372 0 LINE",
"372 56 LINE",
"268 82 LINE",
"268 263 LINE",
"359 263 LINE",
"376 194 LINE",
"435 194 LINE",
"435 388 LINE",
"376 388 LINE",
"361 322 LINE",
"268 322 LINE",
"268 542 LINE",
"422 542 LINE",
"445 464 LINE",
"507 464 LINE",
"507 615 LINE",
"34 615 LINE",
"34 566 LINE",
"116 542 LINE",
"116 75 LINE",
"35 49 LINE",
"35 0 LINE"
);
}
);
width = 518;
}
);
leftKerningGroup = H;
leftMetricsKey = H;
rightKerningGroup = F;
unicode = 0046;
},
{
glyphname = G;
layers = (
{
anchors = (
{
name = bottom;
position = "{320, 0}";
},
{
name = top;
position = "{320, 611}";
}
);
background = {
paths = (
{
closed = 1;
nodes = (
"472 470 LINE",
"510 470 LINE",
"524 597 LINE",
"479 618 OFFCURVE",
"400 627 OFFCURVE",
"346 627 CURVE SMOOTH",
"121 627 OFFCURVE",
"41 483 OFFCURVE",
"41 309 CURVE SMOOTH",
"41 136 OFFCURVE",
"117 -11 OFFCURVE",
"339 -11 CURVE SMOOTH",
"412 -11 OFFCURVE",
"474 4 OFFCURVE",
"519 31 CURVE",
"519 234 LINE",
"590 254 LINE",
"590 288 LINE",
"347 288 LINE",
"347 254 LINE",
"436 234 LINE",
"436 56 LINE",
"408 42 OFFCURVE",
"378 37 OFFCURVE",
"343 37 CURVE SMOOTH",
"169 37 OFFCURVE",
"131 196 OFFCURVE",
"131 309 CURVE SMOOTH",
"131 422 OFFCURVE",
"167 578 OFFCURVE",
"346 578 CURVE SMOOTH",
"386 578 OFFCURVE",
"423 573 OFFCURVE",
"448 567 CURVE"
);
}
);
};
layerId = "C2E97133-8774-4C1F-A96F-338CBADF7D3D";
paths = (
{
closed = 1;
nodes = (
"412 -11 OFFCURVE",
"474 4 OFFCURVE",
"519 31 CURVE",
"519 234 LINE",
"590 254 LINE",
"590 288 LINE",
"347 288 LINE",
"347 254 LINE",
"440 234 LINE",
"440 56 LINE",
"411 42 OFFCURVE",
"380 37 OFFCURVE",
"343 37 CURVE SMOOTH",
"169 37 OFFCURVE",
"131 196 OFFCURVE",
"131 309 CURVE SMOOTH",
"131 422 OFFCURVE",
"167 578 OFFCURVE",
"346 578 CURVE SMOOTH",
"386 578 OFFCURVE",
"423 573 OFFCURVE",
"448 567 CURVE",
"472 470 LINE",
"510 470 LINE",
"524 597 LINE",
"479 618 OFFCURVE",
"400 627 OFFCURVE",
"346 627 CURVE SMOOTH",
"121 627 OFFCURVE",
"41 483 OFFCURVE",
"41 309 CURVE SMOOTH",
"41 136 OFFCURVE",
"117 -11 OFFCURVE",
"339 -11 CURVE SMOOTH"
);
}
);
width = 600;
},
{
anchors = (
{
name = bottom;
position = "{330, 0}";
},
{
name = top;
position = "{330, 614}";
}
);
background = {
paths = (
{
closed = 1;
nodes = (
"475 447 LINE",
"531 447 LINE",
"542 600 LINE",
"500 616 OFFCURVE",
"422 629 OFFCURVE",
"358 629 CURVE SMOOTH",
"120 629 OFFCURVE",
"30 485 OFFCURVE",
"30 312 CURVE SMOOTH",
"30 138 OFFCURVE",
"112 -9 OFFCURVE",
"346 -9 CURVE SMOOTH",
"421 -9 OFFCURVE",
"496 6 OFFCURVE",
"544 33 CURVE",
"544 223 LINE",
"604 242 LINE",
"604 289 LINE",
"325 289 LINE",
"325 244 LINE",
"409 221 LINE",
"409 71 LINE",
"383 63 OFFCURVE",
"357 63 OFFCURVE",
"339 63 CURVE SMOOTH",
"211 63 OFFCURVE",
"172 180 OFFCURVE",
"172 312 CURVE SMOOTH",
"172 420 OFFCURVE",
"205 558 OFFCURVE",
"360 558 CURVE SMOOTH",
"397 558 OFFCURVE",
"429 554 OFFCURVE",
"450 545 CURVE"
);
}
);
};
layerId = "320D1F10-23EA-4160-876F-9C954522C215";
paths = (
{
closed = 1;
nodes = (
"421 -9 OFFCURVE",
"496 6 OFFCURVE",
"544 33 CURVE",
"544 223 LINE",
"604 242 LINE",
"604 289 LINE",
"325 289 LINE",
"325 244 LINE",
"411 221 LINE",
"411 71 LINE",
"384 63 OFFCURVE",
"358 63 OFFCURVE",
"339 63 CURVE SMOOTH",
"211 63 OFFCURVE",
"172 180 OFFCURVE",
"172 312 CURVE SMOOTH",
"172 420 OFFCURVE",
"205 558 OFFCURVE",
"360 558 CURVE SMOOTH",
"397 558 OFFCURVE",
"429 554 OFFCURVE",
"450 545 CURVE",
"475 447 LINE",
"531 447 LINE",
"542 600 LINE",
"500 616 OFFCURVE",
"422 629 OFFCURVE",
"358 629 CURVE SMOOTH",
"120 629 OFFCURVE",
"30 485 OFFCURVE",
"30 312 CURVE SMOOTH",
"30 138 OFFCURVE",
"112 -9 OFFCURVE",
"346 -9 CURVE SMOOTH"
);
}
);
width = 619;
},
{
anchors = (
{
name = bottom;
position = "{318, 0}";
},
{
name = top;
position = "{318, 610}";
}
);
layerId = "5f75e36f-2d9b-434e-b133-1931d65175c8";
paths = (
{
closed = 1;
nodes = (
"410 -12 OFFCURVE",
"469 4 OFFCURVE",
"513 31 CURVE",
"513 238 LINE",
"582 258 LINE",
"582 288 LINE",
"358 288 LINE",
"358 258 LINE",
"446 238 LINE",
"446 52 LINE",
"416 37 OFFCURVE",
"384 31 OFFCURVE",
"344 31 CURVE SMOOTH",
"159 31 OFFCURVE",
"121 200 OFFCURVE",
"121 308 CURVE SMOOTH",
"121 423 OFFCURVE",
"158 583 OFFCURVE",
"343 583 CURVE SMOOTH",
"383 583 OFFCURVE",
"422 578 OFFCURVE",
"448 573 CURVE",
"471 476 LINE",
"505 476 LINE",
"520 596 LINE",
"474 619 OFFCURVE",
"395 627 OFFCURVE",
"343 627 CURVE SMOOTH",
"121 627 OFFCURVE",
"44 483 OFFCURVE",
"44 308 CURVE SMOOTH",
"44 136 OFFCURVE",
"118 -12 OFFCURVE",
"337 -12 CURVE SMOOTH"
);
}
);
width = 595;
},
{
anchors = (
{
name = bottom;
position = "{333, 0}";
},
{
name = top;
position = "{333, 615}";
}
);
layerId = "13e4c948-4684-4dcc-833a-03da9e1ebe8a";
paths = (
{
closed = 1;
nodes = (
"424 -8 OFFCURVE",
"504 7 OFFCURVE",
"553 34 CURVE",
"553 219 LINE",
"609 238 LINE",
"609 289 LINE",
"317 289 LINE",
"317 241 LINE",
"404 216 LINE",
"404 78 LINE",
"376 72 OFFCURVE",
"351 72 OFFCURVE",
"338 72 CURVE SMOOTH",
"226 72 OFFCURVE",
"186 174 OFFCURVE",
"186 313 CURVE SMOOTH",
"186 419 OFFCURVE",
"218 551 OFFCURVE",
"365 551 CURVE SMOOTH",
"401 551 OFFCURVE",
"431 547 OFFCURVE",
"451 537 CURVE",
"476 439 LINE",
"538 439 LINE",
"548 601 LINE",
"507 615 OFFCURVE",
"430 630 OFFCURVE",
"362 630 CURVE SMOOTH",
"120 630 OFFCURVE",
"26 486 OFFCURVE",
"26 313 CURVE SMOOTH",
"26 139 OFFCURVE",
"110 -8 OFFCURVE",
"348 -8 CURVE SMOOTH"
);
}
);
width = 626;
}
);
leftKerningGroup = O;
leftMetricsKey = O;
rightKerningGroup = G;
unicode = 0047;
},
{
glyphname = H;
layers = (
{
anchors = (
{
name = bottom;
position = "{361, 0}";
},
{
name = center;
position = "{361, 306}";
},
{
name = top;
position = "{361, 611}";
}
);
background = {
paths = (
{
closed = 1;
nodes = (
"424 33 LINE",
"424 0 LINE",
"686 0 LINE",
"686 33 LINE",
"596 53 LINE",
"596 559 LINE",
"685 578 LINE",
"685 611 LINE",
"424 611 LINE",
"424 578 LINE",
"513 559 LINE",
"513 329 LINE",
"211 329 LINE",
"211 559 LINE",
"300 578 LINE",
"300 611 LINE",
"39 611 LINE",
"39 578 LINE",
"128 559 LINE",
"128 53 LINE",
"39 33 LINE",
"39 0 LINE",
"300 0 LINE",
"300 33 LINE",
"211 53 LINE",
"211 280 LINE",
"513 280 LINE",
"513 53 LINE"
);
}
);
};
layerId = "C2E97133-8774-4C1F-A96F-338CBADF7D3D";
paths = (
{
closed = 1;
nodes = (
"299 0 LINE",
"299 33 LINE",
"210 53 LINE",
"210 280 LINE",
"512 280 LINE",
"512 53 LINE",
"423 33 LINE",
"423 0 LINE",
"685 0 LINE",
"685 33 LINE",
"595 53 LINE",
"595 559 LINE",
"684 578 LINE",
"684 611 LINE",
"423 611 LINE",
"423 578 LINE",
"512 559 LINE",
"512 329 LINE",
"210 329 LINE",
"210 559 LINE",
"299 578 LINE",
"299 611 LINE",
"38 611 LINE",
"38 578 LINE",
"127 559 LINE",
"127 53 LINE",
"38 33 LINE",
"38 0 LINE"
);
}
);
width = 723;
},
{
anchors = (
{
name = bottom;
position = "{368, 0}";
},
{
name = center;
position = "{368, 307}";
},
{
name = top;
position = "{368, 614}";
}
);
background = {
paths = (
{
closed = 1;
nodes = (
"701 0 LINE",
"701 45 LINE",
"616 69 LINE",
"616 546 LINE",
"701 569 LINE",
"701 614 LINE",
"395 614 LINE",
"395 569 LINE",
"481 546 LINE",
"481 335 LINE",
"255 335 LINE",
"255 546 LINE",
"340 569 LINE",
"340 614 LINE",
"35 614 LINE",
"35 569 LINE",
"120 546 LINE",
"120 69 LINE",
"35 45 LINE",
"35 0 LINE",
"340 0 LINE",
"340 45 LINE",
"255 69 LINE",
"255 276 LINE",
"481 276 LINE",
"481 69 LINE",
"396 45 LINE",
"396 0 LINE"
);
}
);
};
layerId = "320D1F10-23EA-4160-876F-9C954522C215";
paths = (
{
closed = 1;
nodes = (
"340 0 LINE",
"340 45 LINE",
"255 69 LINE",
"255 276 LINE",
"481 276 LINE",
"481 69 LINE",
"396 45 LINE",
"396 0 LINE",
"701 0 LINE",
"701 45 LINE",
"616 69 LINE",
"616 546 LINE",
"701 569 LINE",
"701 614 LINE",
"395 614 LINE",
"395 569 LINE",
"481 546 LINE",
"481 335 LINE",
"255 335 LINE",
"255 546 LINE",
"340 569 LINE",
"340 614 LINE",
"35 614 LINE",
"35 569 LINE",
"120 546 LINE",
"120 69 LINE",
"35 45 LINE",
"35 0 LINE"
);
}
);
width = 736;
},
{
anchors = (
{
name = bottom;
position = "{360, 0}";
},
{
name = center;
position = "{360, 306}";
},
{
name = top;
position = "{360, 610}";
}
);
layerId = "5f75e36f-2d9b-434e-b133-1931d65175c8";
paths = (
{
closed = 1;
nodes = (
"289 0 LINE",
"289 30 LINE",
"199 49 LINE",
"199 281 LINE",
"520 281 LINE",
"520 49 LINE",
"430 30 LINE",
"430 0 LINE",
"681 0 LINE",
"681 30 LINE",
"590 49 LINE",
"590 562 LINE",
"680 580 LINE",
"680 610 LINE",
"430 610 LINE",
"430 580 LINE",
"520 562 LINE",
"520 328 LINE",
"199 328 LINE",
"199 562 LINE",
"289 580 LINE",
"289 610 LINE",
"39 610 LINE",
"39 580 LINE",
"129 562 LINE",
"129 49 LINE",
"39 30 LINE",
"39 0 LINE"
);
}
);
width = 720;
},
{
anchors = (
{
name = bottom;
position = "{370, 0}";
},
{
name = center;
position = "{370, 307}";
},
{
name = top;
position = "{370, 615}";
}
);
layerId = "13e4c948-4684-4dcc-833a-03da9e1ebe8a";
paths = (
{
closed = 1;
nodes = (
"354 0 LINE",
"354 49 LINE",
"270 75 LINE",
"270 275 LINE",
"470 275 LINE",
"470 75 LINE",
"386 49 LINE",
"386 0 LINE",
"706 0 LINE",
"706 49 LINE",
"623 75 LINE",
"623 542 LINE",
"707 566 LINE",
"707 615 LINE",
"385 615 LINE",
"385 566 LINE",
"470 542 LINE",
"470 337 LINE",
"270 337 LINE",
"270 542 LINE",
"354 566 LINE",
"354 615 LINE",
"34 615 LINE",
"34 566 LINE",
"117 542 LINE",
"117 75 LINE",
"34 49 LINE",
"34 0 LINE"
);
}
);
width = 741;
}
);
leftKerningGroup = H;
rightKerningGroup = H;
unicode = 0048;
},
{
glyphname = Hbar;
layers = (
{
components = (
{
name = H;
}
);
layerId = "C2E97133-8774-4C1F-A96F-338CBADF7D3D";
paths = (
{
closed = 1;
nodes = (
"682 423 LINE",
"682 469 LINE",
"42 469 LINE",
"42 423 LINE"
);
}
);
width = 723;
},
{
components = (
{
name = H;
}
);
layerId = "320D1F10-23EA-4160-876F-9C954522C215";
paths = (
{
closed = 1;
nodes = (
"697 421 LINE",
"697 476 LINE",
"39 476 LINE",
"39 421 LINE"
);
}
);
width = 736;
},
{
background = {
paths = (
{
closed = 1;
nodes = (
"290 0 LINE",
"290 30 LINE",
"200 49 LINE",
"200 251 LINE",
"521 251 LINE",
"521 49 LINE",
"431 30 LINE",
"431 0 LINE",
"682 0 LINE",
"682 30 LINE",
"591 49 LINE",
"591 562 LINE",
"681 580 LINE",
"681 610 LINE",
"431 610 LINE",
"431 580 LINE",
"521 562 LINE",
"521 298 LINE",
"200 298 LINE",
"200 562 LINE",
"290 580 LINE",
"290 610 LINE",
"40 610 LINE",
"40 580 LINE",
"130 562 LINE",
"130 49 LINE",
"40 30 LINE",
"40 0 LINE"
);
},
{
closed = 1;
nodes = (
"678 394 LINE",
"678 438 LINE",
"43 438 LINE",
"43 394 LINE"
);
}
);
};
components = (
{
name = H;
}
);
layerId = "5f75e36f-2d9b-434e-b133-1931d65175c8";
paths = (
{
closed = 1;
nodes = (
"678 424 LINE",
"678 468 LINE",
"43 468 LINE",
"43 424 LINE"
);
}
);
width = 720;
},
{
components = (
{
name = H;
}
);
layerId = "13e4c948-4684-4dcc-833a-03da9e1ebe8a";
paths = (
{
closed = 1;
nodes = (
"702 416 LINE",
"702 474 LINE",
"38 474 LINE",
"38 416 LINE"
);
}
);
width = 741;
}
);
leftKerningGroup = H;
leftMetricsKey = H;
rightKerningGroup = H;
rightMetricsKey = H;
unicode = 0126;
},
{
glyphname = I;
layers = (
{
anchors = (
{
name = bottom;
position = "{170, 0}";
},
{
name = ogonek;
position = "{300, 10}";
},
{
name = top;
position = "{170, 611}";
}
);
background = {
paths = (
{
closed = 1;
nodes = (
"38 578 LINE",
"128 558 LINE",
"128 53 LINE",
"38 33 LINE",
"38 0 LINE",
"301 0 LINE",
"301 33 LINE",
"211 53 LINE",
"211 558 LINE",
"301 578 LINE",
"301 611 LINE",
"38 611 LINE"
);
}
);
};
layerId = "C2E97133-8774-4C1F-A96F-338CBADF7D3D";
paths = (
{
closed = 1;
nodes = (
"301 0 LINE",
"301 33 LINE",
"211 53 LINE",
"211 558 LINE",
"301 578 LINE",
"301 611 LINE",
"38 611 LINE",
"38 578 LINE",
"128 558 LINE",
"128 53 LINE",
"38 33 LINE",
"38 0 LINE"
);
}
);
width = 339;
},
{
anchors = (
{
name = bottom;
position = "{188, 0}";
},
{
name = ogonek;
position = "{352, 10}";
},
{
name = top;
position = "{188, 614}";
}
);
background = {
paths = (
{
closed = 1;
nodes = (
"255 546 LINE",
"340 569 LINE",
"340 614 LINE",
"35 614 LINE",
"35 569 LINE",
"120 546 LINE",
"120 69 LINE",
"36 45 LINE",
"36 0 LINE",
"340 0 LINE",
"340 45 LINE",
"255 69 LINE"
);
}
);
};
layerId = "320D1F10-23EA-4160-876F-9C954522C215";
paths = (
{
closed = 1;
nodes = (
"340 0 LINE",
"340 45 LINE",
"255 69 LINE",
"255 546 LINE",
"340 569 LINE",
"340 614 LINE",
"35 614 LINE",
"35 569 LINE",
"120 546 LINE",
"120 69 LINE",
"36 45 LINE",
"36 0 LINE"
);
}
);
width = 375;
},
{
anchors = (
{
name = bottom;
position = "{166, 0}";
},
{
name = ogonek;
position = "{287, 10}";
},
{
name = top;
position = "{166, 610}";
}
);
layerId = "5f75e36f-2d9b-434e-b133-1931d65175c8";
paths = (
{
closed = 1;
nodes = (
"291 0 LINE",
"291 30 LINE",
"200 49 LINE",
"200 561 LINE",
"291 580 LINE",
"291 610 LINE",
"39 610 LINE",
"39 580 LINE",
"130 561 LINE",
"130 49 LINE",
"39 30 LINE",
"39 0 LINE"
);
}
);
width = 330;
},
{
anchors = (
{
name = bottom;
position = "{194, 0}";
},
{
name = ogonek;
position = "{370, 10}";
},
{
name = top;
position = "{194, 615}";
}
);
layerId = "13e4c948-4684-4dcc-833a-03da9e1ebe8a";
paths = (
{
closed = 1;
nodes = (
"354 0 LINE",
"354 49 LINE",
"270 75 LINE",
"270 542 LINE",
"354 566 LINE",
"354 615 LINE",
"34 615 LINE",
"34 566 LINE",
"117 542 LINE",
"117 75 LINE",
"35 49 LINE",
"35 0 LINE"
);
}
);
width = 388;
}
);
leftKerningGroup = H;
leftMetricsKey = H;
rightKerningGroup = H;
rightMetricsKey = H;
unicode = 0049;
},
{
glyphname = Iogonek;
layers = (
{
background = {
components = (
{
name = I;
},
{
name = ogonekcomb.case;
transform = "{1, 0, 0, 1, 113, 0}";
}
);
};
layerId = "C2E97133-8774-4C1F-A96F-338CBADF7D3D";
paths = (
{
closed = 1;
nodes = (
"254 -236 OFFCURVE",
"288 -208 OFFCURVE",
"301 -186 CURVE",
"284 -170 LINE",
"269 -186 OFFCURVE",
"251 -192 OFFCURVE",
"234 -192 CURVE SMOOTH",
"201 -192 OFFCURVE",
"180 -171 OFFCURVE",
"180 -133 CURVE SMOOTH",
"180 -82 OFFCURVE",
"208 -24 OFFCURVE",
"301 0 CURVE",
"301 33 LINE",
"211 53 LINE",
"211 558 LINE",
"301 578 LINE",
"301 611 LINE",
"38 611 LINE",
"38 578 LINE",
"128 558 LINE",
"128 53 LINE",
"38 33 LINE",
"38 0 LINE",
"223 0 LINE",
"154 -36 OFFCURVE",
"112 -95 OFFCURVE",
"112 -151 CURVE SMOOTH",
"112 -194 OFFCURVE",
"140 -236 OFFCURVE",
"207 -236 CURVE SMOOTH"
);
}
);
width = 339;
},
{
background = {
components = (
{
name = I;
},
{
name = ogonekcomb.case;
transform = "{1, 0, 0, 1, 140, 0}";
}
);
};
layerId = "320D1F10-23EA-4160-876F-9C954522C215";
paths = (
{
closed = 1;
nodes = (
"303 -233 OFFCURVE",
"337 -195 OFFCURVE",
"352 -171 CURVE",
"329 -149 LINE",
"316 -158 OFFCURVE",
"295 -171 OFFCURVE",
"269 -171 CURVE SMOOTH",
"241 -171 OFFCURVE",
"225 -157 OFFCURVE",
"225 -125 CURVE SMOOTH",
"225 -83 OFFCURVE",
"257 -20 OFFCURVE",
"340 0 CURVE",
"340 45 LINE",
"255 69 LINE",
"255 546 LINE",
"340 569 LINE",
"340 614 LINE",
"35 614 LINE",
"35 569 LINE",
"120 546 LINE",
"120 69 LINE",
"36 45 LINE",
"36 0 LINE",
"242 0 LINE",
"186 -36 OFFCURVE",
"140 -90 OFFCURVE",
"140 -149 CURVE SMOOTH",
"140 -192 OFFCURVE",
"165 -233 OFFCURVE",
"243 -233 CURVE SMOOTH"
);
}
);
width = 375;
},
{
background = {
components = (
{
name = I;
},
{
name = ogonekcomb.case;
transform = "{1, 0, 0, 1, 106, 0}";
}
);
};
layerId = "5f75e36f-2d9b-434e-b133-1931d65175c8";
paths = (
{
closed = 1;
nodes = (
"234 -237 OFFCURVE",
"266 -221 OFFCURVE",
"288 -190 CURVE",
"273 -175 LINE",
"257 -193 OFFCURVE",
"240 -197 OFFCURVE",
"225 -197 CURVE SMOOTH",
"191 -197 OFFCURVE",
"169 -175 OFFCURVE",
"169 -135 CURVE SMOOTH",
"169 -82 OFFCURVE",
"196 -25 OFFCURVE",
"291 0 CURVE",
"291 30 LINE",
"200 49 LINE",
"200 561 LINE",
"291 580 LINE",
"291 610 LINE",
"39 610 LINE",
"39 580 LINE",
"130 561 LINE",
"130 49 LINE",
"39 30 LINE",
"39 0 LINE",
"218 0 LINE",
"146 -36 OFFCURVE",
"105 -96 OFFCURVE",
"105 -152 CURVE SMOOTH",
"105 -195 OFFCURVE",
"134 -237 OFFCURVE",
"198 -237 CURVE SMOOTH"
);
}
);
width = 330;
},
{
background = {
components = (
{
name = I;
},
{
name = ogonekcomb.case;
transform = "{1, 0, 0, 1, 150, 0}";
}
);
};
layerId = "13e4c948-4684-4dcc-833a-03da9e1ebe8a";
paths = (
{
closed = 1;
nodes = (
"297 -232 OFFCURVE",
"345 -204 OFFCURVE",
"370 -166 CURVE",
"345 -142 LINE",
"322 -156 OFFCURVE",
"300 -164 OFFCURVE",
"283 -164 CURVE SMOOTH",
"257 -164 OFFCURVE",
"241 -152 OFFCURVE",
"241 -122 CURVE SMOOTH",
"241 -83 OFFCURVE",
"274 -19 OFFCURVE",
"354 0 CURVE",
"354 49 LINE",
"270 75 LINE",
"270 542 LINE",
"354 566 LINE",
"354 615 LINE",
"34 615 LINE",
"34 566 LINE",
"117 542 LINE",
"117 75 LINE",
"35 49 LINE",
"35 0 LINE",
"249 0 LINE",
"197 -36 OFFCURVE",
"150 -88 OFFCURVE",
"150 -148 CURVE SMOOTH",
"150 -191 OFFCURVE",
"174 -232 OFFCURVE",
"245 -232 CURVE SMOOTH"
);
}
);
width = 387;
}
);
leftKerningGroup = H;
leftMetricsKey = H;
rightKerningGroup = H;
unicode = 012E;
},
{
glyphname = J;
layers = (
{
anchors = (
{
name = bottom;
position = "{146, 0}";
},
{
name = top;
position = "{146, 611}";
}
);
background = {
paths = (
{
closed = 1;
nodes = (
"143 -149 OFFCURVE",
"191 -102 OFFCURVE",
"191 63 CURVE SMOOTH",
"191 558 LINE",
"279 578 LINE",
"279 611 LINE",
"19 611 LINE",
"19 578 LINE",
"108 558 LINE",
"108 30 LINE SMOOTH",
"108 -42 OFFCURVE",
"97 -94 OFFCURVE",
"33 -94 CURVE SMOOTH",
"-41 -94 LINE",
"-45 -122 LINE",
"-22 -137 OFFCURVE",
"8 -149 OFFCURVE",
"55 -149 CURVE SMOOTH"
);
}
);
};
layerId = "C2E97133-8774-4C1F-A96F-338CBADF7D3D";
paths = (
{
closed = 1;
nodes = (
"143 -149 OFFCURVE",
"191 -102 OFFCURVE",
"191 63 CURVE SMOOTH",
"191 558 LINE",
"279 578 LINE",
"279 611 LINE",
"19 611 LINE",
"19 578 LINE",
"108 558 LINE",
"108 30 LINE SMOOTH",
"108 -42 OFFCURVE",
"97 -94 OFFCURVE",
"33 -94 CURVE SMOOTH",
"-41 -94 LINE",
"-45 -122 LINE",
"-22 -137 OFFCURVE",
"8 -149 OFFCURVE",
"55 -149 CURVE SMOOTH"
);
}
);
width = 292;
},
{
anchors = (
{
name = bottom;
position = "{176, 0}";
},
{
name = top;
position = "{176, 614}";
}
);
background = {
paths = (
{
closed = 1;
nodes = (
"185 -150 OFFCURVE",
"248 -103 OFFCURVE",
"248 63 CURVE SMOOTH",
"248 546 LINE",
"333 569 LINE",
"333 614 LINE",
"29 614 LINE",
"29 569 LINE",
"114 546 LINE",
"114 41 LINE SMOOTH",
"114 -29 OFFCURVE",
"102 -81 OFFCURVE",
"42 -81 CURVE SMOOTH",
"-26 -81 LINE",
"-30 -118 LINE",
"-6 -134 OFFCURVE",
"28 -150 OFFCURVE",
"81 -150 CURVE SMOOTH"
);
}
);
};
layerId = "320D1F10-23EA-4160-876F-9C954522C215";
paths = (
{
closed = 1;
nodes = (
"185 -150 OFFCURVE",
"248 -103 OFFCURVE",
"248 63 CURVE SMOOTH",
"248 546 LINE",
"333 569 LINE",
"333 614 LINE",
"29 614 LINE",
"29 569 LINE",
"114 546 LINE",
"114 41 LINE SMOOTH",
"114 -29 OFFCURVE",
"102 -81 OFFCURVE",
"42 -81 CURVE SMOOTH",
"-26 -81 LINE",
"-30 -118 LINE",
"-6 -134 OFFCURVE",
"28 -150 OFFCURVE",
"81 -150 CURVE SMOOTH"
);
}
);
width = 351;
},
{
anchors = (
{
name = bottom;
position = "{139, 0}";
},
{
name = top;
position = "{139, 610}";
}
);
layerId = "5f75e36f-2d9b-434e-b133-1931d65175c8";
paths = (
{
closed = 1;
nodes = (
"133 -149 OFFCURVE",
"177 -102 OFFCURVE",
"177 63 CURVE SMOOTH",
"177 561 LINE",
"266 580 LINE",
"266 610 LINE",
"17 610 LINE",
"17 580 LINE",
"107 561 LINE",
"107 27 LINE SMOOTH",
"107 -45 OFFCURVE",
"96 -97 OFFCURVE",
"31 -97 CURVE SMOOTH",
"-45 -97 LINE",
"-49 -123 LINE",
"-26 -138 OFFCURVE",
"3 -149 OFFCURVE",
"49 -149 CURVE SMOOTH"
);
}
);
width = 277;
},
{
anchors = (
{
name = bottom;
position = "{186, 0}";
},
{
name = top;
position = "{186, 615}";
}
);
layerId = "13e4c948-4684-4dcc-833a-03da9e1ebe8a";
paths = (
{
closed = 1;
nodes = (
"200 -150 OFFCURVE",
"268 -103 OFFCURVE",
"268 63 CURVE SMOOTH",
"268 542 LINE",
"352 566 LINE",
"352 615 LINE",
"32 615 LINE",
"32 566 LINE",
"116 542 LINE",
"116 45 LINE SMOOTH",
"116 -24 OFFCURVE",
"104 -77 OFFCURVE",
"45 -77 CURVE SMOOTH",
"-21 -77 LINE",
"-25 -117 LINE",
"0 -133 OFFCURVE",
"35 -150 OFFCURVE",
"90 -150 CURVE SMOOTH"
);
}
);
width = 371;
}
);
leftKerningGroup = J;
rightKerningGroup = J;
unicode = 004A;
},
{
glyphname = K;
layers = (
{
anchors = (
{
name = bottom;
position = "{319, 0}";
},
{
name = top;
position = "{292, 611}";
}
);
background = {
paths = (
{
closed = 1;
nodes = (
"574 33 LINE",
"493 53 LINE",
"291 338 LINE",
"491 558 LINE",
"563 578 LINE",
"563 611 LINE",
"359 611 LINE",
"359 578 LINE",
"424 558 LINE",
"211 324 LINE",
"211 558 LINE",
"301 578 LINE",
"301 611 LINE",
"38 611 LINE",
"38 578 LINE",
"128 558 LINE",
"128 53 LINE",
"38 33 LINE",
"38 0 LINE",
"301 0 LINE",
"301 33 LINE",
"211 53 LINE",
"211 312 LINE",
"431 0 LINE",
"574 0 LINE"
);
}
);
};
layerId = "C2E97133-8774-4C1F-A96F-338CBADF7D3D";
paths = (
{
closed = 1;
nodes = (
"301 0 LINE",
"301 33 LINE",
"211 53 LINE",
"211 312 LINE",
"431 0 LINE",
"574 0 LINE",
"574 33 LINE",
"493 53 LINE",
"291 338 LINE",
"491 558 LINE",
"563 578 LINE",
"563 611 LINE",
"359 611 LINE",
"359 578 LINE",
"424 558 LINE",
"211 324 LINE",
"211 558 LINE",
"301 578 LINE",
"301 611 LINE",
"38 611 LINE",
"38 578 LINE",
"128 558 LINE",
"128 53 LINE",
"38 33 LINE",
"38 0 LINE"
);
}
);
width = 584;
},
{
anchors = (
{
name = bottom;
position = "{335, 0}";
},
{
name = top;
position = "{297, 614}";
}
);
background = {
paths = (
{
closed = 1;
nodes = (
"613 45 LINE",
"532 73 LINE",
"344 343 LINE",
"519 549 LINE",
"587 571 LINE",
"587 614 LINE",
"382 614 LINE",
"382 569 LINE",
"437 554 LINE",
"254 347 LINE",
"254 546 LINE",
"319 568 LINE",
"319 614 LINE",
"35 614 LINE",
"35 569 LINE",
"119 546 LINE",
"119 69 LINE",
"35 45 LINE",
"35 0 LINE",
"319 0 LINE",
"319 46 LINE",
"254 68 LINE",
"254 253 LINE",
"429 0 LINE",
"613 0 LINE"
);
}
);
};
layerId = "320D1F10-23EA-4160-876F-9C954522C215";
paths = (
{
closed = 1;
nodes = (
"319 0 LINE",
"319 46 LINE",
"254 68 LINE",
"254 268 LINE",
"429 0 LINE",
"603 0 LINE",
"603 45 LINE",
"528 73 LINE",
"346 349 LINE",
"519 549 LINE",
"587 571 LINE",
"587 614 LINE",
"382 614 LINE",
"382 569 LINE",
"437 554 LINE",
"254 347 LINE",
"254 546 LINE",
"319 568 LINE",
"319 614 LINE",
"35 614 LINE",
"35 569 LINE",
"119 546 LINE",
"119 69 LINE",
"35 45 LINE",
"35 0 LINE"
);
}
);
width = 593;
},
{
anchors = (
{
name = bottom;
position = "{319, 0}";
},
{
name = top;
position = "{291, 610}";
}
);
layerId = "5f75e36f-2d9b-434e-b133-1931d65175c8";
paths = (
{
closed = 1;
nodes = (
"297 0 LINE",
"297 30 LINE",
"200 49 LINE",
"200 321 LINE",
"432 0 LINE",
"564 0 LINE",
"564 30 LINE",
"483 48 LINE",
"274 337 LINE",
"484 560 LINE",
"557 580 LINE",
"557 610 LINE",
"353 610 LINE",
"353 580 LINE",
"421 559 LINE",
"200 323 LINE",
"200 561 LINE",
"297 581 LINE",
"297 610 LINE",
"39 610 LINE",
"39 580 LINE",
"130 561 LINE",
"130 49 LINE",
"39 30 LINE",
"39 0 LINE"
);
}
);
width = 582;
},
{
anchors = (
{
name = bottom;
position = "{339, 0}";
},
{
name = top;
position = "{299, 615}";
}
);
layerId = "13e4c948-4684-4dcc-833a-03da9e1ebe8a";
paths = (
{
closed = 1;
nodes = (
"325 0 LINE",
"325 51 LINE",
"269 73 LINE",
"269 267 LINE",
"439 0 LINE",
"627 0 LINE",
"627 49 LINE",
"557 80 LINE",
"375 362 LINE",
"532 546 LINE",
"595 569 LINE",
"595 615 LINE",
"394 615 LINE",
"394 566 LINE",
"445 553 LINE",
"269 351 LINE",
"269 542 LINE",
"325 565 LINE",
"325 615 LINE",
"34 615 LINE",
"34 566 LINE",
"116 542 LINE",
"116 75 LINE",
"34 49 LINE",
"34 0 LINE"
);
}
);
width = 596;
}
);
leftKerningGroup = H;
leftMetricsKey = H;
rightKerningGroup = K;
unicode = 004B;
},
{
glyphname = L;
layers = (
{
anchors = (
{
name = bottom;
position = "{274, 0}";
},
{
name = center;
position = "{170, 306}";
},
{
name = top;
position = "{168, 611}";
},
{
name = topright;
position = "{403, 491}";
}
);
background = {
paths = (
{
closed = 1;
nodes = (
"466 147 LINE",
"428 147 LINE",
"403 56 LINE",
"211 56 LINE",
"211 558 LINE",
"301 578 LINE",
"301 611 LINE",
"38 611 LINE",
"38 578 LINE",
"128 558 LINE",
"128 53 LINE",
"38 33 LINE",
"38 0 LINE",
"466 0 LINE"
);
}
);
};
layerId = "C2E97133-8774-4C1F-A96F-338CBADF7D3D";
paths = (
{
closed = 1;
nodes = (
"466 0 LINE",
"466 147 LINE",
"428 147 LINE",
"403 56 LINE",
"211 56 LINE",
"211 558 LINE",
"301 578 LINE",
"301 611 LINE",
"38 611 LINE",
"38 578 LINE",
"128 558 LINE",
"128 53 LINE",
"38 33 LINE",
"38 0 LINE"
);
}
);
width = 478;
},
{
anchors = (
{
name = bottom;
position = "{286, 0}";
},
{
name = center;
position = "{187, 307}";
},
{
name = top;
position = "{187, 614}";
},
{
name = topright;
position = "{419, 492}";
}
);
background = {
paths = (
{
closed = 1;
nodes = (
"486 162 LINE",
"430 162 LINE",
"404 69 LINE",
"254 69 LINE",
"254 546 LINE",
"339 569 LINE",
"339 614 LINE",
"35 614 LINE",
"35 569 LINE",
"119 546 LINE",
"119 69 LINE",
"35 45 LINE",
"35 0 LINE",
"486 0 LINE"
);
}
);
};
layerId = "320D1F10-23EA-4160-876F-9C954522C215";
paths = (
{
closed = 1;
nodes = (
"486 0 LINE",
"486 162 LINE",
"430 162 LINE",
"404 69 LINE",
"254 69 LINE",
"254 546 LINE",
"339 569 LINE",
"339 614 LINE",
"35 614 LINE",
"35 569 LINE",
"119 546 LINE",
"119 69 LINE",
"35 45 LINE",
"35 0 LINE"
);
}
);
width = 491;
},
{
anchors = (
{
name = bottom;
position = "{272, 0}";
},
{
name = center;
position = "{166, 306}";
},
{
name = top;
position = "{165, 610}";
},
{
name = topright;
position = "{399, 491}";
}
);
layerId = "5f75e36f-2d9b-434e-b133-1931d65175c8";
paths = (
{
closed = 1;
nodes = (
"461 0 LINE",
"461 143 LINE",
"428 143 LINE",
"403 53 LINE",
"200 53 LINE",
"200 561 LINE",
"292 580 LINE",
"292 610 LINE",
"39 610 LINE",
"39 580 LINE",
"130 561 LINE",
"130 49 LINE",
"39 30 LINE",
"39 0 LINE"
);
}
);
width = 475;
},
{
anchors = (
{
name = bottom;
position = "{288, 0}";
},
{
name = center;
position = "{193, 307}";
},
{
name = top;
position = "{194, 615}";
},
{
name = topright;
position = "{425, 492}";
}
);
layerId = "13e4c948-4684-4dcc-833a-03da9e1ebe8a";
paths = (
{
closed = 1;
nodes = (
"493 0 LINE",
"493 167 LINE",
"431 167 LINE",
"404 74 LINE",
"269 74 LINE",
"269 542 LINE",
"352 566 LINE",
"352 615 LINE",
"34 615 LINE",
"34 566 LINE",
"116 542 LINE",
"116 75 LINE",
"34 49 LINE",
"34 0 LINE"
);
}
);
width = 496;
}
);
leftKerningGroup = H;
leftMetricsKey = H;
rightKerningGroup = L;
unicode = 004C;
},
{
glyphname = Lslash;
layers = (
{
components = (
{
name = L;
}
);
layerId = "C2E97133-8774-4C1F-A96F-338CBADF7D3D";
paths = (
{
closed = 1;
nodes = (
"337 373 LINE",
"313 412 LINE",
"39 255 LINE",
"61 218 LINE"
);
}
);
width = 478;
},
{
components = (
{
name = L;
}
);
layerId = "320D1F10-23EA-4160-876F-9C954522C215";
paths = (
{
closed = 1;
nodes = (
"382 380 LINE",
"350 436 LINE",
"40 251 LINE",
"72 195 LINE"
);
}
);
width = 491;
},
{
components = (
{
name = L;
}
);
layerId = "5f75e36f-2d9b-434e-b133-1931d65175c8";
paths = (
{
closed = 1;
nodes = (
"327 371 LINE",
"305 406 LINE",
"40 256 LINE",
"60 224 LINE"
);
}
);
width = 475;
},
{
components = (
{
name = L;
}
);
layerId = "13e4c948-4684-4dcc-833a-03da9e1ebe8a";
paths = (
{
closed = 1;
nodes = (
"391 382 LINE",
"357 444 LINE",
"34 250 LINE",
"70 187 LINE"
);
}
);
width = 496;
}
);
leftKerningGroup = H;
leftMetricsKey = H;
rightKerningGroup = L;
rightMetricsKey = L;
unicode = 0141;
},
{
glyphname = M;
layers = (
{
anchors = (
{
name = bottom;
position = "{397, 0}";
},
{
name = top;
position = "{397, 611}";
}
);
background = {
paths = (
{
closed = 1;
nodes = (
"247 33 LINE",
"158 53 LINE",
"173 511 LINE",
"360 -10 LINE",
"410 0 LINE",
"587 508 LINE",
"603 53 LINE",
"514 33 LINE",
"514 0 LINE",
"776 0 LINE",
"776 33 LINE",
"684 53 LINE",
"665 558 LINE",
"755 578 LINE",
"755 611 LINE",
"564 611 LINE",
"399 122 LINE",
"225 611 LINE",
"40 611 LINE",
"40 578 LINE",
"120 559 LINE",
"103 53 LINE",
"22 33 LINE",
"22 0 LINE",
"247 0 LINE"
);
}
);
};
layerId = "C2E97133-8774-4C1F-A96F-338CBADF7D3D";
paths = (
{
closed = 1;
nodes = (
"410 0 LINE",
"587 508 LINE",
"603 53 LINE",
"514 33 LINE",
"514 0 LINE",
"776 0 LINE",
"776 33 LINE",
"684 53 LINE",
"665 558 LINE",
"755 578 LINE",
"755 611 LINE",
"564 611 LINE",
"399 122 LINE",
"225 611 LINE",
"40 611 LINE",
"40 578 LINE",
"120 559 LINE",
"103 53 LINE",
"22 33 LINE",
"22 0 LINE",
"247 0 LINE",
"247 33 LINE",
"158 53 LINE",
"173 511 LINE",
"360 -10 LINE"
);
}
);
width = 794;
},
{
anchors = (
{
name = bottom;
position = "{407, 0}";
},
{
name = top;
position = "{407, 614}";
}
);
background = {
paths = (
{
closed = 1;
nodes = (
"256 45 LINE",
"171 69 LINE",
"185 432 LINE",
"343 -10 LINE",
"417 0 LINE",
"565 435 LINE",
"580 69 LINE",
"496 45 LINE",
"496 0 LINE",
"792 0 LINE",
"792 45 LINE",
"707 69 LINE",
"686 546 LINE",
"771 569 LINE",
"771 614 LINE",
"555 614 LINE",
"401 146 LINE",
"245 614 LINE",
"37 614 LINE",
"37 569 LINE",
"121 546 LINE",
"103 69 LINE",
"19 45 LINE",
"19 0 LINE",
"256 0 LINE"
);
}
);
};
layerId = "320D1F10-23EA-4160-876F-9C954522C215";
paths = (
{
closed = 1;
nodes = (
"417 0 LINE",
"565 435 LINE",
"580 69 LINE",
"496 45 LINE",
"496 0 LINE",
"792 0 LINE",
"792 45 LINE",
"707 69 LINE",
"686 546 LINE",
"771 569 LINE",
"771 614 LINE",
"555 614 LINE",
"401 146 LINE",
"245 614 LINE",
"37 614 LINE",
"37 569 LINE",
"121 546 LINE",
"103 69 LINE",
"19 45 LINE",
"19 0 LINE",
"256 0 LINE",
"256 45 LINE",
"171 69 LINE",
"185 432 LINE",
"343 -10 LINE"
);
}
);
width = 814;
},
{
anchors = (
{
name = bottom;
position = "{395, 0}";
},
{
name = top;
position = "{395, 610}";
}
);
layerId = "5f75e36f-2d9b-434e-b133-1931d65175c8";
paths = (
{
closed = 1;
nodes = (
"408 0 LINE",
"593 526 LINE",
"609 49 LINE",
"519 30 LINE",
"519 0 LINE",
"772 0 LINE",
"772 30 LINE",
"678 49 LINE",
"659 561 LINE",
"751 580 LINE",
"751 610 LINE",
"567 610 LINE",
"397 107 LINE",
"218 610 LINE",
"41 610 LINE",
"41 580 LINE",
"120 562 LINE",
"103 49 LINE",
"23 30 LINE",
"23 0 LINE",
"245 0 LINE",
"245 30 LINE",
"154 49 LINE",
"169 531 LINE",
"366 -10 LINE"
);
}
);
width = 789;
},
{
anchors = (
{
name = bottom;
position = "{410, 0}";
},
{
name = top;
position = "{410, 615}";
}
);
layerId = "13e4c948-4684-4dcc-833a-03da9e1ebe8a";
paths = (
{
closed = 1;
nodes = (
"416 0 LINE",
"557 410 LINE",
"572 75 LINE",
"490 49 LINE",
"490 0 LINE",
"798 0 LINE",
"798 49 LINE",
"715 75 LINE",
"693 542 LINE",
"777 566 LINE",
"777 615 LINE",
"551 615 LINE",
"402 171 LINE",
"255 615 LINE",
"36 615 LINE",
"36 566 LINE",
"121 542 LINE",
"103 75 LINE",
"18 49 LINE",
"18 0 LINE",
"259 0 LINE",
"259 49 LINE",
"176 75 LINE",
"189 405 LINE",
"335 -10 LINE"
);
}
);
width = 821;
}
);
leftKerningGroup = M;
rightKerningGroup = M;
unicode = 004D;
},
{
glyphname = N;
layers = (
{
anchors = (
{
name = bottom;
position = "{363, 0}";
},
{
name = top;
position = "{358, 611}";
}
);
background = {
paths = (
{
closed = 1;
nodes = (
"446 578 LINE",
"531 559 LINE",
"531 130 LINE",
"186 611 LINE",
"38 611 LINE",
"38 578 LINE",
"118 559 LINE",
"118 53 LINE",
"38 33 LINE",
"38 0 LINE",
"262 0 LINE",
"262 33 LINE",
"176 53 LINE",
"176 488 LINE",
"525 -10 LINE",
"587 0 LINE",
"587 559 LINE",
"668 578 LINE",
"668 611 LINE",
"446 611 LINE"
);
}
);
};
layerId = "C2E97133-8774-4C1F-A96F-338CBADF7D3D";
paths = (
{
closed = 1;
nodes = (
"587 0 LINE",
"587 559 LINE",
"668 578 LINE",
"668 611 LINE",
"446 611 LINE",
"446 578 LINE",
"531 559 LINE",
"531 130 LINE",
"186 611 LINE",
"38 611 LINE",
"38 578 LINE",
"118 559 LINE",
"118 53 LINE",
"38 33 LINE",
"38 0 LINE",
"262 0 LINE",
"262 33 LINE",
"176 53 LINE",
"176 488 LINE",
"525 -10 LINE"
);
}
);
width = 694;
},
{
anchors = (
{
name = bottom;
position = "{375, 0}";
},
{
name = top;
position = "{375, 614}";
}
);
background = {
paths = (
{
closed = 1;
nodes = (
"461 569 LINE",
"546 546 LINE",
"546 163 LINE",
"241 614 LINE",
"35 614 LINE",
"35 569 LINE",
"120 546 LINE",
"120 69 LINE",
"36 45 LINE",
"36 0 LINE",
"274 0 LINE",
"274 45 LINE",
"189 69 LINE",
"189 456 LINE",
"507 -10 LINE",
"619 0 LINE",
"619 546 LINE",
"704 569 LINE",
"704 614 LINE",
"461 614 LINE"
);
}
);
};
layerId = "320D1F10-23EA-4160-876F-9C954522C215";
paths = (
{
closed = 1;
nodes = (
"619 0 LINE",
"619 546 LINE",
"704 569 LINE",
"704 614 LINE",
"461 614 LINE",
"461 569 LINE",
"546 546 LINE",
"546 163 LINE",
"241 614 LINE",
"35 614 LINE",
"35 569 LINE",
"120 546 LINE",
"120 69 LINE",
"36 45 LINE",
"36 0 LINE",
"274 0 LINE",
"274 45 LINE",
"189 69 LINE",
"189 456 LINE",
"507 -10 LINE"
);
}
);
width = 719;
},
{
anchors = (
{
name = bottom;
position = "{361, 0}";
},
{
name = top;
position = "{356, 610}";
}
);
layerId = "5f75e36f-2d9b-434e-b133-1931d65175c8";
paths = (
{
closed = 1;
nodes = (
"579 0 LINE",
"579 562 LINE",
"660 580 LINE",
"660 610 LINE",
"443 610 LINE",
"443 580 LINE",
"528 562 LINE",
"528 122 LINE",
"174 610 LINE",
"39 610 LINE",
"39 580 LINE",
"119 562 LINE",
"119 49 LINE",
"39 30 LINE",
"39 0 LINE",
"260 0 LINE",
"260 30 LINE",
"172 49 LINE",
"172 495 LINE",
"529 -10 LINE"
);
}
);
width = 688;
},
{
anchors = (
{
name = bottom;
position = "{384, 0}";
},
{
name = top;
position = "{379, 615}";
}
);
layerId = "13e4c948-4684-4dcc-833a-03da9e1ebe8a";
paths = (
{
closed = 1;
nodes = (
"630 0 LINE",
"630 542 LINE",
"716 566 LINE",
"716 615 LINE",
"466 615 LINE",
"466 566 LINE",
"551 542 LINE",
"551 174 LINE",
"260 615 LINE",
"34 615 LINE",
"34 566 LINE",
"120 542 LINE",
"120 75 LINE",
"35 49 LINE",
"35 0 LINE",
"278 0 LINE",
"278 49 LINE",
"193 75 LINE",
"193 445 LINE",
"500 -10 LINE"
);
}
);
width = 727;
}
);
leftKerningGroup = H;
leftMetricsKey = H;
rightKerningGroup = N;
unicode = 004E;
},
{
glyphname = Nacute;
layers = (
{
background = {
paths = (
{
closed = 1;
nodes = (
"583 0 LINE",
"583 559 LINE",
"664 578 LINE",
"664 611 LINE",
"442 611 LINE",
"442 578 LINE",
"527 559 LINE",
"527 130 LINE",
"182 611 LINE",
"34 611 LINE",
"34 578 LINE",
"114 559 LINE",
"114 53 LINE",
"34 33 LINE",
"34 0 LINE",
"258 0 LINE",
"258 33 LINE",
"172 53 LINE",
"172 488 LINE",
"521 -10 LINE"
);
},
{
closed = 1;
nodes = (
"480 753 LINE",
"480 771 LINE",
"404 799 LINE",
"250 669 LINE",
"266 650 LINE"
);
}
);
};
components = (
{
name = N;
},
{
name = acutecomb.case;
transform = "{1, 0, 0, 1, 268, 0}";
}
);
layerId = "C2E97133-8774-4C1F-A96F-338CBADF7D3D";
width = 694;
},
{
background = {
paths = (
{
closed = 1;
nodes = (
"619 0 LINE",
"619 546 LINE",
"704 569 LINE",
"704 614 LINE",
"461 614 LINE",
"461 569 LINE",
"546 546 LINE",
"546 163 LINE",
"241 614 LINE",
"35 614 LINE",
"35 569 LINE",
"120 546 LINE",
"120 69 LINE",
"36 45 LINE",
"36 0 LINE",
"274 0 LINE",
"274 45 LINE",
"189 69 LINE",
"189 456 LINE",
"507 -10 LINE"
);
},
{
closed = 1;
nodes = (
"526 743 LINE",
"526 766 LINE",
"427 800 LINE",
"271 669 LINE",
"298 634 LINE"
);
}
);
};
components = (
{
name = N;
},
{
name = acutecomb.case;
transform = "{1, 0, 0, 1, 270, 0}";
}
);
layerId = "320D1F10-23EA-4160-876F-9C954522C215";
width = 719;
},
{
background = {
paths = (
{
closed = 1;
nodes = (
"574 0 LINE",
"574 562 LINE",
"655 580 LINE",
"655 610 LINE",
"438 610 LINE",
"438 580 LINE",
"523 562 LINE",
"523 122 LINE",
"169 610 LINE",
"34 610 LINE",
"34 580 LINE",
"114 562 LINE",
"114 49 LINE",
"34 30 LINE",
"34 0 LINE",
"255 0 LINE",
"255 30 LINE",
"167 49 LINE",
"167 495 LINE",
"524 -10 LINE"
);
},
{
closed = 1;
nodes = (
"469 756 LINE",
"469 772 LINE",
"398 799 LINE",
"245 669 LINE",
"258 654 LINE"
);
}
);
};
components = (
{
name = N;
},
{
name = acutecomb.case;
transform = "{1, 0, 0, 1, 267, 0}";
}
);
layerId = "5f75e36f-2d9b-434e-b133-1931d65175c8";
width = 688;
},
{
background = {
paths = (
{
closed = 1;
nodes = (
"631 0 LINE",
"631 542 LINE",
"718 566 LINE",
"718 615 LINE",
"468 615 LINE",
"468 566 LINE",
"553 542 LINE",
"553 174 LINE",
"261 615 LINE",
"35 615 LINE",
"35 566 LINE",
"122 542 LINE",
"122 75 LINE",
"37 49 LINE",
"37 0 LINE",
"280 0 LINE",
"280 49 LINE",
"195 75 LINE",
"195 445 LINE",
"502 -10 LINE"
);
},
{
closed = 1;
nodes = (
"542 740 LINE",
"542 764 LINE",
"435 800 LINE",
"278 669 LINE",
"309 628 LINE"
);
}
);
};
components = (
{
name = N;
},
{
name = acutecomb.case;
transform = "{1, 0, 0, 1, 269, 0}";
}
);
layerId = "13e4c948-4684-4dcc-833a-03da9e1ebe8a";
width = 727;
}
);
leftKerningGroup = H;
rightKerningGroup = N;
unicode = 0143;
},
{
glyphname = Ncaron;
layers = (
{
background = {
paths = (
{
closed = 1;
nodes = (
"442 578 LINE",
"527 559 LINE",
"527 130 LINE",
"182 611 LINE",
"34 611 LINE",
"34 578 LINE",
"114 559 LINE",
"114 53 LINE",
"34 33 LINE",
"34 0 LINE",
"258 0 LINE",
"258 33 LINE",
"172 53 LINE",
"172 488 LINE",
"521 -10 LINE",
"583 0 LINE",
"583 559 LINE",
"664 578 LINE",
"664 611 LINE",
"442 611 LINE"
);
},
{
closed = 1;
nodes = (
"222 782 LINE",
"324 651 LINE",
"384 651 LINE",
"484 782 LINE",
"466 800 LINE",
"355 718 LINE",
"239 800 LINE"
);
}
);
};
components = (
{
name = N;
},
{
name = caroncomb.case;
transform = "{1, 0, 0, 1, 227, 0}";
}
);
layerId = "C2E97133-8774-4C1F-A96F-338CBADF7D3D";
width = 694;
},
{
background = {
paths = (
{
closed = 1;
nodes = (
"461 569 LINE",
"546 546 LINE",
"546 163 LINE",
"241 614 LINE",
"35 614 LINE",
"35 569 LINE",
"120 546 LINE",
"120 69 LINE",
"36 45 LINE",
"36 0 LINE",
"274 0 LINE",
"274 45 LINE",
"189 69 LINE",
"189 456 LINE",
"507 -10 LINE",
"619 0 LINE",
"619 546 LINE",
"704 569 LINE",
"704 614 LINE",
"461 614 LINE"
);
},
{
closed = 1;
nodes = (
"498 800 LINE",
"369 723 LINE",
"243 800 LINE",
"217 775 LINE",
"327 641 LINE",
"412 641 LINE",
"521 775 LINE"
);
}
);
};
components = (
{
name = N;
},
{
name = caroncomb.case;
transform = "{1, 0, 0, 1, 223, 0}";
}
);
layerId = "320D1F10-23EA-4160-876F-9C954522C215";
width = 719;
},
{
components = (
{
name = N;
},
{
name = caroncomb.case;
transform = "{1, 0, 0, 1, 230, 0}";
}
);
layerId = "5f75e36f-2d9b-434e-b133-1931d65175c8";
width = 688;
},
{
background = {
paths = (
{
closed = 1;
nodes = (
"631 0 LINE",
"631 542 LINE",
"718 566 LINE",
"718 615 LINE",
"468 615 LINE",
"468 566 LINE",
"553 542 LINE",
"553 174 LINE",
"261 615 LINE",
"35 615 LINE",
"35 566 LINE",
"122 542 LINE",
"122 75 LINE",
"37 49 LINE",
"37 0 LINE",
"280 0 LINE",
"280 49 LINE",
"195 75 LINE",
"195 445 LINE",
"502 -10 LINE"
);
},
{
closed = 1;
nodes = (
"422 638 LINE",
"534 773 LINE",
"509 800 LINE",
"374 725 LINE",
"244 800 LINE",
"215 773 LINE",
"328 638 LINE"
);
}
);
};
components = (
{
name = N;
},
{
name = caroncomb.case;
transform = "{1, 0, 0, 1, 220, 0}";
}
);
layerId = "13e4c948-4684-4dcc-833a-03da9e1ebe8a";
width = 727;
}
);
leftKerningGroup = H;
rightKerningGroup = N;
unicode = 0147;
},
{
glyphname = Ncommaaccent;
layers = (
{
background = {
paths = (
{
closed = 1;
nodes = (
"407 -42 LINE",
"393 -28 LINE",
"323 -43 LINE",
"309 -221 LINE",
"342 -221 LINE"
);
},
{
closed = 1;
nodes = (
"442 578 LINE",
"527 559 LINE",
"527 130 LINE",
"182 611 LINE",
"34 611 LINE",
"34 578 LINE",
"114 559 LINE",
"114 53 LINE",
"34 33 LINE",
"34 0 LINE",
"258 0 LINE",
"258 33 LINE",
"172 53 LINE",
"172 488 LINE",
"521 -10 LINE",
"583 0 LINE",
"583 559 LINE",
"664 578 LINE",
"664 611 LINE",
"442 611 LINE"
);
}
);
};
components = (
{
name = N;
},
{
name = commaaccentcomb.case;
transform = "{1, 0, 0, 1, 315, 0}";
}
);
layerId = "C2E97133-8774-4C1F-A96F-338CBADF7D3D";
width = 694;
},
{
background = {
paths = (
{
closed = 1;
nodes = (
"461 569 LINE",
"546 546 LINE",
"546 163 LINE",
"241 614 LINE",
"35 614 LINE",
"35 569 LINE",
"120 546 LINE",
"120 69 LINE",
"36 45 LINE",
"36 0 LINE",
"274 0 LINE",
"274 45 LINE",
"189 69 LINE",
"189 456 LINE",
"507 -10 LINE",
"619 0 LINE",
"619 546 LINE",
"704 569 LINE",
"704 614 LINE",
"461 614 LINE"
);
},
{
closed = 1;
nodes = (
"437 -48 LINE",
"412 -24 LINE",
"322 -44 LINE",
"313 -229 LINE",
"357 -236 LINE"
);
}
);
};
components = (
{
name = N;
},
{
name = commaaccentcomb.case;
transform = "{1, 0, 0, 1, 313, 0}";
}
);
layerId = "320D1F10-23EA-4160-876F-9C954522C215";
width = 719;
},
{
components = (
{
name = N;
},
{
name = commaaccentcomb.case;
transform = "{1, 0, 0, 1, 315, 0}";
}
);
layerId = "5f75e36f-2d9b-434e-b133-1931d65175c8";
width = 688;
},
{
components = (
{
name = N;
},
{
name = commaaccentcomb.case;
transform = "{1, 0, 0, 1, 312, 0}";
}
);
layerId = "13e4c948-4684-4dcc-833a-03da9e1ebe8a";
width = 727;
}
);
leftKerningGroup = H;
rightKerningGroup = N;
unicode = 0145;
},
{
glyphname = Eng;
layers = (
{
background = {
paths = (
{
closed = 1;
nodes = (
"539 -167 OFFCURVE",
"587 -113 OFFCURVE",
"587 57 CURVE SMOOTH",
"587 559 LINE",
"668 578 LINE",
"668 611 LINE",
"446 611 LINE",
"446 578 LINE",
"531 559 LINE",
"531 130 LINE",
"186 611 LINE",
"38 611 LINE",
"38 578 LINE",
"118 559 LINE",
"118 53 LINE",
"38 33 LINE",
"38 0 LINE",
"262 0 LINE",
"262 33 LINE",
"176 53 LINE",
"176 488 LINE",
"503 21 LINE",
"503 -20 LINE SMOOTH",
"503 -59 OFFCURVE",
"487 -113 OFFCURVE",
"434 -113 CURVE SMOOTH",
"388 -113 LINE",
"383 -144 LINE",
"416 -161 OFFCURVE",
"448 -167 OFFCURVE",
"464 -167 CURVE SMOOTH"
);
}
);
};
layerId = "C2E97133-8774-4C1F-A96F-338CBADF7D3D";
paths = (
{
closed = 1;
nodes = (
"539 -167 OFFCURVE",
"587 -113 OFFCURVE",
"587 57 CURVE SMOOTH",
"587 559 LINE",
"668 578 LINE",
"668 611 LINE",
"446 611 LINE",
"446 578 LINE",
"531 559 LINE",
"531 130 LINE",
"186 611 LINE",
"38 611 LINE",
"38 578 LINE",
"118 559 LINE",
"118 53 LINE",
"38 33 LINE",
"38 0 LINE",
"262 0 LINE",
"262 33 LINE",
"176 53 LINE",
"176 488 LINE",
"503 21 LINE",
"503 -20 LINE SMOOTH",
"503 -59 OFFCURVE",
"487 -113 OFFCURVE",
"434 -113 CURVE SMOOTH",
"388 -113 LINE",
"383 -144 LINE",
"416 -161 OFFCURVE",
"448 -167 OFFCURVE",
"464 -167 CURVE SMOOTH"
);
}
);
width = 694;
},
{
background = {
paths = (
{
closed = 1;
nodes = (
"541 -168 OFFCURVE",
"619 -114 OFFCURVE",
"619 56 CURVE SMOOTH",
"619 546 LINE",
"704 569 LINE",
"704 614 LINE",
"461 614 LINE",
"461 569 LINE",
"546 546 LINE",
"546 163 LINE",
"241 614 LINE",
"35 614 LINE",
"35 569 LINE",
"120 546 LINE",
"120 69 LINE",
"36 45 LINE",
"36 0 LINE",
"274 0 LINE",
"274 45 LINE",
"189 69 LINE",
"189 456 LINE",
"484 24 LINE",
"484 -19 LINE SMOOTH",
"484 -52 OFFCURVE",
"464 -92 OFFCURVE",
"411 -92 CURVE SMOOTH",
"366 -92 LINE",
"360 -139 LINE",
"402 -159 OFFCURVE",
"447 -168 OFFCURVE",
"470 -168 CURVE SMOOTH"
);
}
);
};
layerId = "320D1F10-23EA-4160-876F-9C954522C215";
paths = (
{
closed = 1;
nodes = (
"541 -168 OFFCURVE",
"619 -114 OFFCURVE",
"619 56 CURVE SMOOTH",
"619 546 LINE",
"704 569 LINE",
"704 614 LINE",
"461 614 LINE",
"461 569 LINE",
"546 546 LINE",
"546 163 LINE",
"241 614 LINE",
"35 614 LINE",
"35 569 LINE",
"120 546 LINE",
"120 69 LINE",
"36 45 LINE",
"36 0 LINE",
"274 0 LINE",
"274 45 LINE",
"189 69 LINE",
"189 456 LINE",
"484 24 LINE",
"484 -19 LINE SMOOTH",
"484 -52 OFFCURVE",
"464 -92 OFFCURVE",
"411 -92 CURVE SMOOTH",
"366 -92 LINE",
"360 -139 LINE",
"402 -159 OFFCURVE",
"447 -168 OFFCURVE",
"470 -168 CURVE SMOOTH"
);
}
);
width = 719;
},
{
layerId = "5f75e36f-2d9b-434e-b133-1931d65175c8";
paths = (
{
closed = 1;
nodes = (
"539 -167 OFFCURVE",
"578 -113 OFFCURVE",
"578 57 CURVE SMOOTH",
"578 562 LINE",
"660 580 LINE",
"660 610 LINE",
"442 610 LINE",
"442 580 LINE",
"527 562 LINE",
"527 122 LINE",
"173 610 LINE",
"39 610 LINE",
"39 580 LINE",
"118 562 LINE",
"118 49 LINE",
"39 30 LINE",
"39 0 LINE",
"260 0 LINE",
"260 30 LINE",
"171 49 LINE",
"171 495 LINE",
"508 19 LINE",
"508 -20 LINE SMOOTH",
"508 -61 OFFCURVE",
"493 -118 OFFCURVE",
"440 -118 CURVE SMOOTH",
"394 -118 LINE",
"389 -145 LINE",
"420 -162 OFFCURVE",
"449 -167 OFFCURVE",
"463 -167 CURVE SMOOTH"
);
}
);
width = 688;
},
{
layerId = "13e4c948-4684-4dcc-833a-03da9e1ebe8a";
paths = (
{
closed = 1;
nodes = (
"541 -168 OFFCURVE",
"630 -114 OFFCURVE",
"630 56 CURVE SMOOTH",
"630 542 LINE",
"716 566 LINE",
"716 615 LINE",
"466 615 LINE",
"466 566 LINE",
"551 542 LINE",
"551 174 LINE",
"260 615 LINE",
"34 615 LINE",
"34 566 LINE",
"120 542 LINE",
"120 75 LINE",
"35 49 LINE",
"35 0 LINE",
"278 0 LINE",
"278 49 LINE",
"193 75 LINE",
"193 445 LINE",
"477 25 LINE",
"477 -19 LINE SMOOTH",
"477 -50 OFFCURVE",
"456 -85 OFFCURVE",
"403 -85 CURVE SMOOTH",
"358 -85 LINE",
"352 -137 LINE",
"397 -158 OFFCURVE",
"446 -168 OFFCURVE",
"472 -168 CURVE SMOOTH"
);
}
);
width = 727;
}
);
leftKerningGroup = H;
leftMetricsKey = H;
rightKerningGroup = N;
rightMetricsKey = N;
unicode = 014A;
},
{
glyphname = Nhookleft;
layers = (
{
anchors = (
{
name = bottom;
position = "{346, 0}";
},
{
name = top;
position = "{346, 611}";
}
);
background = {
anchors = (
{
name = bottom;
position = "{291, 0}";
},
{
name = top;
position = "{149, 491}";
}
);
paths = (
{
closed = 1;
nodes = (
"116 430 LINE",
"116 -20 LINE SMOOTH",
"116 -59 OFFCURVE",
"100 -113 OFFCURVE",
"47 -113 CURVE SMOOTH",
"1 -113 LINE",
"-4 -144 LINE",
"29 -161 OFFCURVE",
"60 -167 OFFCURVE",
"80 -167 CURVE SMOOTH",
"132 -167 OFFCURVE",
"174 -127 OFFCURVE",
"174 -3 CURVE SMOOTH",
"174 500 LINE",
"147 500 LINE"
);
}
);
};
layerId = "C2E97133-8774-4C1F-A96F-338CBADF7D3D";
paths = (
{
closed = 1;
nodes = (
"132 -167 OFFCURVE",
"174 -125 OFFCURVE",
"174 7 CURVE SMOOTH",
"174 488 LINE",
"523 -10 LINE",
"585 0 LINE",
"585 559 LINE",
"666 578 LINE",
"666 611 LINE",
"444 611 LINE",
"444 578 LINE",
"529 559 LINE",
"529 130 LINE",
"184 611 LINE",
"36 611 LINE",
"36 578 LINE",
"116 559 LINE",
"116 -20 LINE SMOOTH",
"116 -59 OFFCURVE",
"100 -113 OFFCURVE",
"47 -113 CURVE SMOOTH",
"1 -113 LINE",
"-4 -144 LINE",
"29 -161 OFFCURVE",
"60 -167 OFFCURVE",
"80 -167 CURVE SMOOTH"
);
}
);
width = 692;
},
{
anchors = (
{
name = bottom;
position = "{360, 0}";
},
{
name = top;
position = "{360, 614}";
}
);
background = {
anchors = (
{
name = bottom;
position = "{326, 0}";
},
{
name = top;
position = "{165, 492}";
}
);
paths = (
{
closed = 1;
nodes = (
"120 404 LINE",
"120 -19 LINE SMOOTH",
"120 -52 OFFCURVE",
"100 -92 OFFCURVE",
"47 -92 CURVE SMOOTH",
"2 -92 LINE",
"-4 -139 LINE",
"30 -159 OFFCURVE",
"66 -168 OFFCURVE",
"88 -168 CURVE SMOOTH",
"134 -168 OFFCURVE",
"189 -126 OFFCURVE",
"189 6 CURVE SMOOTH",
"189 404 LINE"
);
}
);
};
layerId = "320D1F10-23EA-4160-876F-9C954522C215";
paths = (
{
closed = 1;
nodes = (
"134 -168 OFFCURVE",
"189 -126 OFFCURVE",
"189 6 CURVE SMOOTH",
"189 456 LINE",
"507 -10 LINE",
"619 0 LINE",
"619 546 LINE",
"704 569 LINE",
"704 614 LINE",
"461 614 LINE",
"461 569 LINE",
"546 546 LINE",
"546 163 LINE",
"241 614 LINE",
"35 614 LINE",
"35 569 LINE",
"120 546 LINE",
"120 -19 LINE SMOOTH",
"120 -52 OFFCURVE",
"100 -92 OFFCURVE",
"47 -92 CURVE SMOOTH",
"2 -92 LINE",
"-4 -139 LINE",
"30 -159 OFFCURVE",
"66 -168 OFFCURVE",
"88 -168 CURVE SMOOTH"
);
}
);
width = 719;
},
{
anchors = (
{
name = bottom;
position = "{343, 0}";
},
{
name = top;
position = "{343, 610}";
}
);
layerId = "5f75e36f-2d9b-434e-b133-1931d65175c8";
paths = (
{
closed = 1;
nodes = (
"132 -167 OFFCURVE",
"169 -125 OFFCURVE",
"169 7 CURVE SMOOTH",
"169 496 LINE",
"527 -10 LINE",
"577 0 LINE",
"577 562 LINE",
"657 580 LINE",
"657 610 LINE",
"440 610 LINE",
"440 580 LINE",
"525 562 LINE",
"525 122 LINE",
"170 610 LINE",
"36 610 LINE",
"36 580 LINE",
"116 562 LINE",
"116 -20 LINE SMOOTH",
"116 -61 OFFCURVE",
"100 -118 OFFCURVE",
"47 -118 CURVE SMOOTH",
"1 -118 LINE",
"-4 -145 LINE",
"29 -162 OFFCURVE",
"59 -167 OFFCURVE",
"78 -167 CURVE SMOOTH"
);
}
);
width = 685;
},
{
anchors = (
{
name = bottom;
position = "{365, 0}";
},
{
name = top;
position = "{365, 615}";
}
);
layerId = "13e4c948-4684-4dcc-833a-03da9e1ebe8a";
paths = (
{
closed = 1;
nodes = (
"135 -168 OFFCURVE",
"194 -126 OFFCURVE",
"194 6 CURVE SMOOTH",
"194 445 LINE",
"501 -10 LINE",
"631 0 LINE",
"631 542 LINE",
"717 566 LINE",
"717 615 LINE",
"467 615 LINE",
"467 566 LINE",
"552 542 LINE",
"552 174 LINE",
"261 615 LINE",
"35 615 LINE",
"35 566 LINE",
"121 542 LINE",
"121 -19 LINE SMOOTH",
"121 -50 OFFCURVE",
"100 -85 OFFCURVE",
"47 -85 CURVE SMOOTH",
"2 -85 LINE",
"-4 -137 LINE",
"30 -158 OFFCURVE",
"68 -168 OFFCURVE",
"91 -168 CURVE SMOOTH"
);
}
);
width = 728;
}
);
leftKerningGroup = H;
rightKerningGroup = N;
rightMetricsKey = N;
unicode = 019D;
},
{
glyphname = Ntilde;
layers = (
{
background = {
paths = (
{
closed = 1;
nodes = (
"442 578 LINE",
"527 559 LINE",
"527 130 LINE",
"182 611 LINE",
"34 611 LINE",
"34 578 LINE",
"114 559 LINE",
"114 53 LINE",
"34 33 LINE",
"34 0 LINE",
"258 0 LINE",
"258 33 LINE",
"172 53 LINE",
"172 488 LINE",
"521 -10 LINE",
"583 0 LINE",
"583 559 LINE",
"664 578 LINE",
"664 611 LINE",
"442 611 LINE"
);
},
{
closed = 1;
nodes = (
"470 774 LINE",
"470 774 OFFCURVE",
"450 739 OFFCURVE",
"427 739 CURVE SMOOTH",
"392 739 OFFCURVE",
"319 779 OFFCURVE",
"285 779 CURVE SMOOTH",
"252 779 OFFCURVE",
"232 737 OFFCURVE",
"211 685 CURVE",
"241 673 LINE",
"241 673 OFFCURVE",
"264 709 OFFCURVE",
"286 709 CURVE SMOOTH",
"319 709 OFFCURVE",
"394 669 OFFCURVE",
"428 669 CURVE SMOOTH",
"460 669 OFFCURVE",
"480 711 OFFCURVE",
"501 762 CURVE"
);
}
);
};
components = (
{
name = N;
},
{
name = tildecomb.case;
transform = "{1, 0, 0, 1, 213, 0}";
}
);
layerId = "C2E97133-8774-4C1F-A96F-338CBADF7D3D";
width = 694;
},
{
background = {
paths = (
{
closed = 1;
nodes = (
"461 569 LINE",
"546 546 LINE",
"546 163 LINE",
"241 614 LINE",
"35 614 LINE",
"35 569 LINE",
"120 546 LINE",
"120 69 LINE",
"36 45 LINE",
"36 0 LINE",
"274 0 LINE",
"274 45 LINE",
"189 69 LINE",
"189 456 LINE",
"507 -10 LINE",
"619 0 LINE",
"619 546 LINE",
"704 569 LINE",
"704 614 LINE",
"461 614 LINE"
);
},
{
closed = 1;
nodes = (
"503 784 LINE",
"503 784 OFFCURVE",
"486 753 OFFCURVE",
"461 753 CURVE SMOOTH",
"422 753 OFFCURVE",
"334 790 OFFCURVE",
"285 790 CURVE SMOOTH",
"252 790 OFFCURVE",
"218 744 OFFCURVE",
"198 686 CURVE",
"245 667 LINE",
"245 667 OFFCURVE",
"261 698 OFFCURVE",
"285 698 CURVE SMOOTH",
"323 698 OFFCURVE",
"412 661 OFFCURVE",
"461 661 CURVE SMOOTH",
"495 661 OFFCURVE",
"523 707 OFFCURVE",
"547 765 CURVE"
);
}
);
};
components = (
{
name = N;
},
{
name = tildecomb.case;
transform = "{1, 0, 0, 1, 201, 0}";
}
);
layerId = "320D1F10-23EA-4160-876F-9C954522C215";
width = 719;
},
{
components = (
{
name = N;
},
{
name = tildecomb.case;
transform = "{1, 0, 0, 1, 218, 0}";
}
);
layerId = "5f75e36f-2d9b-434e-b133-1931d65175c8";
width = 688;
},
{
components = (
{
name = N;
},
{
name = tildecomb.case;
transform = "{1, 0, 0, 1, 194, 0}";
}
);
layerId = "13e4c948-4684-4dcc-833a-03da9e1ebe8a";
width = 727;
}
);
leftKerningGroup = H;
rightKerningGroup = N;
unicode = 00D1;
},
{
glyphname = O;
layers = (
{
anchors = (
{
name = bottom;
position = "{329, 0}";
},
{
name = center;
position = "{329, 306}";
},
{
name = ogonek;
position = "{413, 0}";
},
{
name = top;
position = "{329, 611}";
},
{
name = topleft;
position = "{20, 611}";
},
{
name = topright;
position = "{598, 651}";
}
);
background = {
paths = (
{
closed = 1;
nodes = (
"122 626 OFFCURVE",
"41 482 OFFCURVE",
"41 308 CURVE SMOOTH",
"41 134 OFFCURVE",
"124 -9 OFFCURVE",
"330 -9 CURVE SMOOTH",
"536 -9 OFFCURVE",
"617 134 OFFCURVE",
"617 308 CURVE SMOOTH",
"617 482 OFFCURVE",
"538 626 OFFCURVE",
"330 626 CURVE SMOOTH"
);
},
{
closed = 1;
nodes = (
"527 197 OFFCURVE",
"497 39 OFFCURVE",
"333 39 CURVE SMOOTH",
"167 39 OFFCURVE",
"131 197 OFFCURVE",
"131 308 CURVE SMOOTH",
"131 421 OFFCURVE",
"163 578 OFFCURVE",
"324 578 CURVE SMOOTH",
"491 578 OFFCURVE",
"527 421 OFFCURVE",
"527 308 CURVE SMOOTH"
);
}
);
};
layerId = "C2E97133-8774-4C1F-A96F-338CBADF7D3D";
paths = (
{
closed = 1;
nodes = (
"536 -9 OFFCURVE",
"617 134 OFFCURVE",
"617 308 CURVE SMOOTH",
"617 482 OFFCURVE",
"538 626 OFFCURVE",
"330 626 CURVE SMOOTH",
"122 626 OFFCURVE",
"41 482 OFFCURVE",
"41 308 CURVE SMOOTH",
"41 134 OFFCURVE",
"124 -9 OFFCURVE",
"330 -9 CURVE SMOOTH"
);
},
{
closed = 1;
nodes = (
"167 39 OFFCURVE",
"131 197 OFFCURVE",
"131 308 CURVE SMOOTH",
"131 421 OFFCURVE",
"163 578 OFFCURVE",
"324 578 CURVE SMOOTH",
"491 578 OFFCURVE",
"527 421 OFFCURVE",
"527 308 CURVE SMOOTH",
"527 197 OFFCURVE",
"497 39 OFFCURVE",
"333 39 CURVE SMOOTH"
);
}
);
width = 658;
},
{
anchors = (
{
name = bottom;
position = "{332, 0}";
},
{
name = center;
position = "{332, 307}";
},
{
name = ogonek;
position = "{420, 0}";
},
{
name = top;
position = "{332, 614}";
},
{
name = topleft;
position = "{20, 614}";
},
{
name = topright;
position = "{611, 654}";
}
);
background = {
paths = (
{
closed = 1;
nodes = (
"117 628 OFFCURVE",
"30 484 OFFCURVE",
"30 311 CURVE SMOOTH",
"30 136 OFFCURVE",
"120 -9 OFFCURVE",
"333 -9 CURVE SMOOTH",
"549 -9 OFFCURVE",
"633 136 OFFCURVE",
"633 311 CURVE SMOOTH",
"633 484 OFFCURVE",
"551 628 OFFCURVE",
"333 628 CURVE SMOOTH"
);
},
{
closed = 1;
nodes = (
"488 207 OFFCURVE",
"471 62 OFFCURVE",
"337 62 CURVE SMOOTH",
"198 62 OFFCURVE",
"175 201 OFFCURVE",
"175 311 CURVE SMOOTH",
"175 412 OFFCURVE",
"194 558 OFFCURVE",
"327 558 CURVE SMOOTH",
"466 558 OFFCURVE",
"488 412 OFFCURVE",
"488 311 CURVE SMOOTH"
);
}
);
};
layerId = "320D1F10-23EA-4160-876F-9C954522C215";
paths = (
{
closed = 1;
nodes = (
"549 -9 OFFCURVE",
"633 136 OFFCURVE",
"633 311 CURVE SMOOTH",
"633 484 OFFCURVE",
"551 628 OFFCURVE",
"333 628 CURVE SMOOTH",
"117 628 OFFCURVE",
"30 484 OFFCURVE",
"30 311 CURVE SMOOTH",
"30 136 OFFCURVE",
"120 -9 OFFCURVE",
"333 -9 CURVE SMOOTH"
);
},
{
closed = 1;
nodes = (
"198 61 OFFCURVE",
"175 201 OFFCURVE",
"175 311 CURVE SMOOTH",
"175 412 OFFCURVE",
"194 558 OFFCURVE",
"327 558 CURVE SMOOTH",
"466 558 OFFCURVE",
"488 412 OFFCURVE",
"488 311 CURVE SMOOTH",
"488 207 OFFCURVE",
"471 61 OFFCURVE",
"337 61 CURVE SMOOTH"
);
}
);
width = 663;
},
{
anchors = (
{
name = bottom;
position = "{328, 0}";
},
{
name = center;
position = "{328, 306}";
},
{
name = ogonek;
position = "{411, 0}";
},
{
name = top;
position = "{328, 610}";
},
{
name = topleft;
position = "{20, 610}";
},
{
name = topright;
position = "{595, 650}";
}
);
layerId = "5f75e36f-2d9b-434e-b133-1931d65175c8";
paths = (
{
closed = 1;
nodes = (
"533 -9 OFFCURVE",
"613 134 OFFCURVE",
"613 307 CURVE SMOOTH",
"613 482 OFFCURVE",
"535 626 OFFCURVE",
"329 626 CURVE SMOOTH",
"123 626 OFFCURVE",
"44 482 OFFCURVE",
"44 307 CURVE SMOOTH",
"44 134 OFFCURVE",
"125 -9 OFFCURVE",
"329 -9 CURVE SMOOTH"
);
},
{
closed = 1;
nodes = (
"159 34 OFFCURVE",
"120 196 OFFCURVE",
"120 307 CURVE SMOOTH",
"120 423 OFFCURVE",
"155 583 OFFCURVE",
"323 583 CURVE SMOOTH",
"497 583 OFFCURVE",
"537 423 OFFCURVE",
"537 307 CURVE SMOOTH",
"537 195 OFFCURVE",
"504 34 OFFCURVE",
"332 34 CURVE SMOOTH"
);
}
);
width = 657;
},
{
anchors = (
{
name = bottom;
position = "{333, 0}";
},
{
name = center;
position = "{333, 307}";
},
{
name = ogonek;
position = "{422, 0}";
},
{
name = top;
position = "{333, 615}";
},
{
name = topleft;
position = "{20, 615}";
},
{
name = topright;
position = "{616, 655}";
}
);
layerId = "13e4c948-4684-4dcc-833a-03da9e1ebe8a";
paths = (
{
closed = 1;
nodes = (
"554 -9 OFFCURVE",
"639 137 OFFCURVE",
"639 312 CURVE SMOOTH",
"639 485 OFFCURVE",
"556 629 OFFCURVE",
"334 629 CURVE SMOOTH",
"115 629 OFFCURVE",
"26 485 OFFCURVE",
"26 312 CURVE SMOOTH",
"26 137 OFFCURVE",
"119 -9 OFFCURVE",
"334 -9 CURVE SMOOTH"
);
},
{
closed = 1;
nodes = (
"209 69 OFFCURVE",
"190 202 OFFCURVE",
"190 312 CURVE SMOOTH",
"190 409 OFFCURVE",
"205 551 OFFCURVE",
"328 551 CURVE SMOOTH",
"457 551 OFFCURVE",
"475 409 OFFCURVE",
"475 312 CURVE SMOOTH",
"475 210 OFFCURVE",
"462 69 OFFCURVE",
"338 69 CURVE SMOOTH"
);
}
);
width = 665;
}
);
leftKerningGroup = O;
rightKerningGroup = O;
unicode = 004F;
},
{
glyphname = Oogonek;
layers = (
{
background = {
components = (
{
name = ogonekcomb.case;
transform = "{1, 0, 0, 1, 244, 0}";
}
);
};
components = (
{
name = O;
}
);
layerId = "C2E97133-8774-4C1F-A96F-338CBADF7D3D";
paths = (
{
closed = 1;
nodes = (
"537 -195 OFFCURVE",
"567 -145 OFFCURVE",
"567 -145 CURVE",
"551 -129 LINE",
"535 -145 OFFCURVE",
"517 -151 OFFCURVE",
"501 -151 CURVE SMOOTH",
"467 -151 OFFCURVE",
"446 -130 OFFCURVE",
"446 -92 CURVE SMOOTH",
"446 -39 OFFCURVE",
"471 14 OFFCURVE",
"512 46 CURVE",
"473 41 LINE",
"406 -12 OFFCURVE",
"379 -68 OFFCURVE",
"379 -110 CURVE SMOOTH",
"379 -153 OFFCURVE",
"406 -195 OFFCURVE",
"473 -195 CURVE SMOOTH"
);
}
);
width = 658;
},
{
components = (
{
name = O;
}
);
layerId = "320D1F10-23EA-4160-876F-9C954522C215";
paths = (
{
closed = 1;
nodes = (
"539 -195 OFFCURVE",
"572 -160 OFFCURVE",
"589 -133 CURVE",
"566 -111 LINE",
"546 -125 OFFCURVE",
"527 -133 OFFCURVE",
"505 -133 CURVE SMOOTH",
"472 -133 OFFCURVE",
"462 -113 OFFCURVE",
"462 -86 CURVE SMOOTH",
"462 -44 OFFCURVE",
"490 20 OFFCURVE",
"534 55 CURVE",
"468 38 LINE",
"405 -13 OFFCURVE",
"377 -69 OFFCURVE",
"377 -111 CURVE SMOOTH",
"377 -151 OFFCURVE",
"403 -195 OFFCURVE",
"475 -195 CURVE SMOOTH"
);
}
);
width = 663;
},
{
background = {
paths = (
{
closed = 1;
nodes = (
"525 -195 OFFCURVE",
"553 -161 OFFCURVE",
"562 -148 CURVE",
"547 -134 LINE",
"532 -150 OFFCURVE",
"515 -156 OFFCURVE",
"500 -156 CURVE SMOOTH",
"466 -156 OFFCURVE",
"442 -134 OFFCURVE",
"442 -94 CURVE SMOOTH",
"442 -38 OFFCURVE",
"466 13 OFFCURVE",
"507 44 CURVE",
"474 42 LINE",
"406 -12 OFFCURVE",
"380 -68 OFFCURVE",
"380 -110 CURVE SMOOTH",
"380 -154 OFFCURVE",
"407 -195 OFFCURVE",
"473 -195 CURVE SMOOTH"
);
}
);
};
components = (
{
name = O;
}
);
layerId = "5f75e36f-2d9b-434e-b133-1931d65175c8";
paths = (
{
closed = 1;
nodes = (
"525 -195 OFFCURVE",
"553 -161 OFFCURVE",
"562 -148 CURVE",
"547 -134 LINE",
"532 -150 OFFCURVE",
"515 -156 OFFCURVE",
"500 -156 CURVE SMOOTH",
"466 -156 OFFCURVE",
"442 -134 OFFCURVE",
"442 -94 CURVE SMOOTH",
"442 -38 OFFCURVE",
"466 13 OFFCURVE",
"507 44 CURVE",
"474 42 LINE",
"406 -12 OFFCURVE",
"380 -68 OFFCURVE",
"380 -110 CURVE SMOOTH",
"380 -154 OFFCURVE",
"407 -195 OFFCURVE",
"473 -195 CURVE SMOOTH"
);
}
);
width = 657;
},
{
components = (
{
name = O;
}
);
layerId = "13e4c948-4684-4dcc-833a-03da9e1ebe8a";
paths = (
{
closed = 1;
nodes = (
"540 -195 OFFCURVE",
"574 -165 OFFCURVE",
"597 -129 CURVE",
"571 -105 LINE",
"550 -118 OFFCURVE",
"530 -127 OFFCURVE",
"506 -127 CURVE SMOOTH",
"474 -127 OFFCURVE",
"468 -107 OFFCURVE",
"468 -84 CURVE SMOOTH",
"468 -46 OFFCURVE",
"497 22 OFFCURVE",
"542 58 CURVE",
"466 37 LINE",
"405 -13 OFFCURVE",
"376 -69 OFFCURVE",
"376 -111 CURVE SMOOTH",
"376 -150 OFFCURVE",
"402 -195 OFFCURVE",
"476 -195 CURVE SMOOTH"
);
}
);
width = 665;
}
);
leftKerningGroup = O;
leftMetricsKey = O;
rightKerningGroup = O;
rightMetricsKey = O;
unicode = 01EA;
},
{
glyphname = Oslash;
layers = (
{
anchors = (
{
name = top;
position = "{279, 611}";
}
);
background = {
paths = (
{
closed = 1;
nodes = (
"423 708 LINE",
"163 -96 LINE",
"224 -96 LINE",
"484 708 LINE"
);
},
{
closed = 1;
nodes = (
"122 626 OFFCURVE",
"41 482 OFFCURVE",
"41 308 CURVE SMOOTH",
"41 134 OFFCURVE",
"124 -9 OFFCURVE",
"330 -9 CURVE SMOOTH",
"536 -9 OFFCURVE",
"617 134 OFFCURVE",
"617 308 CURVE SMOOTH",
"617 482 OFFCURVE",
"538 626 OFFCURVE",
"330 626 CURVE SMOOTH"
);
},
{
closed = 1;
nodes = (
"527 197 OFFCURVE",
"497 39 OFFCURVE",
"333 39 CURVE SMOOTH",
"167 39 OFFCURVE",
"131 197 OFFCURVE",
"131 308 CURVE SMOOTH",
"131 421 OFFCURVE",
"163 578 OFFCURVE",
"324 578 CURVE SMOOTH",
"491 578 OFFCURVE",
"527 421 OFFCURVE",
"527 308 CURVE SMOOTH"
);
}
);
};
layerId = "C2E97133-8774-4C1F-A96F-338CBADF7D3D";
paths = (
{
closed = 1;
nodes = (
"224 -96 LINE",
"254 -2 LINE",
"278 -6 OFFCURVE",
"303 -9 OFFCURVE",
"330 -9 CURVE SMOOTH",
"536 -9 OFFCURVE",
"617 134 OFFCURVE",
"617 308 CURVE SMOOTH",
"617 443 OFFCURVE",
"569 560 OFFCURVE",
"451 606 CURVE",
"484 708 LINE",
"423 708 LINE",
"395 621 LINE",
"375 624 OFFCURVE",
"353 626 OFFCURVE",
"330 626 CURVE SMOOTH",
"122 626 OFFCURVE",
"41 482 OFFCURVE",
"41 308 CURVE SMOOTH",
"41 177 OFFCURVE",
"88 64 OFFCURVE",
"199 16 CURVE",
"163 -96 LINE"
);
},
{
closed = 1;
nodes = (
"149 128 OFFCURVE",
"131 230 OFFCURVE",
"131 308 CURVE SMOOTH",
"131 421 OFFCURVE",
"163 578 OFFCURVE",
"324 578 CURVE SMOOTH",
"344 578 OFFCURVE",
"362 576 OFFCURVE",
"379 572 CURVE",
"218 75 LINE"
);
},
{
closed = 1;
nodes = (
"310 39 OFFCURVE",
"289 42 OFFCURVE",
"270 48 CURVE",
"432 548 LINE",
"508 497 OFFCURVE",
"527 391 OFFCURVE",
"527 308 CURVE SMOOTH",
"527 197 OFFCURVE",
"497 39 OFFCURVE",
"333 39 CURVE SMOOTH"
);
}
);
width = 658;
},
{
anchors = (
{
name = top;
position = "{262, 614}";
}
);
background = {
paths = (
{
closed = 1;
nodes = (
"117 628 OFFCURVE",
"30 484 OFFCURVE",
"30 311 CURVE SMOOTH",
"30 187 OFFCURVE",
"74 79 OFFCURVE",
"175 26 CURVE",
"129 -94 LINE",
"210 -94 LINE",
"247 0 LINE",
"273 -6 OFFCURVE",
"301 -9 OFFCURVE",
"333 -9 CURVE SMOOTH",
"549 -9 OFFCURVE",
"633 136 OFFCURVE",
"633 311 CURVE SMOOTH",
"633 437 OFFCURVE",
"589 548 OFFCURVE",
"481 598 CURVE",
"524 708 LINE",
"440 708 LINE",
"406 622 LINE",
"384 626 OFFCURVE",
"359 628 OFFCURVE",
"333 628 CURVE SMOOTH"
);
},
{
closed = 1;
nodes = (
"488 203 OFFCURVE",
"471 54 OFFCURVE",
"337 54 CURVE SMOOTH",
"312 54 OFFCURVE",
"291 58 OFFCURVE",
"273 66 CURVE",
"444 504 LINE",
"480 451 OFFCURVE",
"488 373 OFFCURVE",
"488 311 CURVE SMOOTH"
);
},
{
closed = 1;
nodes = (
"175 416 OFFCURVE",
"194 565 OFFCURVE",
"327 565 CURVE SMOOTH",
"347 565 OFFCURVE",
"365 562 OFFCURVE",
"381 556 CURVE",
"213 122 LINE",
"182 174 OFFCURVE",
"175 247 OFFCURVE",
"175 311 CURVE SMOOTH"
);
}
);
};
layerId = "320D1F10-23EA-4160-876F-9C954522C215";
paths = (
{
closed = 1;
nodes = (
"210 -94 LINE",
"247 0 LINE",
"273 -6 OFFCURVE",
"301 -9 OFFCURVE",
"333 -9 CURVE SMOOTH",
"549 -9 OFFCURVE",
"633 136 OFFCURVE",
"633 311 CURVE SMOOTH",
"633 437 OFFCURVE",
"589 548 OFFCURVE",
"481 598 CURVE",
"524 708 LINE",
"440 708 LINE",
"406 622 LINE",
"384 626 OFFCURVE",
"359 628 OFFCURVE",
"333 628 CURVE SMOOTH",
"117 628 OFFCURVE",
"30 484 OFFCURVE",
"30 311 CURVE SMOOTH",
"30 187 OFFCURVE",
"74 79 OFFCURVE",
"175 26 CURVE",
"129 -94 LINE"
);
},
{
closed = 1;
nodes = (
"182 174 OFFCURVE",
"175 247 OFFCURVE",
"175 311 CURVE SMOOTH",
"175 416 OFFCURVE",
"194 565 OFFCURVE",
"327 565 CURVE SMOOTH",
"347 565 OFFCURVE",
"365 562 OFFCURVE",
"381 556 CURVE",
"213 122 LINE"
);
},
{
closed = 1;
nodes = (
"312 54 OFFCURVE",
"291 58 OFFCURVE",
"273 66 CURVE",
"444 504 LINE",
"480 451 OFFCURVE",
"488 373 OFFCURVE",
"488 311 CURVE SMOOTH",
"488 203 OFFCURVE",
"471 54 OFFCURVE",
"337 54 CURVE SMOOTH"
);
}
);
width = 663;
},
{
anchors = (
{
name = top;
position = "{283, 610}";
}
);
layerId = "5f75e36f-2d9b-434e-b133-1931d65175c8";
paths = (
{
closed = 1;
nodes = (
"228 -97 LINE",
"256 -3 LINE",
"279 -6 OFFCURVE",
"304 -9 OFFCURVE",
"329 -9 CURVE SMOOTH",
"533 -9 OFFCURVE",
"613 134 OFFCURVE",
"613 307 CURVE SMOOTH",
"613 445 OFFCURVE",
"564 563 OFFCURVE",
"444 608 CURVE",
"474 708 LINE",
"419 708 LINE",
"392 621 LINE",
"373 624 OFFCURVE",
"352 626 OFFCURVE",
"329 626 CURVE SMOOTH",
"123 626 OFFCURVE",
"44 482 OFFCURVE",
"44 307 CURVE SMOOTH",
"44 175 OFFCURVE",
"92 60 OFFCURVE",
"205 14 CURVE",
"172 -97 LINE"
);
},
{
closed = 1;
nodes = (
"141 117 OFFCURVE",
"120 226 OFFCURVE",
"120 307 CURVE SMOOTH",
"120 422 OFFCURVE",
"155 581 OFFCURVE",
"323 581 CURVE SMOOTH",
"343 581 OFFCURVE",
"361 580 OFFCURVE",
"379 576 CURVE",
"219 63 LINE"
);
},
{
closed = 1;
nodes = (
"310 35 OFFCURVE",
"289 38 OFFCURVE",
"269 44 CURVE",
"429 559 LINE",
"515 509 OFFCURVE",
"537 396 OFFCURVE",
"537 307 CURVE SMOOTH",
"537 196 OFFCURVE",
"504 35 OFFCURVE",
"332 35 CURVE SMOOTH"
);
}
);
width = 657;
},
{
anchors = (
{
name = top;
position = "{256, 615}";
}
);
layerId = "13e4c948-4684-4dcc-833a-03da9e1ebe8a";
paths = (
{
closed = 1;
nodes = (
"205 -93 LINE",
"245 1 LINE",
"271 -6 OFFCURVE",
"300 -9 OFFCURVE",
"334 -9 CURVE SMOOTH",
"554 -9 OFFCURVE",
"639 137 OFFCURVE",
"639 312 CURVE SMOOTH",
"639 435 OFFCURVE",
"596 544 OFFCURVE",
"491 595 CURVE",
"538 708 LINE",
"446 708 LINE",
"410 622 LINE",
"387 627 OFFCURVE",
"361 629 OFFCURVE",
"334 629 CURVE SMOOTH",
"115 629 OFFCURVE",
"26 485 OFFCURVE",
"26 312 CURVE SMOOTH",
"26 190 OFFCURVE",
"69 84 OFFCURVE",
"167 29 CURVE",
"117 -93 LINE"
);
},
{
closed = 1;
nodes = (
"193 190 OFFCURVE",
"190 253 OFFCURVE",
"190 312 CURVE SMOOTH",
"190 414 OFFCURVE",
"205 561 OFFCURVE",
"328 561 CURVE SMOOTH",
"348 561 OFFCURVE",
"366 557 OFFCURVE",
"382 550 CURVE",
"211 138 LINE"
);
},
{
closed = 1;
nodes = (
"313 59 OFFCURVE",
"292 64 OFFCURVE",
"274 72 CURVE",
"448 489 LINE",
"470 435 OFFCURVE",
"475 367 OFFCURVE",
"475 312 CURVE SMOOTH",
"475 205 OFFCURVE",
"462 59 OFFCURVE",
"338 59 CURVE SMOOTH"
);
}
);
width = 665;
}
);
leftKerningGroup = O;
rightKerningGroup = O;
unicode = 00D8;
},
{
glyphname = OE;
layers = (
{
anchors = (
{
name = top;
position = "{410, 611}";
}
);
background = {
paths = (
{
closed = 1;
nodes = (
"330 611 LINE SMOOTH",
"122 611 OFFCURVE",
"41 482 OFFCURVE",
"41 308 CURVE SMOOTH",
"41 134 OFFCURVE",
"124 0 OFFCURVE",
"330 0 CURVE SMOOTH",
"780 0 LINE",
"780 147 LINE",
"741 147 LINE",
"714 56 LINE",
"501 56 LINE",
"501 277 LINE",
"641 277 LINE",
"664 208 LINE",
"701 208 LINE",
"701 389 LINE",
"664 389 LINE",
"643 323 LINE",
"501 323 LINE",
"501 559 LINE",
"694 559 LINE",
"716 479 LINE",
"754 479 LINE",
"754 611 LINE"
);
},
{
closed = 1;
nodes = (
"418 53 LINE",
"391 47 OFFCURVE",
"361 46 OFFCURVE",
"333 46 CURVE SMOOTH",
"167 46 OFFCURVE",
"130 197 OFFCURVE",
"130 308 CURVE SMOOTH",
"130 421 OFFCURVE",
"163 566 OFFCURVE",
"324 566 CURVE SMOOTH",
"367 566 OFFCURVE",
"380 564 OFFCURVE",
"418 558 CURVE"
);
}
);
};
layerId = "C2E97133-8774-4C1F-A96F-338CBADF7D3D";
paths = (
{
closed = 1;
nodes = (
"780 0 LINE",
"780 147 LINE",
"741 147 LINE",
"714 56 LINE",
"501 56 LINE",
"501 277 LINE",
"641 277 LINE",
"664 208 LINE",
"701 208 LINE",
"701 389 LINE",
"664 389 LINE",
"643 323 LINE",
"501 323 LINE",
"501 559 LINE",
"694 559 LINE",
"716 479 LINE",
"754 479 LINE",
"754 611 LINE",
"330 611 LINE SMOOTH",
"122 611 OFFCURVE",
"41 482 OFFCURVE",
"41 308 CURVE SMOOTH",
"41 134 OFFCURVE",
"124 0 OFFCURVE",
"330 0 CURVE SMOOTH"
);
},
{
closed = 1;
nodes = (
"167 46 OFFCURVE",
"130 197 OFFCURVE",
"130 308 CURVE SMOOTH",
"130 421 OFFCURVE",
"163 566 OFFCURVE",
"324 566 CURVE SMOOTH",
"367 566 OFFCURVE",
"380 564 OFFCURVE",
"418 558 CURVE",
"418 53 LINE",
"391 47 OFFCURVE",
"361 46 OFFCURVE",
"333 46 CURVE SMOOTH"
);
}
);
width = 825;
},
{
anchors = (
{
name = top;
position = "{407, 614}";
}
);
background = {
paths = (
{
closed = 1;
nodes = (
"322 614 LINE SMOOTH",
"116 614 OFFCURVE",
"30 484 OFFCURVE",
"30 311 CURVE SMOOTH",
"30 136 OFFCURVE",
"118 0 OFFCURVE",
"323 0 CURVE SMOOTH",
"796 0 LINE",
"796 162 LINE",
"740 162 LINE",
"714 69 LINE",
"539 69 LINE",
"539 274 LINE",
"637 274 LINE",
"656 205 LINE",
"709 205 LINE",
"709 396 LINE",
"656 396 LINE",
"639 330 LINE",
"539 330 LINE",
"539 546 LINE",
"698 546 LINE",
"720 468 LINE",
"776 468 LINE",
"776 614 LINE"
);
},
{
closed = 1;
nodes = (
"407 69 LINE",
"387 61 OFFCURVE",
"362 54 OFFCURVE",
"327 54 CURVE SMOOTH",
"196 54 OFFCURVE",
"173 197 OFFCURVE",
"173 311 CURVE SMOOTH",
"173 416 OFFCURVE",
"192 560 OFFCURVE",
"317 560 CURVE SMOOTH",
"347 560 OFFCURVE",
"381 555 OFFCURVE",
"407 546 CURVE"
);
}
);
};
layerId = "320D1F10-23EA-4160-876F-9C954522C215";
paths = (
{
closed = 1;
nodes = (
"796 0 LINE",
"796 162 LINE",
"740 162 LINE",
"714 69 LINE",
"539 69 LINE",
"539 274 LINE",
"637 274 LINE",
"656 205 LINE",
"709 205 LINE",
"709 396 LINE",
"656 396 LINE",
"639 330 LINE",
"539 330 LINE",
"539 546 LINE",
"698 546 LINE",
"720 468 LINE",
"776 468 LINE",
"776 614 LINE",
"322 614 LINE SMOOTH",
"116 614 OFFCURVE",
"30 484 OFFCURVE",
"30 311 CURVE SMOOTH",
"30 136 OFFCURVE",
"118 0 OFFCURVE",
"323 0 CURVE SMOOTH"
);
},
{
closed = 1;
nodes = (
"196 54 OFFCURVE",
"173 197 OFFCURVE",
"173 311 CURVE SMOOTH",
"173 416 OFFCURVE",
"192 560 OFFCURVE",
"317 560 CURVE SMOOTH",
"347 560 OFFCURVE",
"381 555 OFFCURVE",
"407 546 CURVE",
"407 69 LINE",
"387 61 OFFCURVE",
"362 54 OFFCURVE",
"327 54 CURVE SMOOTH"
);
}
);
width = 823;
},
{
anchors = (
{
name = top;
position = "{411, 610}";
}
);
layerId = "5f75e36f-2d9b-434e-b133-1931d65175c8";
paths = (
{
closed = 1;
nodes = (
"776 0 LINE",
"776 143 LINE",
"741 143 LINE",
"714 53 LINE",
"492 53 LINE",
"492 278 LINE",
"642 278 LINE",
"666 209 LINE",
"699 209 LINE",
"699 387 LINE",
"666 387 LINE",
"644 321 LINE",
"492 321 LINE",
"492 562 LINE",
"693 562 LINE",
"715 482 LINE",
"749 482 LINE",
"749 610 LINE",
"332 610 LINE SMOOTH",
"124 610 OFFCURVE",
"44 482 OFFCURVE",
"44 307 CURVE SMOOTH",
"44 134 OFFCURVE",
"126 0 OFFCURVE",
"332 0 CURVE SMOOTH"
);
},
{
closed = 1;
nodes = (
"160 44 OFFCURVE",
"119 197 OFFCURVE",
"119 307 CURVE SMOOTH",
"119 422 OFFCURVE",
"156 568 OFFCURVE",
"326 568 CURVE SMOOTH",
"372 568 OFFCURVE",
"384 567 OFFCURVE",
"421 561 CURVE",
"421 49 LINE",
"392 44 OFFCURVE",
"361 44 OFFCURVE",
"335 44 CURVE SMOOTH"
);
}
);
width = 826;
},
{
anchors = (
{
name = top;
position = "{406, 615}";
}
);
layerId = "13e4c948-4684-4dcc-833a-03da9e1ebe8a";
paths = (
{
closed = 1;
nodes = (
"802 0 LINE",
"802 167 LINE",
"740 167 LINE",
"714 74 LINE",
"552 74 LINE",
"552 273 LINE",
"636 273 LINE",
"653 204 LINE",
"712 204 LINE",
"712 398 LINE",
"653 398 LINE",
"638 332 LINE",
"552 332 LINE",
"552 542 LINE",
"699 542 LINE",
"721 464 LINE",
"784 464 LINE",
"784 615 LINE",
"319 615 LINE SMOOTH",
"114 615 OFFCURVE",
"26 485 OFFCURVE",
"26 312 CURVE SMOOTH",
"26 137 OFFCURVE",
"116 0 OFFCURVE",
"321 0 CURVE SMOOTH"
);
},
{
closed = 1;
nodes = (
"206 57 OFFCURVE",
"188 197 OFFCURVE",
"188 312 CURVE SMOOTH",
"188 414 OFFCURVE",
"202 558 OFFCURVE",
"315 558 CURVE SMOOTH",
"340 558 OFFCURVE",
"381 552 OFFCURVE",
"403 542 CURVE",
"403 75 LINE",
"386 66 OFFCURVE",
"362 57 OFFCURVE",
"325 57 CURVE SMOOTH"
);
}
);
width = 822;
}
);
leftKerningGroup = O;
leftMetricsKey = O;
rightKerningGroup = E;
rightMetricsKey = E;
unicode = 0152;
},
{
glyphname = P;
layers = (
{
anchors = (
{
name = bottom;
position = "{260, 0}";
},
{
name = top;
position = "{260, 611}";
}
);
background = {
paths = (
{
closed = 1;
nodes = (
"38 611 LINE",
"38 576 LINE",
"129 554 LINE",
"129 53 LINE",
"38 33 LINE",
"38 0 LINE",
"316 0 LINE",
"316 34 LINE",
"212 53 LINE",
"212 259 LINE",
"240 252 OFFCURVE",
"268 249 OFFCURVE",
"293 249 CURVE SMOOTH",
"403 249 OFFCURVE",
"495 313 OFFCURVE",
"495 441 CURVE SMOOTH",
"495 556 OFFCURVE",
"403 611 OFFCURVE",
"267 611 CURVE SMOOTH"
);
},
{
closed = 1;
nodes = (
"212 559 LINE",
"231 565 OFFCURVE",
"256 569 OFFCURVE",
"276 569 CURVE SMOOTH",
"348 569 OFFCURVE",
"403 529 OFFCURVE",
"403 433 CURVE SMOOTH",
"403 325 OFFCURVE",
"342 289 OFFCURVE",
"271 289 CURVE SMOOTH",
"251 289 OFFCURVE",
"231 290 OFFCURVE",
"212 297 CURVE"
);
}
);
};
layerId = "C2E97133-8774-4C1F-A96F-338CBADF7D3D";
paths = (
{
closed = 1;
nodes = (
"316 0 LINE",
"316 34 LINE",
"212 53 LINE",
"212 259 LINE",
"240 252 OFFCURVE",
"268 249 OFFCURVE",
"293 249 CURVE SMOOTH",
"403 249 OFFCURVE",
"495 313 OFFCURVE",
"495 441 CURVE SMOOTH",
"495 556 OFFCURVE",
"403 611 OFFCURVE",
"267 611 CURVE SMOOTH",
"38 611 LINE",
"38 576 LINE",
"129 554 LINE",
"129 53 LINE",
"38 33 LINE",
"38 0 LINE"
);
},
{
closed = 1;
nodes = (
"251 289 OFFCURVE",
"231 290 OFFCURVE",
"212 297 CURVE",
"212 559 LINE",
"231 565 OFFCURVE",
"256 569 OFFCURVE",
"276 569 CURVE SMOOTH",
"348 569 OFFCURVE",
"403 529 OFFCURVE",
"403 433 CURVE SMOOTH",
"403 325 OFFCURVE",
"342 289 OFFCURVE",
"271 289 CURVE SMOOTH"
);
}
);
width = 520;
},
{
anchors = (
{
name = bottom;
position = "{275, 0}";
},
{
name = top;
position = "{275, 614}";
}
);
background = {
paths = (
{
closed = 1;
nodes = (
"35 614 LINE",
"35 569 LINE",
"120 546 LINE",
"120 69 LINE",
"36 45 LINE",
"36 0 LINE",
"361 0 LINE",
"361 46 LINE",
"255 69 LINE",
"255 247 LINE",
"264 244 OFFCURVE",
"306 243 OFFCURVE",
"309 243 CURVE SMOOTH",
"418 243 OFFCURVE",
"539 297 OFFCURVE",
"539 437 CURVE SMOOTH",
"539 554 OFFCURVE",
"431 614 OFFCURVE",
"321 614 CURVE SMOOTH"
);
},
{
closed = 1;
nodes = (
"255 546 LINE",
"272 550 OFFCURVE",
"292 551 OFFCURVE",
"310 551 CURVE SMOOTH",
"367 551 OFFCURVE",
"402 502 OFFCURVE",
"402 430 CURVE SMOOTH",
"402 354 OFFCURVE",
"363 293 OFFCURVE",
"285 293 CURVE SMOOTH",
"272 293 OFFCURVE",
"262 294 OFFCURVE",
"255 296 CURVE"
);
}
);
};
layerId = "320D1F10-23EA-4160-876F-9C954522C215";
paths = (
{
closed = 1;
nodes = (
"361 0 LINE",
"361 46 LINE",
"255 69 LINE",
"255 247 LINE",
"264 244 OFFCURVE",
"306 243 OFFCURVE",
"309 243 CURVE SMOOTH",
"418 243 OFFCURVE",
"539 297 OFFCURVE",
"539 437 CURVE SMOOTH",
"539 554 OFFCURVE",
"431 614 OFFCURVE",
"321 614 CURVE SMOOTH",
"35 614 LINE",
"35 569 LINE",
"120 546 LINE",
"120 69 LINE",
"36 45 LINE",
"36 0 LINE"
);
},
{
closed = 1;
nodes = (
"272 293 OFFCURVE",
"262 294 OFFCURVE",
"255 296 CURVE",
"255 546 LINE",
"272 550 OFFCURVE",
"292 551 OFFCURVE",
"310 551 CURVE SMOOTH",
"367 551 OFFCURVE",
"402 502 OFFCURVE",
"402 430 CURVE SMOOTH",
"402 354 OFFCURVE",
"363 293 OFFCURVE",
"285 293 CURVE SMOOTH"
);
}
);
width = 549;
},
{
anchors = (
{
name = bottom;
position = "{257, 0}";
},
{
name = top;
position = "{257, 610}";
}
);
layerId = "5f75e36f-2d9b-434e-b133-1931d65175c8";
paths = (
{
closed = 1;
nodes = (
"305 0 LINE",
"305 31 LINE",
"202 49 LINE",
"202 262 LINE",
"234 254 OFFCURVE",
"259 251 OFFCURVE",
"289 251 CURVE SMOOTH",
"400 251 OFFCURVE",
"484 317 OFFCURVE",
"484 442 CURVE SMOOTH",
"484 557 OFFCURVE",
"396 610 OFFCURVE",
"254 610 CURVE SMOOTH",
"39 610 LINE",
"39 578 LINE",
"132 556 LINE",
"132 49 LINE",
"39 30 LINE",
"39 0 LINE"
);
},
{
closed = 1;
nodes = (
"246 288 OFFCURVE",
"224 289 OFFCURVE",
"202 297 CURVE",
"202 562 LINE",
"221 569 OFFCURVE",
"247 574 OFFCURVE",
"268 574 CURVE SMOOTH",
"344 574 OFFCURVE",
"404 536 OFFCURVE",
"404 434 CURVE SMOOTH",
"404 320 OFFCURVE",
"333 288 OFFCURVE",
"268 288 CURVE SMOOTH"
);
}
);
width = 513;
},
{
anchors = (
{
name = bottom;
position = "{280, 0}";
},
{
name = top;
position = "{280, 615}";
}
);
layerId = "13e4c948-4684-4dcc-833a-03da9e1ebe8a";
paths = (
{
closed = 1;
nodes = (
"376 0 LINE",
"376 50 LINE",
"270 75 LINE",
"270 244 LINE",
"280 242 OFFCURVE",
"306 241 OFFCURVE",
"314 241 CURVE SMOOTH",
"423 241 OFFCURVE",
"554 291 OFFCURVE",
"554 436 CURVE SMOOTH",
"554 553 OFFCURVE",
"440 615 OFFCURVE",
"339 615 CURVE SMOOTH",
"34 615 LINE",
"34 567 LINE",
"117 543 LINE",
"117 75 LINE",
"35 49 LINE",
"35 0 LINE"
);
},
{
closed = 1;
nodes = (
"279 294 OFFCURVE",
"272 295 OFFCURVE",
"270 296 CURVE",
"270 542 LINE",
"286 545 OFFCURVE",
"304 545 OFFCURVE",
"321 545 CURVE SMOOTH",
"373 545 OFFCURVE",
"401 493 OFFCURVE",
"401 429 CURVE SMOOTH",
"401 364 OFFCURVE",
"370 294 OFFCURVE",
"290 294 CURVE SMOOTH"
);
}
);
width = 559;
}
);
leftKerningGroup = H;
leftMetricsKey = H;
rightKerningGroup = P;
unicode = 0050;
},
{
glyphname = Thorn;
layers = (
{
background = {
paths = (
{
closed = 1;
nodes = (
"128 489 LINE",
"128 136 LINE",
"197 137 LINE",
"224 130 OFFCURVE",
"253 127 OFFCURVE",
"279 127 CURVE SMOOTH",
"389 127 OFFCURVE",
"480 191 OFFCURVE",
"480 319 CURVE SMOOTH",
"480 433 OFFCURVE",
"389 489 OFFCURVE",
"252 489 CURVE SMOOTH"
);
},
{
closed = 1;
nodes = (
"197 437 LINE",
"219 442 OFFCURVE",
"241 447 OFFCURVE",
"261 447 CURVE SMOOTH",
"333 447 OFFCURVE",
"389 407 OFFCURVE",
"389 311 CURVE SMOOTH",
"389 203 OFFCURVE",
"327 167 OFFCURVE",
"256 167 CURVE SMOOTH",
"236 167 OFFCURVE",
"217 169 OFFCURVE",
"197 174 CURVE"
);
},
{
closed = 1;
nodes = (
"38 578 LINE",
"128 558 LINE",
"128 53 LINE",
"38 33 LINE",
"38 0 LINE",
"301 0 LINE",
"301 33 LINE",
"211 53 LINE",
"211 558 LINE",
"301 578 LINE",
"301 611 LINE",
"38 611 LINE"
);
}
);
};
layerId = "C2E97133-8774-4C1F-A96F-338CBADF7D3D";
paths = (
{
closed = 1;
nodes = (
"301 0 LINE",
"301 33 LINE",
"211 53 LINE",
"211 134 LINE",
"234 129 OFFCURVE",
"257 127 OFFCURVE",
"279 127 CURVE SMOOTH",
"389 127 OFFCURVE",
"480 191 OFFCURVE",
"480 319 CURVE SMOOTH",
"480 433 OFFCURVE",
"389 489 OFFCURVE",
"252 489 CURVE SMOOTH",
"211 489 LINE",
"211 558 LINE",
"301 578 LINE",
"301 611 LINE",
"38 611 LINE",
"38 578 LINE",
"128 558 LINE",
"128 53 LINE",
"38 33 LINE",
"38 0 LINE"
);
},
{
closed = 1;
nodes = (
"241 167 OFFCURVE",
"226 168 OFFCURVE",
"211 171 CURVE",
"211 440 LINE",
"228 444 OFFCURVE",
"245 447 OFFCURVE",
"261 447 CURVE SMOOTH",
"333 447 OFFCURVE",
"389 407 OFFCURVE",
"389 311 CURVE SMOOTH",
"389 203 OFFCURVE",
"327 167 OFFCURVE",
"256 167 CURVE SMOOTH"
);
}
);
width = 500;
},
{
background = {
paths = (
{
closed = 1;
nodes = (
"255 546 LINE",
"340 569 LINE",
"340 614 LINE",
"35 614 LINE",
"35 569 LINE",
"120 546 LINE",
"120 69 LINE",
"36 45 LINE",
"36 0 LINE",
"340 0 LINE",
"340 45 LINE",
"255 69 LINE",
"255 137 LINE",
"264 134 OFFCURVE",
"302 133 OFFCURVE",
"305 133 CURVE SMOOTH",
"406 133 OFFCURVE",
"517 183 OFFCURVE",
"517 312 CURVE SMOOTH",
"517 420 OFFCURVE",
"427 475 OFFCURVE",
"306 475 CURVE SMOOTH",
"255 475 LINE"
);
},
{
closed = 1;
nodes = (
"255 413 LINE",
"283 413 LINE SMOOTH",
"357 413 OFFCURVE",
"391 372 OFFCURVE",
"391 305 CURVE SMOOTH",
"391 235 OFFCURVE",
"355 183 OFFCURVE",
"283 183 CURVE SMOOTH",
"271 183 OFFCURVE",
"262 184 OFFCURVE",
"255 186 CURVE"
);
}
);
};
layerId = "320D1F10-23EA-4160-876F-9C954522C215";
paths = (
{
closed = 1;
nodes = (
"340 0 LINE",
"340 45 LINE",
"255 69 LINE",
"255 137 LINE",
"264 134 OFFCURVE",
"302 133 OFFCURVE",
"305 133 CURVE SMOOTH",
"406 133 OFFCURVE",
"517 183 OFFCURVE",
"517 312 CURVE SMOOTH",
"517 420 OFFCURVE",
"427 475 OFFCURVE",
"306 475 CURVE SMOOTH",
"255 475 LINE",
"255 546 LINE",
"340 569 LINE",
"340 614 LINE",
"35 614 LINE",
"35 569 LINE",
"120 546 LINE",
"120 69 LINE",
"36 45 LINE",
"36 0 LINE"
);
},
{
closed = 1;
nodes = (
"271 183 OFFCURVE",
"262 184 OFFCURVE",
"255 186 CURVE",
"255 413 LINE",
"264 413 OFFCURVE",
"274 413 OFFCURVE",
"283 413 CURVE SMOOTH",
"357 413 OFFCURVE",
"391 372 OFFCURVE",
"391 305 CURVE SMOOTH",
"391 235 OFFCURVE",
"355 183 OFFCURVE",
"283 183 CURVE SMOOTH"
);
}
);
width = 522;
},
{
layerId = "5f75e36f-2d9b-434e-b133-1931d65175c8";
paths = (
{
closed = 1;
nodes = (
"291 0 LINE",
"291 30 LINE",
"200 49 LINE",
"200 133 LINE",
"227 128 OFFCURVE",
"246 126 OFFCURVE",
"273 126 CURVE SMOOTH",
"385 126 OFFCURVE",
"471 193 OFFCURVE",
"471 321 CURVE SMOOTH",
"471 436 OFFCURVE",
"380 493 OFFCURVE",
"239 493 CURVE SMOOTH",
"200 493 LINE",
"200 561 LINE",
"291 580 LINE",
"291 610 LINE",
"39 610 LINE",
"39 580 LINE",
"130 561 LINE",
"130 49 LINE",
"39 30 LINE",
"39 0 LINE"
);
},
{
closed = 1;
nodes = (
"234 163 OFFCURVE",
"217 164 OFFCURVE",
"200 167 CURVE",
"200 447 LINE",
"219 452 OFFCURVE",
"238 456 OFFCURVE",
"256 456 CURVE SMOOTH",
"327 456 OFFCURVE",
"389 416 OFFCURVE",
"389 313 CURVE SMOOTH",
"389 195 OFFCURVE",
"320 163 OFFCURVE",
"249 163 CURVE SMOOTH"
);
}
);
width = 491;
},
{
layerId = "13e4c948-4684-4dcc-833a-03da9e1ebe8a";
paths = (
{
closed = 1;
nodes = (
"354 0 LINE",
"354 49 LINE",
"270 75 LINE",
"270 138 LINE",
"274 136 OFFCURVE",
"306 135 OFFCURVE",
"314 135 CURVE SMOOTH",
"412 135 OFFCURVE",
"530 180 OFFCURVE",
"530 310 CURVE SMOOTH",
"530 416 OFFCURVE",
"440 470 OFFCURVE",
"325 470 CURVE SMOOTH",
"270 470 LINE",
"270 542 LINE",
"354 566 LINE",
"354 615 LINE",
"34 615 LINE",
"34 566 LINE",
"117 542 LINE",
"117 75 LINE",
"35 49 LINE",
"35 0 LINE"
);
},
{
closed = 1;
nodes = (
"281 189 OFFCURVE",
"274 190 OFFCURVE",
"270 191 CURVE",
"270 401 LINE",
"276 401 OFFCURVE",
"284 401 OFFCURVE",
"291 401 CURVE SMOOTH",
"365 401 OFFCURVE",
"392 360 OFFCURVE",
"392 303 CURVE SMOOTH",
"392 246 OFFCURVE",
"365 189 OFFCURVE",
"292 189 CURVE SMOOTH"
);
}
);
width = 530;
}
);
leftKerningGroup = H;
leftMetricsKey = H;
rightKerningGroup = Thorn;
unicode = 00DE;
},
{
glyphname = Q;
layers = (
{
anchors = (
{
name = bottom;
position = "{329, 0}";
},
{
name = top;
position = "{329, 611}";
}
);
background = {
paths = (
{
closed = 1;
nodes = (
"679 -98 LINE",
"598 -98 LINE SMOOTH",
"574 -98 OFFCURVE",
"480 -54 OFFCURVE",
"369 -1 CURVE",
"534 18 OFFCURVE",
"618 139 OFFCURVE",
"618 308 CURVE SMOOTH",
"618 482 OFFCURVE",
"539 626 OFFCURVE",
"330 626 CURVE SMOOTH",
"122 626 OFFCURVE",
"41 482 OFFCURVE",
"41 308 CURVE SMOOTH",
"41 158 OFFCURVE",
"122 31 OFFCURVE",
"271 0 CURVE",
"451 -109 LINE SMOOTH",
"519 -150 OFFCURVE",
"541 -151 OFFCURVE",
"577 -151 CURVE SMOOTH",
"612 -151 OFFCURVE",
"659 -137 OFFCURVE",
"682 -126 CURVE"
);
},
{
closed = 1;
nodes = (
"131 421 OFFCURVE",
"163 578 OFFCURVE",
"324 578 CURVE SMOOTH",
"491 578 OFFCURVE",
"528 421 OFFCURVE",
"528 308 CURVE SMOOTH",
"528 197 OFFCURVE",
"489 41 OFFCURVE",
"333 41 CURVE SMOOTH",
"174 41 OFFCURVE",
"131 197 OFFCURVE",
"131 308 CURVE SMOOTH"
);
}
);
};
components = (
{
name = O;
}
);
layerId = "C2E97133-8774-4C1F-A96F-338CBADF7D3D";
paths = (
{
closed = 1;
nodes = (
"257 8 LINE",
"451 -109 LINE SMOOTH",
"519 -150 OFFCURVE",
"541 -151 OFFCURVE",
"577 -151 CURVE SMOOTH",
"612 -151 OFFCURVE",
"659 -137 OFFCURVE",
"682 -126 CURVE",
"679 -98 LINE",
"598 -98 LINE SMOOTH",
"572 -98 OFFCURVE",
"468 -48 OFFCURVE",
"347 9 CURVE"
);
}
);
width = 658;
},
{
anchors = (
{
name = bottom;
position = "{331, 0}";
},
{
name = top;
position = "{331, 614}";
}
);
background = {
paths = (
{
closed = 1;
nodes = (
"676 -85 LINE",
"607 -85 LINE SMOOTH",
"577 -85 OFFCURVE",
"480 -42 OFFCURVE",
"400 -5 CURVE",
"567 26 OFFCURVE",
"632 164 OFFCURVE",
"632 311 CURVE SMOOTH",
"632 484 OFFCURVE",
"549 628 OFFCURVE",
"332 628 CURVE SMOOTH",
"116 628 OFFCURVE",
"30 484 OFFCURVE",
"30 311 CURVE SMOOTH",
"30 159 OFFCURVE",
"99 32 OFFCURVE",
"253 0 CURVE",
"408 -96 LINE SMOOTH",
"487 -145 OFFCURVE",
"528 -157 OFFCURVE",
"563 -157 CURVE SMOOTH",
"602 -157 OFFCURVE",
"654 -138 OFFCURVE",
"680 -122 CURVE"
);
},
{
closed = 1;
nodes = (
"174 412 OFFCURVE",
"193 558 OFFCURVE",
"326 558 CURVE SMOOTH",
"465 558 OFFCURVE",
"488 412 OFFCURVE",
"488 311 CURVE SMOOTH",
"488 207 OFFCURVE",
"472 63 OFFCURVE",
"336 63 CURVE SMOOTH",
"195 63 OFFCURVE",
"174 207 OFFCURVE",
"174 311 CURVE SMOOTH"
);
}
);
};
components = (
{
name = O;
}
);
layerId = "320D1F10-23EA-4160-876F-9C954522C215";
paths = (
{
closed = 1;
nodes = (
"239 8 LINE",
"408 -96 LINE SMOOTH",
"487 -145 OFFCURVE",
"528 -157 OFFCURVE",
"563 -157 CURVE SMOOTH",
"602 -157 OFFCURVE",
"654 -138 OFFCURVE",
"680 -122 CURVE",
"676 -85 LINE",
"607 -85 LINE SMOOTH",
"575 -85 OFFCURVE",
"466 -36 OFFCURVE",
"383 3 CURVE"
);
}
);
width = 663;
},
{
anchors = (
{
name = bottom;
position = "{329, 0}";
},
{
name = top;
position = "{329, 610}";
}
);
components = (
{
name = O;
}
);
layerId = "5f75e36f-2d9b-434e-b133-1931d65175c8";
paths = (
{
closed = 1;
nodes = (
"262 8 LINE",
"462 -112 LINE SMOOTH",
"522 -148 OFFCURVE",
"538 -150 OFFCURVE",
"581 -150 CURVE SMOOTH",
"615 -150 OFFCURVE",
"660 -137 OFFCURVE",
"683 -127 CURVE",
"680 -101 LINE",
"596 -101 LINE SMOOTH",
"572 -101 OFFCURVE",
"468 -51 OFFCURVE",
"338 11 CURVE"
);
}
);
width = 657;
},
{
anchors = (
{
name = bottom;
position = "{332, 0}";
},
{
name = top;
position = "{332, 615}";
}
);
components = (
{
name = O;
}
);
layerId = "13e4c948-4684-4dcc-833a-03da9e1ebe8a";
paths = (
{
closed = 1;
nodes = (
"233 8 LINE",
"393 -91 LINE SMOOTH",
"476 -143 OFFCURVE",
"524 -159 OFFCURVE",
"558 -159 CURVE SMOOTH",
"599 -159 OFFCURVE",
"653 -140 OFFCURVE",
"680 -123 CURVE",
"675 -81 LINE",
"610 -81 LINE SMOOTH",
"576 -81 OFFCURVE",
"465 -31 OFFCURVE",
"396 1 CURVE"
);
}
);
width = 663;
}
);
leftKerningGroup = O;
leftMetricsKey = O;
rightKerningGroup = O;
unicode = 0051;
},
{
glyphname = R;
layers = (
{
anchors = (
{
name = bottom;
position = "{327, 0}";
},
{
name = top;
position = "{279, 611}";
}
);
background = {
paths = (
{
closed = 1;
nodes = (
"585 0 LINE",
"585 33 LINE",
"507 54 LINE",
"410 241 OFFCURVE",
"420 271 OFFCURVE",
"350 292 CURVE",
"465 319 OFFCURVE",
"495 396 OFFCURVE",
"495 457 CURVE SMOOTH",
"495 537 OFFCURVE",
"434 611 OFFCURVE",
"281 611 CURVE SMOOTH",
"38 611 LINE",
"38 578 LINE",
"131 558 LINE",
"131 53 LINE",
"38 33 LINE",
"38 0 LINE",
"307 0 LINE",
"307 33 LINE",
"214 53 LINE",
"214 279 LINE",
"252 279 LINE SMOOTH",
"320 279 OFFCURVE",
"306 277 OFFCURVE",
"439 0 CURVE"
);
},
{
closed = 1;
nodes = (
"214 319 LINE",
"214 559 LINE",
"235 565 OFFCURVE",
"258 569 OFFCURVE",
"277 569 CURVE SMOOTH",
"363 569 OFFCURVE",
"404 522 OFFCURVE",
"404 451 CURVE SMOOTH",
"404 373 OFFCURVE",
"361 319 OFFCURVE",
"275 319 CURVE SMOOTH"
);
}
);
};
layerId = "C2E97133-8774-4C1F-A96F-338CBADF7D3D";
paths = (
{
closed = 1;
nodes = (
"307 0 LINE",
"307 33 LINE",
"214 53 LINE",
"214 279 LINE",
"252 279 LINE SMOOTH",
"320 279 OFFCURVE",
"306 277 OFFCURVE",
"439 0 CURVE",
"575 0 LINE",
"575 33 LINE",
"507 54 LINE",
"410 241 OFFCURVE",
"420 271 OFFCURVE",
"350 292 CURVE",
"465 319 OFFCURVE",
"495 396 OFFCURVE",
"495 457 CURVE SMOOTH",
"495 537 OFFCURVE",
"434 611 OFFCURVE",
"281 611 CURVE SMOOTH",
"38 611 LINE",
"38 578 LINE",
"131 558 LINE",
"131 53 LINE",
"38 33 LINE",
"38 0 LINE"
);
},
{
closed = 1;
nodes = (
"214 559 LINE",
"235 565 OFFCURVE",
"258 569 OFFCURVE",
"277 569 CURVE SMOOTH",
"363 569 OFFCURVE",
"404 522 OFFCURVE",
"404 451 CURVE SMOOTH",
"404 373 OFFCURVE",
"361 319 OFFCURVE",
"275 319 CURVE SMOOTH",
"214 319 LINE"
);
}
);
width = 556;
},
{
anchors = (
{
name = bottom;
position = "{337, 0}";
},
{
name = top;
position = "{301, 614}";
}
);
background = {
paths = (
{
closed = 1;
nodes = (
"603 0 LINE",
"603 45 LINE",
"539 68 LINE",
"459 250 OFFCURVE",
"457 276 OFFCURVE",
"399 295 CURVE",
"483 321 OFFCURVE",
"542 372 OFFCURVE",
"542 465 CURVE SMOOTH",
"542 552 OFFCURVE",
"477 614 OFFCURVE",
"318 614 CURVE SMOOTH",
"35 614 LINE",
"35 569 LINE",
"120 546 LINE",
"120 69 LINE",
"36 45 LINE",
"36 0 LINE",
"329 0 LINE",
"329 45 LINE",
"255 69 LINE",
"255 268 LINE",
"280 268 LINE SMOOTH",
"313 268 OFFCURVE",
"327 254 OFFCURVE",
"418 0 CURVE"
);
},
{
closed = 1;
nodes = (
"255 323 LINE",
"255 546 LINE",
"266 550 OFFCURVE",
"284 553 OFFCURVE",
"303 553 CURVE SMOOTH",
"364 553 OFFCURVE",
"406 520 OFFCURVE",
"406 448 CURVE SMOOTH",
"406 374 OFFCURVE",
"367 323 OFFCURVE",
"296 323 CURVE SMOOTH"
);
}
);
};
layerId = "320D1F10-23EA-4160-876F-9C954522C215";
paths = (
{
closed = 1;
nodes = (
"329 0 LINE",
"329 45 LINE",
"255 69 LINE",
"255 268 LINE",
"280 268 LINE SMOOTH",
"313 268 OFFCURVE",
"327 254 OFFCURVE",
"418 0 CURVE",
"603 0 LINE",
"603 45 LINE",
"539 68 LINE",
"459 250 OFFCURVE",
"457 276 OFFCURVE",
"399 295 CURVE",
"483 321 OFFCURVE",
"542 372 OFFCURVE",
"542 465 CURVE SMOOTH",
"542 552 OFFCURVE",
"477 614 OFFCURVE",
"318 614 CURVE SMOOTH",
"35 614 LINE",
"35 569 LINE",
"120 546 LINE",
"120 69 LINE",
"36 45 LINE",
"36 0 LINE"
);
},
{
closed = 1;
nodes = (
"255 546 LINE",
"266 550 OFFCURVE",
"284 553 OFFCURVE",
"303 553 CURVE SMOOTH",
"364 553 OFFCURVE",
"406 520 OFFCURVE",
"406 448 CURVE SMOOTH",
"406 374 OFFCURVE",
"367 323 OFFCURVE",
"296 323 CURVE SMOOTH",
"255 323 LINE"
);
}
);
width = 588;
},
{
anchors = (
{
name = bottom;
position = "{324, 0}";
},
{
name = top;
position = "{272, 610}";
}
);
layerId = "5f75e36f-2d9b-434e-b133-1931d65175c8";
paths = (
{
closed = 1;
nodes = (
"302 0 LINE",
"302 30 LINE",
"204 49 LINE",
"204 282 LINE",
"246 282 LINE SMOOTH",
"322 282 OFFCURVE",
"302 281 OFFCURVE",
"445 0 CURVE",
"571 0 LINE",
"571 30 LINE",
"500 51 LINE",
"398 239 OFFCURVE",
"411 270 OFFCURVE",
"338 291 CURVE",
"461 319 OFFCURVE",
"484 402 OFFCURVE",
"484 455 CURVE SMOOTH",
"484 533 OFFCURVE",
"424 610 OFFCURVE",
"272 610 CURVE SMOOTH",
"39 610 LINE",
"39 580 LINE",
"134 561 LINE",
"134 49 LINE",
"39 30 LINE",
"39 0 LINE"
);
},
{
closed = 1;
nodes = (
"204 562 LINE",
"228 569 OFFCURVE",
"252 573 OFFCURVE",
"271 573 CURVE SMOOTH",
"363 573 OFFCURVE",
"404 523 OFFCURVE",
"404 452 CURVE SMOOTH",
"404 373 OFFCURVE",
"360 318 OFFCURVE",
"270 318 CURVE SMOOTH",
"204 318 LINE"
);
}
);
width = 546;
},
{
anchors = (
{
name = bottom;
position = "{338, 0}";
},
{
name = top;
position = "{307, 615}";
}
);
layerId = "13e4c948-4684-4dcc-833a-03da9e1ebe8a";
paths = (
{
closed = 1;
nodes = (
"337 0 LINE",
"337 49 LINE",
"270 75 LINE",
"270 264 LINE",
"290 264 LINE SMOOTH",
"311 264 OFFCURVE",
"335 246 OFFCURVE",
"411 0 CURVE",
"610 0 LINE",
"610 49 LINE",
"550 73 LINE",
"475 264 OFFCURVE",
"459 284 OFFCURVE",
"416 296 CURVE",
"490 319 OFFCURVE",
"559 364 OFFCURVE",
"559 468 CURVE SMOOTH",
"559 557 OFFCURVE",
"492 615 OFFCURVE",
"331 615 CURVE SMOOTH",
"34 615 LINE",
"34 566 LINE",
"117 542 LINE",
"117 75 LINE",
"36 49 LINE",
"36 0 LINE"
);
},
{
closed = 1;
nodes = (
"270 542 LINE",
"277 545 OFFCURVE",
"293 547 OFFCURVE",
"312 547 CURVE SMOOTH",
"365 547 OFFCURVE",
"407 519 OFFCURVE",
"407 447 CURVE SMOOTH",
"407 371 OFFCURVE",
"369 324 OFFCURVE",
"304 324 CURVE SMOOTH",
"270 324 LINE"
);
}
);
width = 610;
}
);
leftKerningGroup = H;
leftMetricsKey = H;
rightKerningGroup = R;
unicode = 0052;
},
{
glyphname = S;
layers = (
{
anchors = (
{
name = bottom;
position = "{232, 0}";
},
{
name = top;
position = "{249, 611}";
}
);
background = {
paths = (
{
closed = 1;
nodes = (
"45 369 OFFCURVE",
"87 324 OFFCURVE",
"147 301 CURVE SMOOTH",
"258 258 LINE SMOOTH",
"324 232 OFFCURVE",
"346 194 OFFCURVE",
"346 141 CURVE SMOOTH",
"346 80 OFFCURVE",
"295 38 OFFCURVE",
"212 38 CURVE SMOOTH",
"168 38 OFFCURVE",
"127 46 OFFCURVE",
"104 52 CURVE",
"85 138 LINE",
"48 138 LINE",
"34 20 LINE",
"86 -1 OFFCURVE",
"154 -11 OFFCURVE",
"206 -11 CURVE SMOOTH",
"353 -11 OFFCURVE",
"427 56 OFFCURVE",
"427 163 CURVE SMOOTH",
"427 249 OFFCURVE",
"392 294 OFFCURVE",
"323 320 CURVE SMOOTH",
"215 364 LINE SMOOTH",
"155 388 OFFCURVE",
"123 416 OFFCURVE",
"123 474 CURVE SMOOTH",
"123 541 OFFCURVE",
"172 577 OFFCURVE",
"250 577 CURVE SMOOTH",
"275 577 OFFCURVE",
"318 573 OFFCURVE",
"337 567 CURVE",
"359 470 LINE",
"396 470 LINE",
"406 600 LINE",
"354 617 OFFCURVE",
"298 627 OFFCURVE",
"244 627 CURVE SMOOTH",
"116 627 OFFCURVE",
"45 563 OFFCURVE",
"45 456 CURVE SMOOTH"
);
}
);
};
layerId = "C2E97133-8774-4C1F-A96F-338CBADF7D3D";
paths = (
{
closed = 1;
nodes = (
"353 -11 OFFCURVE",
"427 56 OFFCURVE",
"427 163 CURVE SMOOTH",
"427 249 OFFCURVE",
"392 294 OFFCURVE",
"323 320 CURVE SMOOTH",
"215 364 LINE SMOOTH",
"155 388 OFFCURVE",
"123 416 OFFCURVE",
"123 474 CURVE SMOOTH",
"123 541 OFFCURVE",
"172 577 OFFCURVE",
"250 577 CURVE SMOOTH",
"275 577 OFFCURVE",
"318 573 OFFCURVE",
"337 567 CURVE",
"359 470 LINE",
"396 470 LINE",
"406 600 LINE",
"354 617 OFFCURVE",
"298 627 OFFCURVE",
"244 627 CURVE SMOOTH",
"116 627 OFFCURVE",
"45 563 OFFCURVE",
"45 456 CURVE SMOOTH",
"45 369 OFFCURVE",
"87 324 OFFCURVE",
"147 301 CURVE SMOOTH",
"258 258 LINE SMOOTH",
"324 232 OFFCURVE",
"346 194 OFFCURVE",
"346 141 CURVE SMOOTH",
"346 80 OFFCURVE",
"295 38 OFFCURVE",
"212 38 CURVE SMOOTH",
"168 38 OFFCURVE",
"127 46 OFFCURVE",
"104 52 CURVE",
"85 138 LINE",
"48 138 LINE",
"34 20 LINE",
"86 -1 OFFCURVE",
"154 -11 OFFCURVE",
"206 -11 CURVE SMOOTH"
);
}
);
width = 458;
},
{
anchors = (
{
name = bottom;
position = "{238, 0}";
},
{
name = top;
position = "{262, 614}";
}
);
background = {
paths = (
{
closed = 1;
nodes = (
"41 346 OFFCURVE",
"101 296 OFFCURVE",
"149 275 CURVE SMOOTH",
"241 235 LINE SMOOTH",
"299 209 OFFCURVE",
"327 188 OFFCURVE",
"327 140 CURVE SMOOTH",
"327 89 OFFCURVE",
"282 63 OFFCURVE",
"213 63 CURVE SMOOTH",
"174 63 OFFCURVE",
"138 72 OFFCURVE",
"117 78 CURVE",
"101 165 LINE",
"45 165 LINE",
"30 22 LINE",
"85 1 OFFCURVE",
"159 -9 OFFCURVE",
"215 -9 CURVE SMOOTH",
"371 -9 OFFCURVE",
"450 65 OFFCURVE",
"450 179 CURVE SMOOTH",
"450 253 OFFCURVE",
"418 307 OFFCURVE",
"334 342 CURVE SMOOTH",
"243 380 LINE SMOOTH",
"190 402 OFFCURVE",
"155 429 OFFCURVE",
"155 478 CURVE SMOOTH",
"155 540 OFFCURVE",
"207 558 OFFCURVE",
"266 558 CURVE SMOOTH",
"287 558 OFFCURVE",
"326 553 OFFCURVE",
"343 547 CURVE",
"365 456 LINE",
"418 456 LINE",
"429 601 LINE",
"373 619 OFFCURVE",
"314 628 OFFCURVE",
"254 628 CURVE SMOOTH",
"119 628 OFFCURVE",
"41 561 OFFCURVE",
"41 445 CURVE SMOOTH"
);
}
);
};
layerId = "320D1F10-23EA-4160-876F-9C954522C215";
paths = (
{
closed = 1;
nodes = (
"371 -9 OFFCURVE",
"450 65 OFFCURVE",
"450 179 CURVE SMOOTH",
"450 253 OFFCURVE",
"418 307 OFFCURVE",
"334 342 CURVE SMOOTH",
"243 380 LINE SMOOTH",
"190 402 OFFCURVE",
"155 429 OFFCURVE",
"155 478 CURVE SMOOTH",
"155 540 OFFCURVE",
"207 558 OFFCURVE",
"266 558 CURVE SMOOTH",
"287 558 OFFCURVE",
"326 553 OFFCURVE",
"343 547 CURVE",
"365 456 LINE",
"418 456 LINE",
"429 601 LINE",
"373 619 OFFCURVE",
"314 628 OFFCURVE",
"254 628 CURVE SMOOTH",
"119 628 OFFCURVE",
"41 561 OFFCURVE",
"41 445 CURVE SMOOTH",
"41 346 OFFCURVE",
"101 296 OFFCURVE",
"149 275 CURVE SMOOTH",
"241 235 LINE SMOOTH",
"299 209 OFFCURVE",
"327 188 OFFCURVE",
"327 140 CURVE SMOOTH",
"327 89 OFFCURVE",
"282 63 OFFCURVE",
"213 63 CURVE SMOOTH",
"174 63 OFFCURVE",
"138 72 OFFCURVE",
"117 78 CURVE",
"101 165 LINE",
"45 165 LINE",
"30 22 LINE",
"85 1 OFFCURVE",
"159 -9 OFFCURVE",
"215 -9 CURVE SMOOTH"
);
}
);
width = 483;
},
{
anchors = (
{
name = bottom;
position = "{231, 0}";
},
{
name = top;
position = "{246, 610}";
}
);
layerId = "5f75e36f-2d9b-434e-b133-1931d65175c8";
paths = (
{
closed = 1;
nodes = (
"349 -12 OFFCURVE",
"421 59 OFFCURVE",
"421 159 CURVE SMOOTH",
"421 248 OFFCURVE",
"385 287 OFFCURVE",
"320 314 CURVE SMOOTH",
"208 360 LINE SMOOTH",
"146 385 OFFCURVE",
"113 413 OFFCURVE",
"113 473 CURVE SMOOTH",
"113 541 OFFCURVE",
"163 582 OFFCURVE",
"246 582 CURVE SMOOTH",
"272 582 OFFCURVE",
"316 578 OFFCURVE",
"336 572 CURVE",
"358 474 LINE",
"391 474 LINE",
"400 600 LINE",
"349 617 OFFCURVE",
"294 627 OFFCURVE",
"242 627 CURVE SMOOTH",
"115 627 OFFCURVE",
"46 564 OFFCURVE",
"46 459 CURVE SMOOTH",
"46 375 OFFCURVE",
"84 334 OFFCURVE",
"147 309 CURVE SMOOTH",
"262 264 LINE SMOOTH",
"330 237 OFFCURVE",
"353 196 OFFCURVE",
"353 141 CURVE SMOOTH",
"353 78 OFFCURVE",
"298 32 OFFCURVE",
"212 32 CURVE SMOOTH",
"167 32 OFFCURVE",
"124 40 OFFCURVE",
"101 46 CURVE",
"81 131 LINE",
"49 131 LINE",
"35 20 LINE",
"86 -2 OFFCURVE",
"153 -12 OFFCURVE",
"204 -12 CURVE SMOOTH"
);
}
);
width = 452;
},
{
anchors = (
{
name = bottom;
position = "{240, 0}";
},
{
name = top;
position = "{267, 615}";
}
);
layerId = "13e4c948-4684-4dcc-833a-03da9e1ebe8a";
paths = (
{
closed = 1;
nodes = (
"377 -8 OFFCURVE",
"458 68 OFFCURVE",
"458 185 CURVE SMOOTH",
"458 254 OFFCURVE",
"430 311 OFFCURVE",
"338 350 CURVE SMOOTH",
"253 386 LINE SMOOTH",
"202 407 OFFCURVE",
"166 433 OFFCURVE",
"166 479 CURVE SMOOTH",
"166 540 OFFCURVE",
"219 551 OFFCURVE",
"272 551 CURVE SMOOTH",
"291 551 OFFCURVE",
"329 546 OFFCURVE",
"345 540 CURVE",
"367 451 LINE",
"426 451 LINE",
"437 601 LINE",
"380 620 OFFCURVE",
"320 628 OFFCURVE",
"257 628 CURVE SMOOTH",
"120 628 OFFCURVE",
"40 560 OFFCURVE",
"40 441 CURVE SMOOTH",
"40 338 OFFCURVE",
"98 290 OFFCURVE",
"150 266 CURVE SMOOTH",
"235 227 LINE SMOOTH",
"290 201 OFFCURVE",
"320 186 OFFCURVE",
"320 140 CURVE SMOOTH",
"320 92 OFFCURVE",
"278 72 OFFCURVE",
"213 72 CURVE SMOOTH",
"176 72 OFFCURVE",
"142 81 OFFCURVE",
"121 87 CURVE",
"107 174 LINE",
"44 174 LINE",
"29 23 LINE",
"85 2 OFFCURVE",
"161 -8 OFFCURVE",
"218 -8 CURVE SMOOTH"
);
}
);
width = 492;
}
);
leftKerningGroup = S;
rightKerningGroup = S;
unicode = 0053;
},
{
glyphname = Saltillo;
layers = (
{
background = {
paths = (
{
closed = 1;
nodes = (
"75 595 LINE",
"75 611 LINE",
"-2 611 LINE",
"-34 405 LINE",
"-13 398 LINE"
);
}
);
};
layerId = "C2E97133-8774-4C1F-A96F-338CBADF7D3D";
paths = (
{
closed = 1;
nodes = (
"115 595 LINE",
"101 611 LINE",
"29 611 LINE",
"14 287 LINE",
"46 281 LINE"
);
}
);
width = 106;
},
{
background = {
paths = (
{
closed = 1;
nodes = (
"87 593 LINE",
"87 614 LINE",
"1 614 LINE",
"-30 404 LINE",
"-4 393 LINE"
);
}
);
};
layerId = "320D1F10-23EA-4160-876F-9C954522C215";
paths = (
{
closed = 1;
nodes = (
"157 586 LINE",
"127 614 LINE",
"30 613 LINE",
"18 271 LINE",
"69 262 LINE"
);
}
);
width = 152;
},
{
layerId = "5f75e36f-2d9b-434e-b133-1931d65175c8";
paths = (
{
closed = 1;
nodes = (
"105 597 LINE",
"95 610 LINE",
"29 610 LINE",
"13 291 LINE",
"40 286 LINE"
);
}
);
width = 95;
},
{
layerId = "13e4c948-4684-4dcc-833a-03da9e1ebe8a";
paths = (
{
closed = 1;
nodes = (
"172 583 LINE",
"136 614.5 LINE",
"30 614.5 LINE",
"19 265 LINE",
"77 255 LINE"
);
}
);
width = 168;
}
);
unicode = A78B;
},
{
glyphname = Scedilla;
layers = (
{
background = {
paths = (
{
closed = 1;
nodes = (
"262 -219 OFFCURVE",
"325 -173 OFFCURVE",
"325 -116 CURVE SMOOTH",
"325 -79 OFFCURVE",
"291 -46 OFFCURVE",
"218 -46 CURVE",
"229 -11 LINE",
"363 -5 OFFCURVE",
"431 61 OFFCURVE",
"431 163 CURVE SMOOTH",
"431 249 OFFCURVE",
"396 294 OFFCURVE",
"327 320 CURVE SMOOTH",
"219 364 LINE SMOOTH",
"159 388 OFFCURVE",
"127 416 OFFCURVE",
"127 474 CURVE SMOOTH",
"127 541 OFFCURVE",
"176 577 OFFCURVE",
"254 577 CURVE SMOOTH",
"279 577 OFFCURVE",
"322 573 OFFCURVE",
"341 567 CURVE",
"363 470 LINE",
"400 470 LINE",
"410 600 LINE",
"358 617 OFFCURVE",
"302 627 OFFCURVE",
"248 627 CURVE SMOOTH",
"120 627 OFFCURVE",
"49 563 OFFCURVE",
"49 456 CURVE SMOOTH",
"49 369 OFFCURVE",
"91 324 OFFCURVE",
"151 301 CURVE SMOOTH",
"262 258 LINE SMOOTH",
"328 232 OFFCURVE",
"350 194 OFFCURVE",
"350 141 CURVE SMOOTH",
"350 80 OFFCURVE",
"299 38 OFFCURVE",
"216 38 CURVE SMOOTH",
"172 38 OFFCURVE",
"131 46 OFFCURVE",
"108 52 CURVE",
"89 138 LINE",
"52 138 LINE",
"38 20 LINE",
"86 0 OFFCURVE",
"149 -10 OFFCURVE",
"199 -11 CURVE",
"180 -67 LINE",
"183 -76 LINE",
"239 -76 OFFCURVE",
"260 -98 OFFCURVE",
"260 -124 CURVE SMOOTH",
"260 -161 OFFCURVE",
"228 -192 OFFCURVE",
"181 -192 CURVE SMOOTH",
"169 -192 OFFCURVE",
"159 -190 OFFCURVE",
"146 -186 CURVE",
"138 -211 LINE",
"155 -217 OFFCURVE",
"173 -219 OFFCURVE",
"190 -219 CURVE SMOOTH"
);
}
);
};
components = (
{
name = S;
},
{
name = cedillacomb.case;
transform = "{1, 0, 0, 1, 139, 0}";
}
);
layerId = "C2E97133-8774-4C1F-A96F-338CBADF7D3D";
width = 458;
},
{
background = {
paths = (
{
closed = 1;
nodes = (
"264 -220 OFFCURVE",
"329 -174 OFFCURVE",
"329 -118 CURVE SMOOTH",
"329 -78 OFFCURVE",
"298 -46 OFFCURVE",
"230 -46 CURVE",
"241 -8 LINE",
"380 0 OFFCURVE",
"450 71 OFFCURVE",
"450 179 CURVE SMOOTH",
"450 253 OFFCURVE",
"418 307 OFFCURVE",
"334 342 CURVE SMOOTH",
"243 380 LINE SMOOTH",
"190 402 OFFCURVE",
"155 429 OFFCURVE",
"155 478 CURVE SMOOTH",
"155 540 OFFCURVE",
"207 558 OFFCURVE",
"266 558 CURVE SMOOTH",
"287 558 OFFCURVE",
"326 553 OFFCURVE",
"343 547 CURVE",
"365 456 LINE",
"418 456 LINE",
"429 601 LINE",
"373 619 OFFCURVE",
"314 628 OFFCURVE",
"254 628 CURVE SMOOTH",
"119 628 OFFCURVE",
"41 561 OFFCURVE",
"41 445 CURVE SMOOTH",
"41 346 OFFCURVE",
"101 296 OFFCURVE",
"149 275 CURVE SMOOTH",
"241 235 LINE SMOOTH",
"299 209 OFFCURVE",
"327 188 OFFCURVE",
"327 140 CURVE SMOOTH",
"327 89 OFFCURVE",
"282 63 OFFCURVE",
"213 63 CURVE SMOOTH",
"174 63 OFFCURVE",
"138 72 OFFCURVE",
"117 78 CURVE",
"101 165 LINE",
"45 165 LINE",
"30 22 LINE",
"78 3 OFFCURVE",
"142 -6 OFFCURVE",
"194 -8 CURVE",
"171 -73 LINE",
"178 -92 LINE",
"219 -93 OFFCURVE",
"233 -112 OFFCURVE",
"233 -131 CURVE SMOOTH",
"233 -152 OFFCURVE",
"214 -176 OFFCURVE",
"175 -176 CURVE SMOOTH",
"165 -176 OFFCURVE",
"156 -174 OFFCURVE",
"147 -169 CURVE",
"139 -209 LINE",
"156 -217 OFFCURVE",
"174 -220 OFFCURVE",
"193 -220 CURVE SMOOTH"
);
}
);
};
components = (
{
name = S;
},
{
name = cedillacomb.case;
transform = "{1, 0, 0, 1, 143, 0}";
}
);
layerId = "320D1F10-23EA-4160-876F-9C954522C215";
width = 483;
},
{
background = {
paths = (
{
closed = 1;
nodes = (
"262 -219 OFFCURVE",
"324 -173 OFFCURVE",
"324 -116 CURVE SMOOTH",
"324 -79 OFFCURVE",
"289 -46 OFFCURVE",
"215 -46 CURVE",
"226 -12 LINE",
"360 -6 OFFCURVE",
"426 63 OFFCURVE",
"426 159 CURVE SMOOTH",
"426 248 OFFCURVE",
"390 287 OFFCURVE",
"325 314 CURVE SMOOTH",
"213 360 LINE SMOOTH",
"151 385 OFFCURVE",
"118 413 OFFCURVE",
"118 473 CURVE SMOOTH",
"118 541 OFFCURVE",
"168 582 OFFCURVE",
"251 582 CURVE SMOOTH",
"277 582 OFFCURVE",
"321 578 OFFCURVE",
"341 572 CURVE",
"363 474 LINE",
"396 474 LINE",
"405 600 LINE",
"354 617 OFFCURVE",
"299 627 OFFCURVE",
"247 627 CURVE SMOOTH",
"120 627 OFFCURVE",
"51 564 OFFCURVE",
"51 459 CURVE SMOOTH",
"51 375 OFFCURVE",
"89 334 OFFCURVE",
"152 309 CURVE SMOOTH",
"267 264 LINE SMOOTH",
"335 237 OFFCURVE",
"358 196 OFFCURVE",
"358 141 CURVE SMOOTH",
"358 78 OFFCURVE",
"303 32 OFFCURVE",
"217 32 CURVE SMOOTH",
"172 32 OFFCURVE",
"129 40 OFFCURVE",
"106 46 CURVE",
"86 131 LINE",
"54 131 LINE",
"40 20 LINE",
"88 -1 OFFCURVE",
"151 -12 OFFCURVE",
"200 -12 CURVE",
"182 -66 LINE",
"184 -72 LINE",
"244 -72 OFFCURVE",
"267 -95 OFFCURVE",
"267 -122 CURVE SMOOTH",
"267 -163 OFFCURVE",
"232 -196 OFFCURVE",
"183 -196 CURVE SMOOTH",
"170 -196 OFFCURVE",
"160 -194 OFFCURVE",
"146 -190 CURVE",
"138 -212 LINE",
"155 -217 OFFCURVE",
"173 -219 OFFCURVE",
"189 -219 CURVE SMOOTH"
);
}
);
};
components = (
{
name = S;
},
{
name = cedillacomb.case;
transform = "{1, 0, 0, 1, 138, 0}";
}
);
layerId = "5f75e36f-2d9b-434e-b133-1931d65175c8";
width = 452;
},
{
background = {
paths = (
{
closed = 1;
nodes = (
"265 -220 OFFCURVE",
"330 -174 OFFCURVE",
"330 -119 CURVE SMOOTH",
"330 -78 OFFCURVE",
"300 -46 OFFCURVE",
"234 -46 CURVE",
"245 -7 LINE",
"386 2 OFFCURVE",
"457 74 OFFCURVE",
"457 185 CURVE SMOOTH",
"457 254 OFFCURVE",
"426 312 OFFCURVE",
"336 350 CURVE SMOOTH",
"251 386 LINE SMOOTH",
"201 407 OFFCURVE",
"165 433 OFFCURVE",
"165 479 CURVE SMOOTH",
"165 540 OFFCURVE",
"218 551 OFFCURVE",
"270 551 CURVE SMOOTH",
"290 551 OFFCURVE",
"327 546 OFFCURVE",
"344 540 CURVE",
"366 451 LINE",
"424 451 LINE",
"436 601 LINE",
"378 620 OFFCURVE",
"318 628 OFFCURVE",
"256 628 CURVE SMOOTH",
"119 628 OFFCURVE",
"38 560 OFFCURVE",
"38 441 CURVE SMOOTH",
"38 338 OFFCURVE",
"104 286 OFFCURVE",
"148 266 CURVE SMOOTH",
"234 227 LINE SMOOTH",
"289 201 OFFCURVE",
"319 186 OFFCURVE",
"319 140 CURVE SMOOTH",
"319 92 OFFCURVE",
"276 72 OFFCURVE",
"212 72 CURVE SMOOTH",
"175 72 OFFCURVE",
"140 81 OFFCURVE",
"120 87 CURVE",
"105 174 LINE",
"43 174 LINE",
"27 23 LINE",
"75 4 OFFCURVE",
"140 -5 OFFCURVE",
"192 -7 CURVE",
"168 -75 LINE",
"176 -98 LINE",
"212 -99 OFFCURVE",
"224 -117 OFFCURVE",
"224 -133 CURVE SMOOTH",
"224 -149 OFFCURVE",
"209 -170 OFFCURVE",
"173 -170 CURVE SMOOTH",
"164 -170 OFFCURVE",
"155 -168 OFFCURVE",
"147 -163 CURVE",
"139 -208 LINE",
"156 -217 OFFCURVE",
"174 -220 OFFCURVE",
"194 -220 CURVE SMOOTH"
);
}
);
};
components = (
{
name = S;
},
{
name = cedillacomb.case;
transform = "{1, 0, 0, 1, 145, 0}";
}
);
layerId = "13e4c948-4684-4dcc-833a-03da9e1ebe8a";
width = 492;
}
);
leftKerningGroup = S;
rightKerningGroup = S;
unicode = 015E;
},
{
glyphname = Germandbls;
layers = (
{
layerId = "C2E97133-8774-4C1F-A96F-338CBADF7D3D";
paths = (
{
closed = 1;
nodes = (
"508 -11 OFFCURVE",
"571 59 OFFCURVE",
"571 159 CURVE SMOOTH",
"571 246 OFFCURVE",
"522 310 OFFCURVE",
"402 324 CURVE",
"532 532 LINE",
"527 564 LINE",
"489 602 OFFCURVE",
"413 626 OFFCURVE",
"333 626 CURVE SMOOTH",
"180 626 OFFCURVE",
"98 546 OFFCURVE",
"98 383 CURVE SMOOTH",
"98 53 LINE",
"9 33 LINE",
"9 0 LINE",
"233 0 LINE",
"233 37 LINE",
"181 53 LINE",
"181 412 LINE SMOOTH",
"181 526 OFFCURVE",
"232 577 OFFCURVE",
"341 577 CURVE SMOOTH",
"391 577 OFFCURVE",
"433 564 OFFCURVE",
"453 544 CURVE",
"310 306 LINE",
"328 273 LINE",
"464 273 OFFCURVE",
"490 201 OFFCURVE",
"490 144 CURVE SMOOTH",
"490 77 OFFCURVE",
"451 38 OFFCURVE",
"394 38 CURVE SMOOTH",
"371 38 OFFCURVE",
"356 44 OFFCURVE",
"348 50 CURVE",
"329 138 LINE",
"292 138 LINE",
"278 20 LINE",
"309 -1 OFFCURVE",
"350 -11 OFFCURVE",
"393 -11 CURVE SMOOTH"
);
}
);
width = 586;
},
{
layerId = "320D1F10-23EA-4160-876F-9C954522C215";
paths = (
{
closed = 1;
nodes = (
"534 -9 OFFCURVE",
"601 65 OFFCURVE",
"601 162 CURVE SMOOTH",
"601 245 OFFCURVE",
"551 312 OFFCURVE",
"428 321 CURVE",
"554 537 LINE",
"549 570 LINE",
"507 604 OFFCURVE",
"425 628 OFFCURVE",
"351 628 CURVE SMOOTH",
"178 628 OFFCURVE",
"91 521 OFFCURVE",
"91 386 CURVE SMOOTH",
"91 69 LINE",
"6 45 LINE",
"6 0 LINE",
"226 0 LINE",
"226 45 LINE",
"226 69 LINE",
"226 400 LINE SMOOTH",
"226 488 OFFCURVE",
"251 553 OFFCURVE",
"344 553 CURVE SMOOTH",
"374 553 OFFCURVE",
"402 549 OFFCURVE",
"425 543 CURVE",
"286 293 LINE",
"304 260 LINE",
"419 260 OFFCURVE",
"478 228 OFFCURVE",
"478 148 CURVE SMOOTH",
"478 92 OFFCURVE",
"450 63 OFFCURVE",
"407 63 CURVE SMOOTH",
"383 63 OFFCURVE",
"366 69 OFFCURVE",
"353 75 CURVE",
"336 165 LINE",
"280 165 LINE",
"265 22 LINE",
"307 1 OFFCURVE",
"363 -9 OFFCURVE",
"409 -9 CURVE SMOOTH"
);
}
);
width = 606;
},
{
layerId = "5f75e36f-2d9b-434e-b133-1931d65175c8";
paths = (
{
closed = 1;
nodes = (
"502 -12 OFFCURVE",
"564 58 OFFCURVE",
"564 158 CURVE SMOOTH",
"564 246 OFFCURVE",
"513 310 OFFCURVE",
"394 325 CURVE",
"525 531 LINE",
"520 563 LINE",
"483 602 OFFCURVE",
"410 626 OFFCURVE",
"329 626 CURVE SMOOTH",
"181 626 OFFCURVE",
"100 552 OFFCURVE",
"100 382 CURVE SMOOTH",
"100 49 LINE",
"10 30 LINE",
"10 0 LINE",
"240 0 LINE",
"240 35 LINE",
"170 49 LINE",
"170 415 LINE SMOOTH",
"170 536 OFFCURVE",
"227 583 OFFCURVE",
"340 583 CURVE SMOOTH",
"395 583 OFFCURVE",
"441 568 OFFCURVE",
"460 544 CURVE",
"316 309 LINE",
"334 276 LINE",
"483 276 OFFCURVE",
"493 194 OFFCURVE",
"493 143 CURVE SMOOTH",
"493 73 OFFCURVE",
"451 32 OFFCURVE",
"391 32 CURVE SMOOTH",
"368 32 OFFCURVE",
"354 38 OFFCURVE",
"347 44 CURVE",
"327 131 LINE",
"295 131 LINE",
"281 20 LINE",
"310 -2 OFFCURVE",
"347 -12 OFFCURVE",
"389 -12 CURVE SMOOTH"
);
}
);
width = 584;
},
{
layerId = "13e4c948-4684-4dcc-833a-03da9e1ebe8a";
paths = (
{
closed = 1;
nodes = (
"543 -8 OFFCURVE",
"611 67 OFFCURVE",
"611 163 CURVE SMOOTH",
"611 245 OFFCURVE",
"561 313 OFFCURVE",
"437 320 CURVE",
"562 539 LINE",
"557 572 LINE",
"513 605 OFFCURVE",
"429 629 OFFCURVE",
"357 629 CURVE SMOOTH",
"177 629 OFFCURVE",
"89 512 OFFCURVE",
"89 387 CURVE SMOOTH",
"89 75 LINE",
"5 49 LINE",
"5 0 LINE",
"242 0 LINE",
"242 48 LINE",
"242 75 LINE",
"242 396 LINE SMOOTH",
"242 475 OFFCURVE",
"258 545 OFFCURVE",
"345 545 CURVE SMOOTH",
"368 545 OFFCURVE",
"389 544 OFFCURVE",
"412 538 CURVE",
"278 289 LINE",
"296 255 LINE",
"404 255 OFFCURVE",
"474 230 OFFCURVE",
"474 149 CURVE SMOOTH",
"474 97 OFFCURVE",
"450 72 OFFCURVE",
"412 72 CURVE SMOOTH",
"387 72 OFFCURVE",
"369 78 OFFCURVE",
"355 84 CURVE",
"338 174 LINE",
"276 174 LINE",
"261 23 LINE",
"306 2 OFFCURVE",
"368 -8 OFFCURVE",
"415 -8 CURVE SMOOTH"
);
}
);
width = 611;
}
);
unicode = 1E9E;
},
{
glyphname = Schwa;
layers = (
{
background = {
paths = (
{
closed = 1;
nodes = (
"530 -9 OFFCURVE",
"605 134 OFFCURVE",
"605 309 CURVE SMOOTH",
"605 483 OFFCURVE",
"529 628 OFFCURVE",
"311 628 CURVE SMOOTH",
"230 628 OFFCURVE",
"156 608 OFFCURVE",
"89 572 CURVE",
"97 457 LINE",
"134 457 LINE",
"159 545 LINE",
"213 571 OFFCURVE",
"266 580 OFFCURVE",
"307 580 CURVE SMOOTH",
"458 580 OFFCURVE",
"509 458 OFFCURVE",
"514 329 CURVE",
"41 329 LINE",
"41 308 LINE SMOOTH",
"41 95 OFFCURVE",
"137 -9 OFFCURVE",
"318 -9 CURVE SMOOTH"
);
},
{
closed = 1;
nodes = (
"200 39 OFFCURVE",
"141 111 OFFCURVE",
"132 280 CURVE",
"514 280 LINE",
"507 164 OFFCURVE",
"475 39 OFFCURVE",
"319 39 CURVE SMOOTH"
);
}
);
};
layerId = "C2E97133-8774-4C1F-A96F-338CBADF7D3D";
paths = (
{
closed = 1;
nodes = (
"530 -9 OFFCURVE",
"605 134 OFFCURVE",
"605 309 CURVE SMOOTH",
"605 483 OFFCURVE",
"529 628 OFFCURVE",
"311 628 CURVE SMOOTH",
"230 628 OFFCURVE",
"156 608 OFFCURVE",
"89 572 CURVE",
"97 457 LINE",
"134 457 LINE",
"159 545 LINE",
"213 571 OFFCURVE",
"266 580 OFFCURVE",
"307 580 CURVE SMOOTH",
"458 580 OFFCURVE",
"509 458 OFFCURVE",
"514 329 CURVE",
"41 329 LINE",
"41 322 OFFCURVE",
"41 315 OFFCURVE",
"41 308 CURVE SMOOTH",
"41 95 OFFCURVE",
"137 -9 OFFCURVE",
"318 -9 CURVE SMOOTH"
);
},
{
closed = 1;
nodes = (
"200 39 OFFCURVE",
"141 111 OFFCURVE",
"132 280 CURVE",
"514 280 LINE",
"507 164 OFFCURVE",
"475 39 OFFCURVE",
"319 39 CURVE SMOOTH"
);
}
);
width = 646;
},
{
background = {
paths = (
{
closed = 1;
nodes = (
"514 -9 OFFCURVE",
"623 106 OFFCURVE",
"623 308 CURVE SMOOTH",
"623 483 OFFCURVE",
"541 628 OFFCURVE",
"313 628 CURVE SMOOTH",
"225 628 OFFCURVE",
"149 606 OFFCURVE",
"85 576 CURVE",
"93 435 LINE",
"146 435 LINE",
"171 521 LINE",
"219 545 OFFCURVE",
"266 555 OFFCURVE",
"305 555 CURVE SMOOTH",
"431 555 OFFCURVE",
"472 451 OFFCURVE",
"477 335 CURVE",
"31 335 LINE",
"30 323 OFFCURVE",
"30 316 OFFCURVE",
"30 307 CURVE SMOOTH",
"30 95 OFFCURVE",
"129 -9 OFFCURVE",
"317 -9 CURVE SMOOTH"
);
},
{
closed = 1;
nodes = (
"233 62 OFFCURVE",
"183 132 OFFCURVE",
"176 276 CURVE",
"477 276 LINE",
"473 181 OFFCURVE",
"448 62 OFFCURVE",
"326 62 CURVE SMOOTH"
);
}
);
};
layerId = "320D1F10-23EA-4160-876F-9C954522C215";
paths = (
{
closed = 1;
nodes = (
"514 -9 OFFCURVE",
"623 106 OFFCURVE",
"623 308 CURVE SMOOTH",
"623 483 OFFCURVE",
"541 628 OFFCURVE",
"313 628 CURVE SMOOTH",
"225 628 OFFCURVE",
"149 606 OFFCURVE",
"85 576 CURVE",
"93 435 LINE",
"146 435 LINE",
"171 521 LINE",
"219 545 OFFCURVE",
"266 555 OFFCURVE",
"305 555 CURVE SMOOTH",
"431 555 OFFCURVE",
"472 451 OFFCURVE",
"477 335 CURVE",
"31 335 LINE",
"30 323 OFFCURVE",
"30 316 OFFCURVE",
"30 307 CURVE SMOOTH",
"30 95 OFFCURVE",
"129 -9 OFFCURVE",
"317 -9 CURVE SMOOTH"
);
},
{
closed = 1;
nodes = (
"233 62 OFFCURVE",
"183 132 OFFCURVE",
"176 276 CURVE",
"477 276 LINE",
"473 181 OFFCURVE",
"448 62 OFFCURVE",
"326 62 CURVE SMOOTH"
);
}
);
width = 653;
},
{
layerId = "5f75e36f-2d9b-434e-b133-1931d65175c8";
paths = (
{
closed = 1;
nodes = (
"534 -9 OFFCURVE",
"601 141 OFFCURVE",
"601 309 CURVE SMOOTH",
"601 483 OFFCURVE",
"526 628 OFFCURVE",
"311 628 CURVE SMOOTH",
"231 628 OFFCURVE",
"158 609 OFFCURVE",
"90 571 CURVE",
"98 463 LINE",
"131 463 LINE",
"156 551 LINE",
"212 578 OFFCURVE",
"266 586 OFFCURVE",
"308 586 CURVE SMOOTH",
"465 586 OFFCURVE",
"518 460 OFFCURVE",
"523 328 CURVE",
"44 328 LINE",
"44 322 OFFCURVE",
"44 315 OFFCURVE",
"44 308 CURVE SMOOTH",
"44 95 OFFCURVE",
"139 -9 OFFCURVE",
"318 -9 CURVE SMOOTH"
);
},
{
closed = 1;
nodes = (
"192 33 OFFCURVE",
"131 106 OFFCURVE",
"121 281 CURVE",
"523 281 LINE",
"516 160 OFFCURVE",
"482 33 OFFCURVE",
"317 33 CURVE SMOOTH"
);
}
);
width = 645;
},
{
layerId = "13e4c948-4684-4dcc-833a-03da9e1ebe8a";
paths = (
{
closed = 1;
nodes = (
"508 -9 OFFCURVE",
"629 96 OFFCURVE",
"629 308 CURVE SMOOTH",
"629 483 OFFCURVE",
"545 628 OFFCURVE",
"314 628 CURVE SMOOTH",
"223 628 OFFCURVE",
"147 605 OFFCURVE",
"84 577 CURVE",
"92 427 LINE",
"150 427 LINE",
"175 513 LINE",
"221 536 OFFCURVE",
"266 546 OFFCURVE",
"304 546 CURVE SMOOTH",
"422 546 OFFCURVE",
"459 449 OFFCURVE",
"464 337 CURVE",
"28 337 LINE",
"26 323 OFFCURVE",
"26 316 OFFCURVE",
"26 307 CURVE SMOOTH",
"26 95 OFFCURVE",
"126 -9 OFFCURVE",
"317 -9 CURVE SMOOTH"
);
},
{
closed = 1;
nodes = (
"244 70 OFFCURVE",
"198 139 OFFCURVE",
"191 275 CURVE",
"464 275 LINE",
"461 187 OFFCURVE",
"439 70 OFFCURVE",
"328 70 CURVE SMOOTH"
);
}
);
width = 655;
}
);
leftKerningGroup = O;
leftMetricsKey = O;
rightKerningGroup = O;
rightMetricsKey = O;
unicode = 018F;
},
{
glyphname = T;
layers = (
{
anchors = (
{
name = bottom;
position = "{257, 0}";
},
{
name = center;
position = "{257, 306}";
},
{
name = top;
position = "{257, 611}";
}
);
background = {
paths = (
{
closed = 1;
nodes = (
"18 471 LINE",
"54 471 LINE",
"74 559 LINE",
"216 559 LINE",
"216 53 LINE",
"109 33 LINE",
"109 0 LINE",
"405 0 LINE",
"405 33 LINE",
"299 53 LINE",
"299 559 LINE",
"440 559 LINE",
"459 471 LINE",
"498 471 LINE",
"504 611 LINE",
"10 611 LINE"
);
}
);
};
layerId = "C2E97133-8774-4C1F-A96F-338CBADF7D3D";
paths = (
{
closed = 1;
nodes = (
"405 0 LINE",
"405 33 LINE",
"299 53 LINE",
"299 559 LINE",
"440 559 LINE",
"459 471 LINE",
"498 471 LINE",
"504 611 LINE",
"10 611 LINE",
"18 471 LINE",
"54 471 LINE",
"74 559 LINE",
"216 559 LINE",
"216 53 LINE",
"109 33 LINE",
"109 0 LINE"
);
}
);
width = 514;
},
{
anchors = (
{
name = bottom;
position = "{270, 0}";
},
{
name = center;
position = "{270, 307}";
},
{
name = top;
position = "{270, 614}";
}
);
background = {
paths = (
{
closed = 1;
nodes = (
"14 455 LINE",
"69 455 LINE",
"88 546 LINE",
"202 546 LINE",
"202 69 LINE",
"118 45 LINE",
"118 0 LINE",
"422 0 LINE",
"422 45 LINE",
"337 69 LINE",
"337 546 LINE",
"449 546 LINE",
"469 455 LINE",
"526 455 LINE",
"532 614 LINE",
"7 614 LINE"
);
}
);
};
layerId = "320D1F10-23EA-4160-876F-9C954522C215";
paths = (
{
closed = 1;
nodes = (
"422 0 LINE",
"422 45 LINE",
"337 69 LINE",
"337 546 LINE",
"449 546 LINE",
"469 455 LINE",
"526 455 LINE",
"532 614 LINE",
"7 614 LINE",
"14 455 LINE",
"69 455 LINE",
"88 546 LINE",
"202 546 LINE",
"202 69 LINE",
"118 45 LINE",
"118 0 LINE"
);
}
);
width = 539;
},
{
anchors = (
{
name = bottom;
position = "{255, 0}";
},
{
name = center;
position = "{254, 306}";
},
{
name = top;
position = "{254, 610}";
}
);
layerId = "5f75e36f-2d9b-434e-b133-1931d65175c8";
paths = (
{
closed = 1;
nodes = (
"401 0 LINE",
"401 30 LINE",
"290 49 LINE",
"290 562 LINE",
"438 562 LINE",
"457 475 LINE",
"491 475 LINE",
"497 610 LINE",
"11 610 LINE",
"19 475 LINE",
"50 475 LINE",
"71 562 LINE",
"220 562 LINE",
"220 49 LINE",
"107 30 LINE",
"107 0 LINE"
);
}
);
width = 508;
},
{
anchors = (
{
name = bottom;
position = "{275, 0}";
},
{
name = center;
position = "{275, 307}";
},
{
name = top;
position = "{275, 615}";
}
);
layerId = "13e4c948-4684-4dcc-833a-03da9e1ebe8a";
paths = (
{
closed = 1;
nodes = (
"428 0 LINE",
"428 49 LINE",
"350 75 LINE",
"350 542 LINE",
"452 542 LINE",
"472 449 LINE",
"536 449 LINE",
"542 615 LINE",
"6 615 LINE",
"13 449 LINE",
"74 449 LINE",
"93 542 LINE",
"197 542 LINE",
"197 75 LINE",
"121 49 LINE",
"121 0 LINE"
);
}
);
width = 548;
}
);
leftKerningGroup = T;
rightKerningGroup = T;
unicode = 0054;
},
{
glyphname = Tbar;
layers = (
{
components = (
{
name = T;
}
);
layerId = "C2E97133-8774-4C1F-A96F-338CBADF7D3D";
paths = (
{
closed = 1;
nodes = (
"477 286 LINE",
"477 332 LINE",
"42 332 LINE",
"42 286 LINE"
);
}
);
width = 514;
},
{
components = (
{
name = T;
}
);
layerId = "320D1F10-23EA-4160-876F-9C954522C215";
paths = (
{
closed = 1;
nodes = (
"503 288 LINE",
"503 343 LINE",
"39 343 LINE",
"39 288 LINE"
);
}
);
width = 539;
},
{
components = (
{
alignment = -1;
name = T;
}
);
layerId = "5f75e36f-2d9b-434e-b133-1931d65175c8";
paths = (
{
closed = 1;
nodes = (
"471 286 LINE",
"471 329 LINE",
"43 329 LINE",
"43 286 LINE"
);
}
);
width = 508;
},
{
components = (
{
alignment = -1;
name = T;
}
);
layerId = "13e4c948-4684-4dcc-833a-03da9e1ebe8a";
paths = (
{
closed = 1;
nodes = (
"512 289 LINE",
"512 347 LINE",
"38 347 LINE",
"38 289 LINE"
);
}
);
width = 548;
}
);
leftKerningGroup = T;
leftMetricsKey = T;
rightKerningGroup = T;
rightMetricsKey = T;
unicode = 0166;
},
{
glyphname = Tcedilla;
layers = (
{
background = {
paths = (
{
closed = 1;
nodes = (
"296 -219 OFFCURVE",
"359 -173 OFFCURVE",
"359 -116 CURVE SMOOTH",
"359 -79 OFFCURVE",
"325 -46 OFFCURVE",
"252 -46 CURVE",
"267 0 LINE",
"405 0 LINE",
"405 33 LINE",
"299 53 LINE",
"299 559 LINE",
"440 559 LINE",
"459 471 LINE",
"498 471 LINE",
"504 611 LINE",
"10 611 LINE",
"18 471 LINE",
"54 471 LINE",
"74 559 LINE",
"216 559 LINE",
"216 53 LINE",
"109 33 LINE",
"109 0 LINE",
"237 0 LINE",
"214 -67 LINE",
"217 -76 LINE",
"273 -76 OFFCURVE",
"294 -98 OFFCURVE",
"294 -124 CURVE SMOOTH",
"294 -161 OFFCURVE",
"262 -192 OFFCURVE",
"215 -192 CURVE SMOOTH",
"203 -192 OFFCURVE",
"193 -190 OFFCURVE",
"180 -186 CURVE",
"172 -211 LINE",
"189 -217 OFFCURVE",
"207 -219 OFFCURVE",
"224 -219 CURVE SMOOTH"
);
}
);
};
components = (
{
name = T;
},
{
name = cedillacomb.case;
transform = "{1, 0, 0, 1, 164, 0}";
}
);
layerId = "C2E97133-8774-4C1F-A96F-338CBADF7D3D";
width = 514;
},
{
background = {
paths = (
{
closed = 1;
nodes = (
"314 -220 OFFCURVE",
"379 -174 OFFCURVE",
"379 -118 CURVE SMOOTH",
"379 -78 OFFCURVE",
"348 -46 OFFCURVE",
"280 -46 CURVE",
"294 0 LINE",
"422 0 LINE",
"422 45 LINE",
"337 69 LINE",
"337 546 LINE",
"449 546 LINE",
"469 455 LINE",
"526 455 LINE",
"532 614 LINE",
"7 614 LINE",
"14 455 LINE",
"69 455 LINE",
"88 546 LINE",
"202 546 LINE",
"202 69 LINE",
"118 45 LINE",
"118 0 LINE",
"248 0 LINE",
"221 -73 LINE",
"228 -92 LINE",
"269 -93 OFFCURVE",
"283 -112 OFFCURVE",
"283 -131 CURVE SMOOTH",
"283 -152 OFFCURVE",
"264 -176 OFFCURVE",
"225 -176 CURVE SMOOTH",
"215 -176 OFFCURVE",
"206 -174 OFFCURVE",
"197 -169 CURVE",
"189 -209 LINE",
"206 -217 OFFCURVE",
"224 -220 OFFCURVE",
"243 -220 CURVE SMOOTH"
);
}
);
};
components = (
{
name = T;
},
{
name = cedillacomb.case;
transform = "{1, 0, 0, 1, 175, 0}";
}
);
layerId = "320D1F10-23EA-4160-876F-9C954522C215";
width = 539;
},
{
background = {
paths = (
{
closed = 1;
nodes = (
"292 -219 OFFCURVE",
"354 -173 OFFCURVE",
"354 -116 CURVE SMOOTH",
"354 -79 OFFCURVE",
"319 -46 OFFCURVE",
"245 -46 CURVE",
"260 0 LINE",
"401 0 LINE",
"401 30 LINE",
"290 49 LINE",
"290 562 LINE",
"438 562 LINE",
"457 475 LINE",
"491 475 LINE",
"497 610 LINE",
"11 610 LINE",
"19 475 LINE",
"50 475 LINE",
"71 562 LINE",
"220 562 LINE",
"220 49 LINE",
"107 30 LINE",
"107 0 LINE",
"234 0 LINE",
"212 -66 LINE",
"214 -72 LINE",
"274 -72 OFFCURVE",
"297 -95 OFFCURVE",
"297 -122 CURVE SMOOTH",
"297 -163 OFFCURVE",
"262 -196 OFFCURVE",
"213 -196 CURVE SMOOTH",
"200 -196 OFFCURVE",
"190 -194 OFFCURVE",
"176 -190 CURVE",
"168 -212 LINE",
"185 -217 OFFCURVE",
"203 -219 OFFCURVE",
"219 -219 CURVE SMOOTH"
);
}
);
};
components = (
{
name = T;
},
{
name = cedillacomb.case;
transform = "{1, 0, 0, 1, 162, 0}";
}
);
layerId = "5f75e36f-2d9b-434e-b133-1931d65175c8";
width = 508;
},
{
background = {
paths = (
{
closed = 1;
nodes = (
"320 -220 OFFCURVE",
"386 -174 OFFCURVE",
"386 -119 CURVE SMOOTH",
"386 -78 OFFCURVE",
"356 -46 OFFCURVE",
"290 -46 CURVE",
"303 0 LINE",
"428 0 LINE",
"428 49 LINE",
"350 75 LINE",
"350 542 LINE",
"452 542 LINE",
"472 449 LINE",
"536 449 LINE",
"542 615 LINE",
"6 615 LINE",
"13 449 LINE",
"74 449 LINE",
"93 542 LINE",
"197 542 LINE",
"197 75 LINE",
"121 49 LINE",
"121 0 LINE",
"252 0 LINE",
"223 -75 LINE",
"232 -98 LINE",
"268 -99 OFFCURVE",
"279 -117 OFFCURVE",
"279 -133 CURVE SMOOTH",
"279 -149 OFFCURVE",
"265 -170 OFFCURVE",
"228 -170 CURVE SMOOTH",
"219 -170 OFFCURVE",
"211 -168 OFFCURVE",
"203 -163 CURVE",
"195 -208 LINE",
"212 -217 OFFCURVE",
"230 -220 OFFCURVE",
"250 -220 CURVE SMOOTH"
);
}
);
};
components = (
{
name = T;
},
{
name = cedillacomb.case;
transform = "{1, 0, 0, 1, 180, 0}";
}
);
layerId = "13e4c948-4684-4dcc-833a-03da9e1ebe8a";
width = 548;
}
);
leftKerningGroup = T;
rightKerningGroup = T;
unicode = 0162;
},
{
glyphname = U;
layers = (
{
anchors = (
{
name = bottom;
position = "{326, 0}";
},
{
name = ogonek;
position = "{454, 10}";
},
{
name = top;
position = "{336, 611}";
},
{
name = topright;
position = "{627, 680}";
}
);
background = {
paths = (
{
closed = 1;
nodes = (
"556 559 LINE",
"636 578 LINE",
"636 611 LINE",
"413 611 LINE",
"413 578 LINE",
"499 559 LINE",
"499 237 LINE SMOOTH",
"499 122 OFFCURVE",
"456 41 OFFCURVE",
"333 41 CURVE SMOOTH",
"204 41 OFFCURVE",
"183 144 OFFCURVE",
"183 264 CURVE SMOOTH",
"183 558 LINE",
"273 578 LINE",
"273 611 LINE",
"9 611 LINE",
"9 578 LINE",
"100 558 LINE",
"100 264 LINE SMOOTH",
"100 119 OFFCURVE",
"130 -10 OFFCURVE",
"329 -10 CURVE SMOOTH",
"527 -10 OFFCURVE",
"556 147 OFFCURVE",
"556 236 CURVE SMOOTH"
);
}
);
};
layerId = "C2E97133-8774-4C1F-A96F-338CBADF7D3D";
paths = (
{
closed = 1;
nodes = (
"527 -10 OFFCURVE",
"556 147 OFFCURVE",
"556 236 CURVE SMOOTH",
"556 559 LINE",
"636 578 LINE",
"636 611 LINE",
"413 611 LINE",
"413 578 LINE",
"499 559 LINE",
"499 237 LINE SMOOTH",
"499 122 OFFCURVE",
"456 41 OFFCURVE",
"333 41 CURVE SMOOTH",
"204 41 OFFCURVE",
"183 144 OFFCURVE",
"183 264 CURVE SMOOTH",
"183 558 LINE",
"273 578 LINE",
"273 611 LINE",
"9 611 LINE",
"9 578 LINE",
"100 558 LINE",
"100 264 LINE SMOOTH",
"100 119 OFFCURVE",
"130 -10 OFFCURVE",
"329 -10 CURVE SMOOTH"
);
}
);
width = 651;
},
{
anchors = (
{
name = bottom;
position = "{331, 0}";
},
{
name = ogonek;
position = "{487, 10}";
},
{
name = top;
position = "{354, 614}";
},
{
name = topright;
position = "{615, 683}";
}
);
background = {
paths = (
{
closed = 1;
nodes = (
"572 546 LINE",
"657 569 LINE",
"657 614 LINE",
"412 614 LINE",
"412 569 LINE",
"497 546 LINE",
"497 245 LINE SMOOTH",
"497 141 OFFCURVE",
"456 63 OFFCURVE",
"356 63 CURVE SMOOTH",
"242 63 OFFCURVE",
"226 150 OFFCURVE",
"226 265 CURVE SMOOTH",
"226 546 LINE",
"311 569 LINE",
"311 614 LINE",
"6 614 LINE",
"6 569 LINE",
"91 546 LINE",
"91 265 LINE SMOOTH",
"91 117 OFFCURVE",
"129 -9 OFFCURVE",
"336 -9 CURVE SMOOTH",
"542 -9 OFFCURVE",
"572 159 OFFCURVE",
"572 236 CURVE SMOOTH"
);
}
);
};
layerId = "320D1F10-23EA-4160-876F-9C954522C215";
paths = (
{
closed = 1;
nodes = (
"542 -9 OFFCURVE",
"572 159 OFFCURVE",
"572 236 CURVE SMOOTH",
"572 546 LINE",
"657 569 LINE",
"657 614 LINE",
"412 614 LINE",
"412 569 LINE",
"497 546 LINE",
"497 245 LINE SMOOTH",
"497 141 OFFCURVE",
"456 63 OFFCURVE",
"356 63 CURVE SMOOTH",
"242 63 OFFCURVE",
"226 150 OFFCURVE",
"226 265 CURVE SMOOTH",
"226 546 LINE",
"311 569 LINE",
"311 614 LINE",
"6 614 LINE",
"6 569 LINE",
"91 546 LINE",
"91 265 LINE SMOOTH",
"91 117 OFFCURVE",
"129 -9 OFFCURVE",
"336 -9 CURVE SMOOTH"
);
}
);
width = 661;
},
{
anchors = (
{
name = bottom;
position = "{325, 0}";
},
{
name = ogonek;
position = "{446, 10}";
},
{
name = top;
position = "{332, 610}";
},
{
name = topright;
position = "{630, 679}";
}
);
layerId = "5f75e36f-2d9b-434e-b133-1931d65175c8";
paths = (
{
closed = 1;
nodes = (
"523 -10 OFFCURVE",
"552 144 OFFCURVE",
"552 236 CURVE SMOOTH",
"552 562 LINE",
"631 580 LINE",
"631 610 LINE",
"413 610 LINE",
"413 580 LINE",
"500 562 LINE",
"500 235 LINE SMOOTH",
"500 117 OFFCURVE",
"456 36 OFFCURVE",
"327 36 CURVE SMOOTH",
"195 36 OFFCURVE",
"172 143 OFFCURVE",
"172 264 CURVE SMOOTH",
"172 561 LINE",
"264 580 LINE",
"264 610 LINE",
"10 610 LINE",
"10 580 LINE",
"102 561 LINE",
"102 264 LINE SMOOTH",
"102 120 OFFCURVE",
"130 -10 OFFCURVE",
"327 -10 CURVE SMOOTH"
);
}
);
width = 649;
},
{
anchors = (
{
name = bottom;
position = "{333, 0}";
},
{
name = ogonek;
position = "{495, 10}";
},
{
name = top;
position = "{360, 615}";
},
{
name = topright;
position = "{611, 684}";
}
);
layerId = "13e4c948-4684-4dcc-833a-03da9e1ebe8a";
paths = (
{
closed = 1;
nodes = (
"547 -9 OFFCURVE",
"578 163 OFFCURVE",
"578 236 CURVE SMOOTH",
"578 542 LINE",
"664 566 LINE",
"664 615 LINE",
"412 615 LINE",
"412 566 LINE",
"496 542 LINE",
"496 248 LINE SMOOTH",
"496 148 OFFCURVE",
"456 71 OFFCURVE",
"364 71 CURVE SMOOTH",
"255 71 OFFCURVE",
"241 152 OFFCURVE",
"241 265 CURVE SMOOTH",
"241 542 LINE",
"324 566 LINE",
"324 615 LINE",
"5 615 LINE",
"5 566 LINE",
"88 542 LINE",
"88 265 LINE SMOOTH",
"88 116 OFFCURVE",
"129 -9 OFFCURVE",
"338 -9 CURVE SMOOTH"
);
}
);
width = 664;
}
);
leftKerningGroup = U;
rightKerningGroup = U;
unicode = 0055;
},
{
glyphname = Uhorn;
layers = (
{
anchors = (
{
name = bottom;
position = "{326, 0}";
},
{
name = ogonek;
position = "{586, 10}";
},
{
name = top;
position = "{336, 611}";
}
);
components = (
{
name = horncomb;
transform = "{1, 0, 0, 1, 519, 189}";
}
);
layerId = "C2E97133-8774-4C1F-A96F-338CBADF7D3D";
paths = (
{
closed = 1;
nodes = (
"527 -10 OFFCURVE",
"556 147 OFFCURVE",
"556 236 CURVE SMOOTH",
"556 559 LINE",
"625 588 LINE",
"622 611 LINE",
"413 611 LINE",
"413 578 LINE",
"499 559 LINE",
"499 237 LINE SMOOTH",
"499 122 OFFCURVE",
"456 41 OFFCURVE",
"333 41 CURVE SMOOTH",
"204 41 OFFCURVE",
"183 144 OFFCURVE",
"183 264 CURVE SMOOTH",
"183 558 LINE",
"273 578 LINE",
"273 611 LINE",
"9 611 LINE",
"9 578 LINE",
"100 558 LINE",
"100 264 LINE SMOOTH",
"100 119 OFFCURVE",
"130 -10 OFFCURVE",
"329 -10 CURVE SMOOTH"
);
}
);
width = 651;
},
{
anchors = (
{
name = bottom;
position = "{331, 0}";
},
{
name = ogonek;
position = "{487, 10}";
},
{
name = top;
position = "{355, 614}";
}
);
components = (
{
name = horncomb;
transform = "{1, 0, 0, 1, 507, 191}";
}
);
layerId = "320D1F10-23EA-4160-876F-9C954522C215";
paths = (
{
closed = 1;
nodes = (
"542 -9 OFFCURVE",
"572 159 OFFCURVE",
"572 236 CURVE SMOOTH",
"572 546 LINE",
"646 605 LINE",
"605 614 LINE",
"412 614 LINE",
"412 569 LINE",
"497 546 LINE",
"497 245 LINE SMOOTH",
"497 141 OFFCURVE",
"456 63 OFFCURVE",
"356 63 CURVE SMOOTH",
"242 63 OFFCURVE",
"226 150 OFFCURVE",
"226 265 CURVE SMOOTH",
"226 546 LINE",
"311 569 LINE",
"311 614 LINE",
"6 614 LINE",
"6 569 LINE",
"91 546 LINE",
"91 265 LINE SMOOTH",
"91 117 OFFCURVE",
"129 -9 OFFCURVE",
"336 -9 CURVE SMOOTH"
);
}
);
width = 661;
},
{
anchors = (
{
name = bottom;
position = "{325, 0}";
},
{
name = ogonek;
position = "{611, 10}";
},
{
name = top;
position = "{335, 610}";
}
);
components = (
{
alignment = -1;
name = horncomb;
transform = "{1, 0, 0, 1, 522, 187}";
}
);
layerId = "5f75e36f-2d9b-434e-b133-1931d65175c8";
paths = (
{
closed = 1;
nodes = (
"523 -10 OFFCURVE",
"552 144 OFFCURVE",
"552 236 CURVE SMOOTH",
"552 562 LINE",
"620 584 LINE",
"626 610 LINE",
"413 610 LINE",
"413 580 LINE",
"500 562 LINE",
"500 235 LINE SMOOTH",
"500 117 OFFCURVE",
"456 36 OFFCURVE",
"327 36 CURVE SMOOTH",
"195 36 OFFCURVE",
"172 143 OFFCURVE",
"172 264 CURVE SMOOTH",
"172 561 LINE",
"264 580 LINE",
"264 610 LINE",
"10 610 LINE",
"10 580 LINE",
"102 561 LINE",
"102 264 LINE SMOOTH",
"102 120 OFFCURVE",
"130 -10 OFFCURVE",
"327 -10 CURVE SMOOTH"
);
}
);
width = 649;
},
{
anchors = (
{
name = bottom;
position = "{333, 0}";
},
{
name = ogonek;
position = "{453, 10}";
},
{
name = top;
position = "{362, 615}";
}
);
components = (
{
alignment = -1;
name = horncomb;
transform = "{1, 0, 0, 1, 507, 192}";
}
);
layerId = "13e4c948-4684-4dcc-833a-03da9e1ebe8a";
paths = (
{
closed = 1;
nodes = (
"547 -9 OFFCURVE",
"578 163 OFFCURVE",
"578 236 CURVE SMOOTH",
"578 542 LINE",
"653 611 LINE",
"599 615 LINE",
"412 615 LINE",
"412 566 LINE",
"496 542 LINE",
"496 248 LINE SMOOTH",
"496 148 OFFCURVE",
"456 71 OFFCURVE",
"364 71 CURVE SMOOTH",
"255 71 OFFCURVE",
"241 152 OFFCURVE",
"241 265 CURVE SMOOTH",
"241 542 LINE",
"324 566 LINE",
"324 615 LINE",
"5 615 LINE",
"5 566 LINE",
"88 542 LINE",
"88 265 LINE SMOOTH",
"88 116 OFFCURVE",
"129 -9 OFFCURVE",
"338 -9 CURVE SMOOTH"
);
}
);
width = 664;
}
);
leftKerningGroup = U;
leftMetricsKey = U;
rightKerningGroup = U;
unicode = 01AF;
},
{
glyphname = Uogonek;
layers = (
{
background = {
components = (
{
name = U;
},
{
name = ogonekcomb.case;
transform = "{1, 0, 0, 1, 266, 0}";
}
);
};
layerId = "C2E97133-8774-4C1F-A96F-338CBADF7D3D";
paths = (
{
closed = 1;
nodes = (
"425 -236 OFFCURVE",
"455 -186 OFFCURVE",
"455 -186 CURVE",
"438 -170 LINE",
"423 -186 OFFCURVE",
"405 -192 OFFCURVE",
"388 -192 CURVE SMOOTH",
"355 -192 OFFCURVE",
"334 -171 OFFCURVE",
"334 -133 CURVE SMOOTH",
"334 -91 OFFCURVE",
"346 -21 OFFCURVE",
"409 0 CURVE",
"535 37 OFFCURVE",
"556 161 OFFCURVE",
"556 236 CURVE SMOOTH",
"556 559 LINE",
"636 578 LINE",
"636 611 LINE",
"413 611 LINE",
"413 578 LINE",
"499 559 LINE",
"499 237 LINE SMOOTH",
"499 122 OFFCURVE",
"456 41 OFFCURVE",
"333 41 CURVE SMOOTH",
"204 41 OFFCURVE",
"183 144 OFFCURVE",
"183 264 CURVE SMOOTH",
"183 558 LINE",
"273 578 LINE",
"273 611 LINE",
"9 611 LINE",
"9 578 LINE",
"100 558 LINE",
"100 264 LINE SMOOTH",
"100 119 OFFCURVE",
"130 -10 OFFCURVE",
"329 -10 CURVE SMOOTH",
"332 -10 OFFCURVE",
"336 -10 OFFCURVE",
"339 -10 CURVE",
"289 -48 OFFCURVE",
"266 -100 OFFCURVE",
"266 -151 CURVE SMOOTH",
"266 -194 OFFCURVE",
"294 -236 OFFCURVE",
"361 -236 CURVE SMOOTH"
);
}
);
width = 651;
},
{
background = {
components = (
{
name = U;
},
{
name = ogonekcomb.case;
transform = "{1, 0, 0, 1, 275, 0}";
}
);
};
layerId = "320D1F10-23EA-4160-876F-9C954522C215";
paths = (
{
closed = 1;
nodes = (
"453 -233 OFFCURVE",
"487 -171 OFFCURVE",
"487 -171 CURVE",
"464 -149 LINE",
"444 -163 OFFCURVE",
"425 -171 OFFCURVE",
"403 -171 CURVE SMOOTH",
"371 -171 OFFCURVE",
"360 -151 OFFCURVE",
"360 -126 CURVE SMOOTH",
"360 -49 OFFCURVE",
"409 -13 OFFCURVE",
"470 24 CURVE SMOOTH",
"555 76 OFFCURVE",
"572 180 OFFCURVE",
"572 236 CURVE SMOOTH",
"572 546 LINE",
"657 569 LINE",
"657 614 LINE",
"412 614 LINE",
"412 569 LINE",
"497 546 LINE",
"497 245 LINE SMOOTH",
"497 141 OFFCURVE",
"456 63 OFFCURVE",
"356 63 CURVE SMOOTH",
"242 63 OFFCURVE",
"226 150 OFFCURVE",
"226 265 CURVE SMOOTH",
"226 546 LINE",
"311 569 LINE",
"311 614 LINE",
"6 614 LINE",
"6 569 LINE",
"91 546 LINE",
"91 265 LINE SMOOTH",
"91 117 OFFCURVE",
"129 -9 OFFCURVE",
"336 -9 CURVE SMOOTH",
"343 -9 OFFCURVE",
"362 -7 OFFCURVE",
"375 -3 CURVE",
"313 -49 OFFCURVE",
"275 -99 OFFCURVE",
"275 -147 CURVE SMOOTH",
"275 -189 OFFCURVE",
"298 -233 OFFCURVE",
"377 -233 CURVE SMOOTH"
);
}
);
width = 661;
},
{
background = {
components = (
{
name = U;
},
{
name = ogonekcomb.case;
transform = "{1, 0, 0, 1, 264, 0}";
}
);
};
layerId = "5f75e36f-2d9b-434e-b133-1931d65175c8";
paths = (
{
closed = 1;
nodes = (
"418 -237 OFFCURVE",
"444 -195 OFFCURVE",
"447 -190 CURVE",
"432 -175 LINE",
"418 -192 OFFCURVE",
"400 -197 OFFCURVE",
"384 -197 CURVE SMOOTH",
"338 -197 OFFCURVE",
"327 -153 OFFCURVE",
"327 -116 CURVE SMOOTH",
"327 -78 OFFCURVE",
"340 -19 OFFCURVE",
"394 -6 CURVE SMOOTH",
"530 28 OFFCURVE",
"552 156 OFFCURVE",
"552 236 CURVE SMOOTH",
"552 562 LINE",
"631 580 LINE",
"631 610 LINE",
"413 610 LINE",
"413 580 LINE",
"500 562 LINE",
"500 235 LINE SMOOTH",
"500 117 OFFCURVE",
"456 36 OFFCURVE",
"327 36 CURVE SMOOTH",
"195 36 OFFCURVE",
"172 143 OFFCURVE",
"172 264 CURVE SMOOTH",
"172 561 LINE",
"264 580 LINE",
"264 610 LINE",
"10 610 LINE",
"10 580 LINE",
"102 561 LINE",
"102 264 LINE SMOOTH",
"102 120 OFFCURVE",
"130 -10 OFFCURVE",
"327 -10 CURVE",
"329 -10 OFFCURVE",
"330 -11 OFFCURVE",
"330 -12 CURVE",
"287 -45 OFFCURVE",
"263 -91 OFFCURVE",
"263 -138 CURVE SMOOTH",
"263 -196 OFFCURVE",
"295 -237 OFFCURVE",
"357 -237 CURVE SMOOTH"
);
}
);
width = 649;
},
{
background = {
components = (
{
name = U;
},
{
name = ogonekcomb.case;
transform = "{1, 0, 0, 1, 275, 0}";
}
);
};
layerId = "13e4c948-4684-4dcc-833a-03da9e1ebe8a";
paths = (
{
closed = 1;
nodes = (
"463 -232 OFFCURVE",
"498 -166 OFFCURVE",
"498 -166 CURVE",
"473 -142 LINE",
"451 -155 OFFCURVE",
"432 -164 OFFCURVE",
"408 -164 CURVE SMOOTH",
"377 -164 OFFCURVE",
"369 -144 OFFCURVE",
"369 -124 CURVE SMOOTH",
"369 -34 OFFCURVE",
"431 -10 OFFCURVE",
"491 32 CURVE",
"562 90 OFFCURVE",
"578 187 OFFCURVE",
"578 236 CURVE SMOOTH",
"578 542 LINE",
"664 566 LINE",
"664 615 LINE",
"412 615 LINE",
"412 566 LINE",
"496 542 LINE",
"496 248 LINE SMOOTH",
"496 148 OFFCURVE",
"456 71 OFFCURVE",
"364 71 CURVE SMOOTH",
"255 71 OFFCURVE",
"241 152 OFFCURVE",
"241 265 CURVE SMOOTH",
"241 542 LINE",
"324 566 LINE",
"324 615 LINE",
"5 615 LINE",
"5 566 LINE",
"88 542 LINE",
"88 265 LINE SMOOTH",
"88 116 OFFCURVE",
"129 -9 OFFCURVE",
"338 -9 CURVE SMOOTH",
"347 -9 OFFCURVE",
"371 -6 OFFCURVE",
"387 -1 CURVE",
"321 -49 OFFCURVE",
"278 -99 OFFCURVE",
"278 -146 CURVE SMOOTH",
"278 -187 OFFCURVE",
"299 -232 OFFCURVE",
"383 -232 CURVE SMOOTH"
);
}
);
width = 664;
}
);
leftKerningGroup = U;
leftMetricsKey = U;
rightKerningGroup = U;
rightMetricsKey = U;
unicode = 0172;
},
{
glyphname = V;
layers = (
{
anchors = (
{
name = bottom;
position = "{300, 0}";
},
{
name = top;
position = "{300, 611}";
}
);
background = {
paths = (
{
closed = 1;
nodes = (
"463 558 LINE",
"324 126 LINE",
"318 101 LINE",
"312 126 LINE",
"163 558 LINE",
"222 578 LINE",
"222 611 LINE",
"5 611 LINE",
"5 578 LINE",
"77 558 LINE",
"273 -10 LINE",
"336 2 LINE",
"523 558 LINE",
"595 578 LINE",
"595 611 LINE",
"391 611 LINE",
"391 578 LINE"
);
}
);
};
layerId = "C2E97133-8774-4C1F-A96F-338CBADF7D3D";
paths = (
{
closed = 1;
nodes = (
"336 2 LINE",
"523 558 LINE",
"595 578 LINE",
"595 611 LINE",
"391 611 LINE",
"391 578 LINE",
"463 558 LINE",
"323 121 LINE",
"317 96 LINE",
"312 121 LINE",
"163 558 LINE",
"222 578 LINE",
"222 611 LINE",
"5 611 LINE",
"5 578 LINE",
"77 558 LINE",
"273 -10 LINE"
);
}
);
width = 600;
},
{
anchors = (
{
name = bottom;
position = "{288, 0}";
},
{
name = top;
position = "{288, 614}";
}
);
background = {
paths = (
{
closed = 1;
nodes = (
"448 546 LINE",
"331 180 LINE",
"209 549 LINE",
"274 569 LINE",
"274 614 LINE",
"-4 614 LINE",
"-4 569 LINE",
"67 545 LINE",
"267 -10 LINE",
"344 3 LINE",
"529 545 LINE",
"600 570 LINE",
"600 614 LINE",
"380 614 LINE",
"380 569 LINE"
);
}
);
};
layerId = "320D1F10-23EA-4160-876F-9C954522C215";
paths = (
{
closed = 1;
nodes = (
"339 3 LINE",
"524 545 LINE",
"595 570 LINE",
"595 614 LINE",
"375 614 LINE",
"375 569 LINE",
"443 546 LINE",
"330 194 LINE",
"326 174 LINE",
"322 193 LINE",
"204 549 LINE",
"269 569 LINE",
"269 614 LINE",
"-9 614 LINE",
"-9 569 LINE",
"62 545 LINE",
"262 -10 LINE"
);
}
);
width = 585;
},
{
anchors = (
{
name = bottom;
position = "{304, 0}";
},
{
name = top;
position = "{304, 610}";
}
);
background = {
paths = (
{
closed = 1;
nodes = (
"336 2 LINE",
"524 561 LINE",
"596 580 LINE",
"596 610 LINE",
"396 610 LINE",
"396 580 LINE",
"469 561 LINE",
"323 109 LINE",
"315 68 LINE",
"310 96 LINE",
"154 560 LINE",
"211 580 LINE",
"211 610 LINE",
"9 610 LINE",
"9 580 LINE",
"82 561 LINE",
"277 -10 LINE"
);
}
);
};
layerId = "5f75e36f-2d9b-434e-b133-1931d65175c8";
paths = (
{
closed = 1;
nodes = (
"336 2 LINE",
"524 561 LINE",
"596 580 LINE",
"596 610 LINE",
"396 610 LINE",
"396 580 LINE",
"469 561 LINE",
"321 100 LINE",
"315 68 LINE",
"310 96 LINE",
"154 560 LINE",
"211 580 LINE",
"211 610 LINE",
"9 610 LINE",
"9 580 LINE",
"82 561 LINE",
"277 -10 LINE"
);
}
);
width = 604;
},
{
anchors = (
{
name = bottom;
position = "{284, 0}";
},
{
name = top;
position = "{284, 615}";
}
);
layerId = "13e4c948-4684-4dcc-833a-03da9e1ebe8a";
paths = (
{
closed = 1;
nodes = (
"340 3 LINE",
"524 541 LINE",
"595 567 LINE",
"595 615 LINE",
"369 615 LINE",
"369 566 LINE",
"436 542 LINE",
"333 218 LINE",
"329 198 LINE",
"326 216 LINE",
"218 546 LINE",
"285 566 LINE",
"285 615 LINE",
"-14 615 LINE",
"-14 566 LINE",
"57 541 LINE",
"258 -10 LINE"
);
}
);
width = 580;
}
);
leftKerningGroup = V;
rightKerningGroup = V;
unicode = 0056;
},
{
glyphname = W;
layers = (
{
anchors = (
{
name = bottom;
position = "{407, 0}";
},
{
name = top;
position = "{412, 611}";
}
);
layerId = "C2E97133-8774-4C1F-A96F-338CBADF7D3D";
paths = (
{
closed = 1;
nodes = (
"283 2 LINE",
"412 454 LINE",
"396 454 LINE",
"539 -9 LINE",
"595 2 LINE",
"732 558 LINE",
"805 578 LINE",
"805 611 LINE",
"598 611 LINE",
"598 578 LINE",
"669 558 LINE",
"562 93 LINE",
"585 93 LINE",
"444 570 LINE",
"378 558 LINE",
"253 97 LINE",
"280 97 LINE",
"166 558 LINE",
"224 578 LINE",
"224 611 LINE",
"5 611 LINE",
"5 578 LINE",
"77 558 LINE",
"228 -9 LINE"
);
}
);
width = 810;
},
{
anchors = (
{
name = bottom;
position = "{420, 0}";
},
{
name = top;
position = "{430, 614}";
}
);
layerId = "320D1F10-23EA-4160-876F-9C954522C215";
paths = (
{
closed = 1;
nodes = (
"295 3 LINE",
"415 459 LINE",
"396 458 LINE",
"535 -10 LINE",
"612 3 LINE",
"738 546 LINE",
"809 570 LINE",
"809 614 LINE",
"589 614 LINE",
"589 569 LINE",
"659 546 LINE",
"576 132 LINE",
"608 133 LINE",
"482 563 LINE",
"365 540 LINE",
"262 132 LINE",
"295 133 LINE",
"204 549 LINE",
"269 569 LINE",
"269 614 LINE",
"-9 614 LINE",
"-9 569 LINE",
"62 545 LINE",
"218 -10 LINE"
);
}
);
width = 799;
},
{
anchors = (
{
name = bottom;
position = "{409, 0}";
},
{
name = top;
position = "{413, 610}";
}
);
layerId = "5f75e36f-2d9b-434e-b133-1931d65175c8";
paths = (
{
closed = 1;
nodes = (
"282 2 LINE",
"412 455 LINE",
"401 455 LINE",
"543 -9 LINE",
"591 2 LINE",
"728 561 LINE",
"804 580 LINE",
"804 610 LINE",
"601 610 LINE",
"601 580 LINE",
"671 561 LINE",
"561 83 LINE",
"580 83 LINE",
"434 572 LINE",
"383 563 LINE",
"254 88 LINE",
"277 88 LINE",
"159 560 LINE",
"213 580 LINE",
"213 610 LINE",
"9 610 LINE",
"9 580 LINE",
"81 561 LINE",
"234 -9 LINE"
);
}
);
width = 812;
},
{
anchors = (
{
name = bottom;
position = "{417, 0}";
},
{
name = top;
position = "{427, 615}";
}
);
background = {
paths = (
{
closed = 1;
nodes = (
"299 3 LINE",
"422 459 LINE",
"383 459 LINE",
"533 -10 LINE",
"618 3 LINE",
"740 542 LINE",
"811 567 LINE",
"811 615 LINE",
"586 615 LINE",
"586 566 LINE",
"656 542 LINE",
"581 146 LINE",
"616 147 LINE",
"501 561 LINE",
"355 534 LINE",
"265 144 LINE",
"302 145 LINE",
"217 546 LINE",
"285 566 LINE",
"285 615 LINE",
"-14 615 LINE",
"-14 566 LINE",
"57 541 LINE",
"215 -10 LINE"
);
}
);
};
layerId = "13e4c948-4684-4dcc-833a-03da9e1ebe8a";
paths = (
{
closed = 1;
nodes = (
"299 3 LINE",
"416 459 LINE",
"389 459 LINE",
"533 -10 LINE",
"618 3 LINE",
"740 542 LINE",
"811 567 LINE",
"811 615 LINE",
"586 615 LINE",
"586 566 LINE",
"656 542 LINE",
"581 146 LINE",
"616 147 LINE",
"496 561 LINE",
"360 534 LINE",
"265 144 LINE",
"302 145 LINE",
"217 546 LINE",
"285 566 LINE",
"285 615 LINE",
"-14 615 LINE",
"-14 566 LINE",
"57 541 LINE",
"215 -10 LINE"
);
}
);
width = 796;
}
);
leftKerningGroup = V;
leftMetricsKey = V;
rightKerningGroup = V;
rightMetricsKey = V;
unicode = 0057;
},
{
glyphname = X;
layers = (
{
anchors = (
{
name = bottom;
position = "{282, 0}";
},
{
name = top;
position = "{282, 611}";
}
);
background = {
paths = (
{
closed = 1;
nodes = (
"140 53 LINE",
"268 254 LINE",
"399 52 LINE",
"340 33 LINE",
"340 0 LINE",
"566 0 LINE",
"566 33 LINE",
"498 52 LINE",
"331 311 LINE",
"492 558 LINE",
"561 578 LINE",
"561 611 LINE",
"355 611 LINE",
"355 578 LINE",
"422 558 LINE",
"298 363 LINE",
"174 558 LINE",
"231 578 LINE",
"231 611 LINE",
"7 611 LINE",
"7 578 LINE",
"74 558 LINE",
"235 307 LINE",
"70 53 LINE",
"1 33 LINE",
"1 0 LINE",
"208 0 LINE",
"208 33 LINE"
);
}
);
};
layerId = "C2E97133-8774-4C1F-A96F-338CBADF7D3D";
paths = (
{
closed = 1;
nodes = (
"207 0 LINE",
"207 33 LINE",
"139 53 LINE",
"267 254 LINE",
"398 52 LINE",
"339 33 LINE",
"339 0 LINE",
"565 0 LINE",
"565 33 LINE",
"497 52 LINE",
"330 311 LINE",
"491 558 LINE",
"560 578 LINE",
"560 611 LINE",
"354 611 LINE",
"354 578 LINE",
"421 558 LINE",
"297 363 LINE",
"173 558 LINE",
"230 578 LINE",
"230 611 LINE",
"6 611 LINE",
"6 578 LINE",
"73 558 LINE",
"234 307 LINE",
"69 53 LINE",
"0 33 LINE",
"0 0 LINE"
);
}
);
width = 565;
},
{
anchors = (
{
name = bottom;
position = "{307, 0}";
},
{
name = top;
position = "{307, 614}";
}
);
background = {
paths = (
{
closed = 1;
nodes = (
"163 65 LINE",
"277 236 LINE",
"387 65 LINE",
"325 49 LINE",
"325 0 LINE",
"607 0 LINE",
"607 45 LINE",
"530 65 LINE",
"369 324 LINE",
"524 549 LINE",
"591 569 LINE",
"591 614 LINE",
"363 614 LINE",
"363 565 LINE",
"435 549 LINE",
"327 389 LINE",
"224 549 LINE",
"296 565 LINE",
"296 614 LINE",
"14 614 LINE",
"14 569 LINE",
"81 549 LINE",
"236 303 LINE",
"74 65 LINE",
"7 45 LINE",
"7 0 LINE",
"234 0 LINE",
"234 46 LINE"
);
}
);
};
layerId = "320D1F10-23EA-4160-876F-9C954522C215";
paths = (
{
closed = 1;
nodes = (
"234 0 LINE",
"234 46 LINE",
"163 65 LINE",
"277 236 LINE",
"387 65 LINE",
"325 49 LINE",
"325 0 LINE",
"607 0 LINE",
"607 45 LINE",
"530 65 LINE",
"369 324 LINE",
"524 549 LINE",
"591 569 LINE",
"591 614 LINE",
"363 614 LINE",
"363 565 LINE",
"435 549 LINE",
"327 389 LINE",
"224 549 LINE",
"296 565 LINE",
"296 614 LINE",
"14 614 LINE",
"14 569 LINE",
"81 549 LINE",
"236 303 LINE",
"74 65 LINE",
"7 45 LINE",
"7 0 LINE"
);
}
);
width = 614;
},
{
anchors = (
{
name = bottom;
position = "{276, 0}";
},
{
name = top;
position = "{276, 610}";
}
);
layerId = "5f75e36f-2d9b-434e-b133-1931d65175c8";
paths = (
{
closed = 1;
nodes = (
"201 0 LINE",
"201 30 LINE",
"133 50 LINE",
"265 259 LINE",
"401 49 LINE",
"343 29 LINE",
"343 0 LINE",
"555 0 LINE",
"555 30 LINE",
"489 49 LINE",
"321 308 LINE",
"483 560 LINE",
"553 580 LINE",
"553 610 LINE",
"352 610 LINE",
"352 581 LINE",
"418 560 LINE",
"290 357 LINE",
"161 560 LINE",
"214 581 LINE",
"214 610 LINE",
"4 610 LINE",
"4 580 LINE",
"71 560 LINE",
"234 308 LINE",
"68 50 LINE",
"-2 30 LINE",
"-2 0 LINE"
);
}
);
width = 553;
},
{
anchors = (
{
name = bottom;
position = "{316, 0}";
},
{
name = top;
position = "{316, 615}";
}
);
layerId = "13e4c948-4684-4dcc-833a-03da9e1ebe8a";
paths = (
{
closed = 1;
nodes = (
"244 0 LINE",
"244 51 LINE",
"172 69 LINE",
"281 230 LINE",
"384 70 LINE",
"321 55 LINE",
"321 0 LINE",
"622 0 LINE",
"622 49 LINE",
"544 70 LINE",
"383 329 LINE",
"534 546 LINE",
"602 566 LINE",
"602 615 LINE",
"367 615 LINE",
"367 561 LINE",
"439 546 LINE",
"338 398 LINE",
"244 546 LINE",
"320 561 LINE",
"320 615 LINE",
"17 615 LINE",
"17 566 LINE",
"84 546 LINE",
"237 302 LINE",
"76 69 LINE",
"10 49 LINE",
"10 0 LINE"
);
}
);
width = 631;
}
);
leftKerningGroup = X;
rightKerningGroup = X;
unicode = 0058;
},
{
glyphname = Y;
layers = (
{
anchors = (
{
name = bottom;
position = "{282, 0}";
},
{
name = top;
position = "{295, 611}";
},
{
name = topleft;
position = "{13, 611}";
}
);
background = {
paths = (
{
closed = 1;
nodes = (
"434 558 LINE",
"304 297 LINE",
"179 558 LINE",
"237 578 LINE",
"237 611 LINE",
"12 611 LINE",
"12 578 LINE",
"80 558 LINE",
"247 224 LINE",
"247 53 LINE",
"140 33 LINE",
"140 0 LINE",
"436 0 LINE",
"436 33 LINE",
"329 53 LINE",
"329 224 LINE",
"497 558 LINE",
"569 578 LINE",
"569 611 LINE",
"363 611 LINE",
"363 578 LINE"
);
}
);
};
layerId = "C2E97133-8774-4C1F-A96F-338CBADF7D3D";
paths = (
{
closed = 1;
nodes = (
"429 0 LINE",
"429 33 LINE",
"322 53 LINE",
"322 224 LINE",
"490 558 LINE",
"562 578 LINE",
"562 611 LINE",
"356 611 LINE",
"356 578 LINE",
"427 558 LINE",
"297 297 LINE",
"172 558 LINE",
"230 578 LINE",
"230 611 LINE",
"5 611 LINE",
"5 578 LINE",
"73 558 LINE",
"240 224 LINE",
"240 53 LINE",
"133 33 LINE",
"133 0 LINE"
);
}
);
width = 567;
},
{
anchors = (
{
name = bottom;
position = "{294, 0}";
},
{
name = top;
position = "{313, 614}";
},
{
name = topleft;
position = "{14, 614}";
}
);
background = {
paths = (
{
closed = 1;
nodes = (
"429 548 LINE",
"329 344 LINE",
"224 546 LINE",
"292 567 LINE",
"292 614 LINE",
"9 614 LINE",
"9 569 LINE",
"80 545 LINE",
"231 256 LINE",
"231 69 LINE",
"147 45 LINE",
"147 0 LINE",
"451 0 LINE",
"451 45 LINE",
"365 69 LINE",
"365 256 LINE",
"507 545 LINE",
"578 570 LINE",
"578 614 LINE",
"358 614 LINE",
"358 568 LINE"
);
}
);
};
layerId = "320D1F10-23EA-4160-876F-9C954522C215";
paths = (
{
closed = 1;
nodes = (
"445 0 LINE",
"445 45 LINE",
"359 69 LINE",
"359 256 LINE",
"501 545 LINE",
"572 570 LINE",
"572 614 LINE",
"352 614 LINE",
"352 568 LINE",
"423 548 LINE",
"323 344 LINE",
"218 546 LINE",
"286 567 LINE",
"286 614 LINE",
"3 614 LINE",
"3 569 LINE",
"74 545 LINE",
"225 256 LINE",
"225 69 LINE",
"141 45 LINE",
"141 0 LINE"
);
}
);
width = 575;
},
{
anchors = (
{
name = bottom;
position = "{278, 0}";
},
{
name = top;
position = "{289, 610}";
},
{
name = topleft;
position = "{6, 610}";
}
);
layerId = "5f75e36f-2d9b-434e-b133-1931d65175c8";
paths = (
{
closed = 1;
nodes = (
"425 0 LINE",
"425 30 LINE",
"313 49 LINE",
"313 216 LINE",
"488 561 LINE",
"560 580 LINE",
"560 610 LINE",
"357 610 LINE",
"357 581 LINE",
"428 561 LINE",
"289 284 LINE",
"159 561 LINE",
"216 581 LINE",
"216 610 LINE",
"6 610 LINE",
"6 580 LINE",
"73 561 LINE",
"244 216 LINE",
"244 49 LINE",
"131 30 LINE",
"131 0 LINE"
);
}
);
width = 565;
},
{
anchors = (
{
name = bottom;
position = "{301, 0}";
},
{
name = top;
position = "{317, 615}";
},
{
name = topleft;
position = "{3, 615}";
}
);
layerId = "13e4c948-4684-4dcc-833a-03da9e1ebe8a";
paths = (
{
closed = 1;
nodes = (
"451 0 LINE",
"451 49 LINE",
"372 75 LINE",
"372 267 LINE",
"505 541 LINE",
"576 567 LINE",
"576 615 LINE",
"351 615 LINE",
"351 565 LINE",
"422 545 LINE",
"333 360 LINE",
"235 542 LINE",
"306 563 LINE",
"306 615 LINE",
"3 615 LINE",
"3 566 LINE",
"75 541 LINE",
"220 267 LINE",
"220 75 LINE",
"144 49 LINE",
"144 0 LINE"
);
}
);
width = 578;
}
);
leftKerningGroup = Y;
rightKerningGroup = Y;
unicode = 0059;
},
{
glyphname = Z;
layers = (
{
anchors = (
{
name = bottom;
position = "{260, 0}";
},
{
name = top;
position = "{263, 611}";
}
);
background = {
paths = (
{
closed = 1;
nodes = (
"435 147 LINE",
"398 54 LINE",
"147 54 LINE",
"471 579 LINE",
"466 611 LINE",
"64 611 LINE",
"73 479 LINE",
"111 479 LINE",
"133 558 LINE",
"370 558 LINE",
"43 33 LINE",
"61 0 LINE",
"463 0 LINE",
"474 147 LINE"
);
}
);
};
layerId = "C2E97133-8774-4C1F-A96F-338CBADF7D3D";
paths = (
{
closed = 1;
nodes = (
"464 0 LINE",
"475 147 LINE",
"436 147 LINE",
"399 54 LINE",
"148 54 LINE",
"472 579 LINE",
"467 611 LINE",
"65 611 LINE",
"74 479 LINE",
"112 479 LINE",
"134 558 LINE",
"371 558 LINE",
"44 33 LINE",
"62 0 LINE"
);
}
);
width = 518;
},
{
anchors = (
{
name = bottom;
position = "{250, 0}";
},
{
name = top;
position = "{254, 614}";
}
);
background = {
paths = (
{
closed = 1;
nodes = (
"416 162 LINE",
"378 69 LINE",
"179 69 LINE",
"480 581 LINE",
"475 614 LINE",
"39 614 LINE",
"49 468 LINE",
"107 468 LINE",
"131 546 LINE",
"327 546 LINE",
"21 33 LINE",
"39 0 LINE",
"464 0 LINE",
"472 162 LINE"
);
}
);
};
layerId = "320D1F10-23EA-4160-876F-9C954522C215";
paths = (
{
closed = 1;
nodes = (
"464 0 LINE",
"472 162 LINE",
"416 162 LINE",
"378 69 LINE",
"179 69 LINE",
"480 581 LINE",
"475 614 LINE",
"39 614 LINE",
"49 468 LINE",
"107 468 LINE",
"131 546 LINE",
"327 546 LINE",
"21 33 LINE",
"39 0 LINE"
);
}
);
width = 500;
},
{
anchors = (
{
name = bottom;
position = "{260, 0}";
},
{
name = top;
position = "{263, 610}";
}
);
layerId = "5f75e36f-2d9b-434e-b133-1931d65175c8";
paths = (
{
closed = 1;
nodes = (
"462 0 LINE",
"474 143 LINE",
"439 143 LINE",
"402 49 LINE",
"138 49 LINE",
"467 579 LINE",
"462 610 LINE",
"69 610 LINE",
"78 482 LINE",
"111 482 LINE",
"133 562 LINE",
"380 562 LINE",
"49 33 LINE",
"67 0 LINE"
);
}
);
width = 523;
},
{
anchors = (
{
name = bottom;
position = "{246, 0}";
},
{
name = top;
position = "{256, 615}";
}
);
layerId = "13e4c948-4684-4dcc-833a-03da9e1ebe8a";
paths = (
{
closed = 1;
nodes = (
"463 0 LINE",
"470 167 LINE",
"408 167 LINE",
"370 74 LINE",
"191 74 LINE",
"482 582 LINE",
"477 615 LINE",
"29 615 LINE",
"40 464 LINE",
"105 464 LINE",
"129 541 LINE",
"307 541 LINE",
"12 33 LINE",
"30 0 LINE"
);
}
);
width = 494;
}
);
leftKerningGroup = Z;
rightKerningGroup = Z;
unicode = 005A;
},
{
glyphname = G_tilde.loclGUA;
layers = (
{
background = {
paths = (
{
closed = 1;
nodes = (
"472 470 LINE",
"510 470 LINE",
"524 597 LINE",
"479 618 OFFCURVE",
"400 627 OFFCURVE",
"346 627 CURVE SMOOTH",
"121 627 OFFCURVE",
"41 483 OFFCURVE",
"41 309 CURVE SMOOTH",
"41 136 OFFCURVE",
"117 -11 OFFCURVE",
"339 -11 CURVE SMOOTH",
"412 -11 OFFCURVE",
"474 4 OFFCURVE",
"519 31 CURVE",
"519 234 LINE",
"590 254 LINE",
"590 288 LINE",
"347 288 LINE",
"347 254 LINE",
"436 234 LINE",
"436 56 LINE",
"408 42 OFFCURVE",
"378 37 OFFCURVE",
"343 37 CURVE SMOOTH",
"169 37 OFFCURVE",
"131 196 OFFCURVE",
"131 309 CURVE SMOOTH",
"131 422 OFFCURVE",
"167 578 OFFCURVE",
"346 578 CURVE SMOOTH",
"386 578 OFFCURVE",
"423 573 OFFCURVE",
"448 567 CURVE"
);
},
{
closed = 1;
nodes = (
"442 804 LINE",
"442 804 OFFCURVE",
"422 769 OFFCURVE",
"399 769 CURVE SMOOTH",
"364 769 OFFCURVE",
"291 809 OFFCURVE",
"257 809 CURVE SMOOTH",
"224 809 OFFCURVE",
"204 767 OFFCURVE",
"183 715 CURVE",
"213 703 LINE",
"213 703 OFFCURVE",
"236 739 OFFCURVE",
"258 739 CURVE SMOOTH",
"291 739 OFFCURVE",
"366 699 OFFCURVE",
"400 699 CURVE SMOOTH",
"432 699 OFFCURVE",
"452 741 OFFCURVE",
"473 792 CURVE"
);
}
);
};
components = (
{
name = G;
},
{
name = tildecomb.case;
transform = "{1, 0, 0, 1, 175, 0}";
}
);
layerId = "C2E97133-8774-4C1F-A96F-338CBADF7D3D";
width = 600;
},
{
background = {
paths = (
{
closed = 1;
nodes = (
"475 447 LINE",
"531 447 LINE",
"542 600 LINE",
"500 616 OFFCURVE",
"422 629 OFFCURVE",
"358 629 CURVE SMOOTH",
"120 629 OFFCURVE",
"30 485 OFFCURVE",
"30 312 CURVE SMOOTH",
"30 138 OFFCURVE",
"112 -9 OFFCURVE",
"346 -9 CURVE SMOOTH",
"421 -9 OFFCURVE",
"496 6 OFFCURVE",
"544 33 CURVE",
"544 223 LINE",
"604 242 LINE",
"604 289 LINE",
"325 289 LINE",
"325 244 LINE",
"409 221 LINE",
"409 71 LINE",
"383 63 OFFCURVE",
"357 63 OFFCURVE",
"339 63 CURVE SMOOTH",
"211 63 OFFCURVE",
"172 180 OFFCURVE",
"172 312 CURVE SMOOTH",
"172 420 OFFCURVE",
"205 558 OFFCURVE",
"360 558 CURVE SMOOTH",
"397 558 OFFCURVE",
"429 554 OFFCURVE",
"450 545 CURVE"
);
},
{
closed = 1;
nodes = (
"462 784 LINE",
"462 784 OFFCURVE",
"445 753 OFFCURVE",
"420 753 CURVE SMOOTH",
"381 753 OFFCURVE",
"293 790 OFFCURVE",
"244 790 CURVE SMOOTH",
"211 790 OFFCURVE",
"177 744 OFFCURVE",
"157 686 CURVE",
"204 667 LINE",
"204 667 OFFCURVE",
"220 698 OFFCURVE",
"244 698 CURVE SMOOTH",
"282 698 OFFCURVE",
"371 661 OFFCURVE",
"420 661 CURVE SMOOTH",
"454 661 OFFCURVE",
"482 707 OFFCURVE",
"506 765 CURVE"
);
}
);
};
components = (
{
name = G;
},
{
name = tildecomb.case;
transform = "{1, 0, 0, 1, 156, 0}";
}
);
layerId = "320D1F10-23EA-4160-876F-9C954522C215";
width = 619;
},
{
components = (
{
name = G;
},
{
name = tildecomb.case;
transform = "{1, 0, 0, 1, 180, 0}";
}
);
layerId = "5f75e36f-2d9b-434e-b133-1931d65175c8";
width = 595;
},
{
components = (
{
name = G;
},
{
name = tildecomb.case;
transform = "{1, 0, 0, 1, 148, 0}";
}
);
layerId = "13e4c948-4684-4dcc-833a-03da9e1ebe8a";
width = 626;
}
);
leftKerningGroup = O;
rightKerningGroup = G;
},
